{"glyphs":{"0":{"ha":861,"x_min":77,"x_max":785,"o":"m 785 486 q 758 272 785 366 q 685 115 732 178 q 573 18 637 51 q 431 -16 508 -16 q 289 18 353 -16 q 177 115 224 51 q 103 272 130 178 q 77 486 77 366 q 103 701 77 607 q 177 858 130 794 q 289 955 224 922 q 431 987 353 987 q 573 955 508 987 q 685 858 637 922 q 758 701 732 794 q 785 486 785 607 m 677 486 q 660 655 677 581 q 611 783 643 730 q 533 863 578 835 q 431 890 488 890 q 328 863 374 890 q 250 783 282 835 q 200 655 218 730 q 183 486 183 581 q 200 317 183 392 q 250 190 218 242 q 328 110 282 138 q 431 82 374 82 q 533 110 488 82 q 611 190 578 138 q 660 317 643 242 q 677 486 677 392 z "},"1":{"ha":861,"x_min":183,"x_max":699,"o":"m 183 0 l 183 96 l 397 96 l 397 778 l 207 778 l 207 846 q 289 856 252 848 q 353 878 326 863 q 398 916 380 892 q 422 972 416 939 l 504 972 l 504 96 l 699 96 l 699 0 l 183 0 z "},"2":{"ha":861,"x_min":77,"x_max":749,"o":"m 77 0 q 110 163 81 90 q 187 293 138 237 q 297 392 237 349 q 406 465 357 435 q 520 544 475 511 q 589 607 564 578 q 623 663 614 635 q 632 725 632 690 q 577 847 632 803 q 416 890 522 890 q 336 883 372 890 q 271 862 300 875 q 215 831 241 848 q 167 794 190 813 l 104 872 q 168 916 134 895 q 239 953 201 937 q 323 978 278 969 q 421 987 368 987 q 545 972 488 987 q 646 925 603 957 q 713 845 688 894 q 737 730 737 797 q 723 633 737 673 q 679 557 709 592 q 599 486 648 522 q 479 404 550 450 q 379 335 427 370 q 293 263 331 300 q 233 187 255 226 q 201 103 210 149 l 749 103 l 749 0 l 77 0 z "},"3":{"ha":861,"x_min":64,"x_max":742,"o":"m 742 279 q 718 155 742 210 q 647 62 693 100 q 535 4 602 24 q 386 -16 469 -16 q 287 -6 334 -16 q 200 21 241 4 q 125 61 159 38 q 64 109 91 83 l 134 184 q 256 107 192 132 q 390 82 321 82 q 573 131 511 82 q 635 277 635 180 q 617 356 635 321 q 568 413 600 390 q 491 448 536 436 q 392 460 446 460 l 323 460 l 323 553 l 393 553 q 540 597 489 553 q 591 721 591 642 q 581 788 591 757 q 544 842 570 819 q 477 878 519 865 q 375 890 436 890 q 259 867 311 890 q 170 810 208 844 l 104 884 q 155 921 125 902 q 219 954 184 939 q 294 978 254 969 q 378 987 334 987 q 503 972 444 987 q 605 926 562 957 q 673 848 648 895 q 699 736 699 800 q 688 658 699 692 q 660 597 678 624 q 616 549 642 570 q 558 511 590 528 q 627 485 593 503 q 686 438 660 467 q 727 370 711 410 q 742 279 742 331 z "},"4":{"ha":861,"x_min":62,"x_max":794,"o":"m 667 232 l 667 0 l 567 0 l 567 232 l 62 232 l 62 322 l 551 972 l 667 972 l 667 325 l 794 325 l 794 232 l 667 232 m 567 833 l 183 325 l 567 325 l 567 833 z "},"5":{"ha":861,"x_min":96,"x_max":768,"o":"m 768 323 q 741 172 768 235 q 666 66 714 108 q 550 4 617 24 q 403 -16 483 -16 q 236 9 313 -16 q 96 74 159 33 l 149 160 q 271 104 203 125 q 411 82 338 82 q 520 99 473 82 q 599 147 568 116 q 646 221 630 178 q 661 317 661 264 q 601 467 661 414 q 429 521 540 521 q 367 516 395 521 q 315 504 339 512 q 269 484 290 496 q 227 458 247 473 l 119 500 l 153 972 l 710 972 l 710 869 l 245 869 l 222 557 q 313 600 259 582 q 436 618 367 618 q 582 596 519 618 q 686 536 644 575 q 748 444 727 498 q 768 323 768 389 z "},"6":{"ha":861,"x_min":89,"x_max":796,"o":"m 796 300 q 769 163 796 222 q 693 64 741 104 q 579 4 644 24 q 437 -16 513 -16 q 301 5 365 -16 q 191 72 238 26 q 116 191 143 118 q 89 368 89 264 q 101 500 89 431 q 140 635 113 568 q 210 763 167 702 q 316 872 254 824 q 462 950 378 920 q 652 987 545 981 l 652 892 q 345 772 459 875 q 193 484 231 669 q 244 529 216 509 q 305 565 271 550 q 380 589 339 581 q 473 597 422 597 q 599 579 541 597 q 702 524 658 561 q 771 431 745 487 q 796 300 796 375 m 689 294 q 672 381 689 343 q 625 446 656 420 q 548 486 593 473 q 446 500 503 500 q 342 485 388 500 q 263 443 296 470 q 213 378 231 416 q 196 294 196 340 q 214 210 196 249 q 263 143 231 172 q 341 98 296 115 q 441 82 387 82 q 548 98 502 82 q 626 141 595 113 q 673 209 657 170 q 689 294 689 248 z "},"7":{"ha":861,"x_min":79,"x_max":782,"o":"m 782 871 q 648 699 711 791 q 537 499 585 607 q 459 267 488 391 q 427 0 429 142 l 317 0 q 347 250 321 131 q 417 478 373 370 q 523 684 462 586 q 657 869 584 781 l 79 869 l 79 972 l 782 972 l 782 871 z "},"8":{"ha":861,"x_min":81,"x_max":781,"o":"m 781 273 q 755 149 781 203 q 684 58 730 95 q 573 3 638 22 q 428 -16 508 -16 q 284 3 348 -16 q 175 57 220 21 q 105 147 130 94 q 81 271 81 200 q 94 360 81 320 q 129 429 106 399 q 185 482 151 458 q 267 522 220 506 q 207 554 234 535 q 161 598 180 572 q 130 655 141 623 q 119 728 119 688 q 140 831 119 783 q 200 913 160 878 q 297 968 239 948 q 431 987 355 987 q 564 968 506 987 q 661 915 622 949 q 721 833 701 880 q 741 729 741 785 q 730 659 741 690 q 700 603 720 628 q 653 558 681 578 q 593 525 626 539 q 673 486 638 509 q 733 429 708 462 q 769 359 758 396 q 781 273 781 321 m 635 726 q 624 787 635 757 q 588 840 612 817 q 524 878 563 863 q 429 892 485 892 q 334 878 373 892 q 271 841 295 864 q 236 789 247 819 q 225 729 225 760 q 239 664 225 694 q 280 612 254 634 q 345 578 307 591 q 431 566 382 566 q 515 578 477 566 q 579 613 553 591 q 621 664 606 635 q 635 726 635 693 m 673 271 q 657 349 673 313 q 610 412 641 385 q 533 453 578 438 q 429 468 488 468 q 325 453 370 468 q 249 413 279 439 q 202 351 218 387 q 186 273 186 315 q 201 195 186 231 q 247 135 216 160 q 324 95 278 109 q 432 81 370 81 q 538 94 493 81 q 614 133 584 108 q 659 193 644 158 q 673 271 673 228 z "},"9":{"ha":861,"x_min":65,"x_max":772,"o":"m 665 677 q 648 762 665 723 q 598 829 630 801 q 520 874 566 858 q 419 890 475 890 q 313 875 359 890 q 235 831 267 859 q 188 764 204 803 q 172 677 172 724 q 237 526 172 580 q 415 472 302 472 q 519 487 473 472 q 598 528 566 501 q 648 593 631 555 q 665 677 665 631 m 772 604 q 760 472 772 541 q 721 337 748 404 q 651 209 694 270 q 545 100 608 148 q 399 21 483 52 q 210 -16 316 -9 l 210 81 q 516 200 402 98 q 668 489 630 303 q 617 443 644 464 q 556 407 590 422 q 480 384 522 392 q 387 375 439 375 q 262 393 321 375 q 160 448 203 411 q 91 541 116 485 q 65 672 65 597 q 93 809 65 750 q 169 908 120 868 q 282 967 217 947 q 424 987 348 987 q 559 966 496 987 q 670 900 623 945 q 745 781 718 854 q 772 604 772 708 z "}," ":{"ha":361,"x_min":0,"x_max":0,"o":""},"Ł":{"ha":812,"x_min":56,"x_max":730,"o":"m 142 0 l 142 330 l 56 256 l 56 379 l 142 454 l 142 972 l 250 972 l 250 539 l 473 729 l 473 606 l 250 415 l 250 98 l 730 98 l 730 0 l 142 0 z "},"ł":{"ha":363,"x_min":61,"x_max":301,"o":"m 233 439 l 233 0 l 129 0 l 129 355 l 61 296 l 61 422 l 129 482 l 129 954 l 233 1013 l 233 564 l 301 625 l 301 498 l 233 439 z "},"Š":{"ha":822,"x_min":77,"x_max":725,"o":"m 725 256 q 703 149 725 199 q 640 63 682 100 q 539 5 599 26 q 403 -16 479 -16 q 307 -5 353 -16 q 219 23 260 5 q 141 65 177 41 q 77 119 105 90 l 149 200 q 268 115 204 146 q 407 83 332 83 q 494 95 456 83 q 560 128 533 106 q 602 181 587 150 q 616 250 616 212 q 605 312 616 284 q 567 363 594 339 q 496 410 541 387 q 385 456 451 432 q 252 512 306 484 q 166 573 199 540 q 119 646 133 606 q 104 739 104 686 q 126 844 104 798 q 188 922 149 890 q 284 970 228 954 q 408 987 340 987 q 498 980 457 987 q 575 960 539 973 q 642 927 610 947 q 704 884 673 908 l 635 799 q 582 838 608 821 q 528 866 555 854 q 469 883 500 878 q 401 889 438 889 q 315 878 351 889 q 257 846 279 866 q 223 800 234 826 q 212 746 212 774 q 221 691 212 715 q 255 644 230 667 q 325 598 280 621 q 443 550 370 576 q 578 491 524 521 q 665 428 632 462 q 711 352 697 393 q 725 256 725 310 m 469 1035 l 353 1035 l 182 1257 l 272 1257 l 412 1114 l 553 1257 l 640 1257 l 469 1035 z "},"š":{"ha":648,"x_min":60,"x_max":567,"o":"m 549 667 l 490 590 q 404 641 444 627 q 309 656 364 656 q 219 630 251 656 q 187 566 187 605 q 195 525 187 543 q 221 492 203 508 q 271 461 240 477 q 349 424 302 445 q 441 379 400 400 q 509 332 481 358 q 552 273 537 307 q 567 191 567 239 q 546 98 567 137 q 489 34 524 59 q 409 -3 454 9 q 317 -16 364 -16 q 176 10 241 -16 q 60 78 112 36 l 121 154 q 215 95 165 115 q 319 74 265 74 q 431 103 395 74 q 467 186 467 133 q 458 227 467 208 q 429 262 449 245 q 376 297 409 279 q 294 335 343 314 q 200 380 239 358 q 136 426 161 401 q 99 483 111 451 q 87 558 87 514 q 104 634 87 600 q 152 693 121 669 q 224 731 182 718 q 315 745 266 745 q 449 723 391 745 q 549 667 507 701 m 383 827 l 267 827 l 96 1048 l 186 1048 l 326 905 l 467 1048 l 554 1048 l 383 827 z "},"Ý":{"ha":905,"x_min":65,"x_max":840,"o":"m 840 972 l 507 386 l 507 0 l 399 0 l 399 385 l 65 972 l 189 972 l 454 496 l 720 972 l 840 972 m 429 1035 l 347 1035 l 490 1257 l 639 1257 l 429 1035 z "},"ý":{"ha":737,"x_min":56,"x_max":682,"o":"m 319 -257 l 215 -257 l 315 8 l 56 729 l 165 729 l 368 125 l 572 729 l 682 729 l 319 -257 m 345 827 l 262 827 l 406 1048 l 554 1048 l 345 827 z "},"Þ":{"ha":859,"x_min":127,"x_max":802,"o":"m 802 507 q 778 379 802 435 q 710 284 753 323 q 606 227 666 246 q 472 207 545 207 l 236 207 l 236 0 l 127 0 l 127 972 l 236 972 l 236 798 l 492 798 q 614 780 557 798 q 713 726 671 762 q 778 636 754 690 q 802 507 802 581 m 693 503 q 641 648 693 597 q 488 699 588 699 l 236 699 l 236 306 l 473 306 q 640 356 586 306 q 693 503 693 406 z "},"þ":{"ha":777,"x_min":115,"x_max":700,"o":"m 700 376 q 679 206 700 279 q 620 83 657 133 q 532 9 583 34 q 425 -16 482 -16 q 307 11 357 -16 q 220 82 258 38 l 220 -210 l 115 -268 l 115 954 l 220 1013 l 220 640 q 261 680 239 661 q 311 713 284 699 q 370 736 338 728 q 439 745 402 745 q 541 723 494 745 q 624 657 589 702 q 680 542 659 612 q 700 376 700 473 m 597 375 q 585 496 597 444 q 548 583 572 548 q 490 636 524 618 q 412 654 456 654 q 306 626 354 654 q 220 549 258 597 l 220 184 q 255 141 235 161 q 301 107 276 121 q 355 84 326 92 q 416 75 384 75 q 553 151 508 75 q 597 375 597 227 z "},"Ð":{"ha":947,"x_min":56,"x_max":842,"o":"m 842 493 q 806 267 842 361 q 708 114 770 174 q 561 27 646 55 q 379 0 477 0 l 142 0 l 142 460 l 56 460 l 56 557 l 142 557 l 142 972 l 399 972 q 576 944 494 972 q 716 858 657 916 q 808 709 775 800 q 842 493 842 618 m 733 489 q 711 654 733 582 q 646 774 689 726 q 538 848 602 823 q 390 873 474 873 l 248 873 l 248 557 l 444 557 l 444 460 l 248 460 l 248 98 l 393 98 q 535 120 472 98 q 642 189 597 142 q 709 310 686 236 q 733 489 733 384 z "},"Ž":{"ha":872,"x_min":85,"x_max":779,"o":"m 779 0 l 85 0 l 85 94 l 660 878 l 113 878 l 113 972 l 779 972 l 779 878 l 204 94 l 779 94 l 779 0 m 494 1035 l 378 1035 l 207 1257 l 297 1257 l 437 1114 l 578 1257 l 665 1257 l 494 1035 z "},"ž":{"ha":684,"x_min":75,"x_max":591,"o":"m 75 0 l 75 77 l 473 642 l 107 642 l 107 729 l 591 729 l 591 653 l 193 87 l 591 87 l 591 0 l 75 0 m 401 827 l 285 827 l 114 1048 l 204 1048 l 345 905 l 485 1048 l 572 1048 l 401 827 z "},"½":{"ha":1292,"x_min":130,"x_max":1162,"o":"m 235 821 l 130 821 l 130 893 q 177 899 156 895 q 214 912 198 903 q 239 935 229 920 q 253 971 249 949 l 332 971 l 332 354 l 235 354 l 235 821 m 302 0 l 189 0 l 851 972 l 965 972 l 302 0 m 744 1 q 762 112 747 65 q 802 194 777 158 q 862 259 827 230 q 940 317 897 288 q 998 359 975 342 q 1035 392 1021 376 q 1054 421 1048 407 q 1059 455 1059 436 q 1033 514 1059 493 q 957 536 1006 536 q 915 532 934 536 q 879 520 896 528 q 847 501 863 513 q 814 475 831 490 l 755 549 q 801 583 779 568 q 846 607 823 597 q 898 622 870 617 q 960 627 926 627 q 1038 617 1002 627 q 1100 585 1074 606 q 1141 532 1126 564 q 1156 458 1156 500 q 1148 397 1156 423 q 1123 348 1141 372 q 1076 301 1105 325 q 1004 250 1046 278 q 941 204 966 224 q 898 166 915 184 q 871 132 881 148 q 857 97 862 115 l 1162 97 l 1162 1 l 744 1 z "},"¼":{"ha":1292,"x_min":134,"x_max":1152,"o":"m 239 821 l 134 821 l 134 893 q 181 899 160 895 q 218 912 202 903 q 243 935 233 920 q 257 971 253 949 l 336 971 l 336 354 l 239 354 l 239 821 m 344 0 l 231 0 l 892 972 l 1006 972 l 344 0 m 979 139 l 667 139 l 667 215 l 979 618 l 1072 618 l 1072 229 l 1152 229 l 1152 139 l 1072 139 l 1072 1 l 979 1 l 979 139 m 979 229 l 979 472 l 789 229 l 979 229 z "},"¹":{"ha":478,"x_min":110,"x_max":313,"o":"m 215 821 l 110 821 l 110 893 q 157 899 136 895 q 194 912 178 903 q 219 935 210 920 q 233 971 229 949 l 313 971 l 313 354 l 215 354 l 215 821 z "},"¾":{"ha":1292,"x_min":98,"x_max":1193,"o":"m 301 353 q 192 379 243 353 q 98 450 140 406 l 165 517 q 232 463 199 481 q 304 444 265 444 q 397 470 367 444 q 427 545 427 496 q 394 614 427 591 q 305 637 360 637 l 251 637 l 251 726 l 308 726 q 380 750 356 726 q 404 814 404 774 q 377 874 404 853 q 300 896 351 896 q 240 881 267 896 q 184 838 213 866 l 119 903 q 199 963 154 939 q 301 987 244 987 q 380 977 343 987 q 443 946 416 966 q 486 894 470 925 q 501 822 501 863 q 485 744 501 775 q 440 690 469 712 q 473 669 458 682 q 500 639 488 656 q 518 598 511 621 q 525 546 525 575 q 510 465 525 500 q 465 404 494 429 q 395 366 436 379 q 301 353 353 353 m 424 0 l 311 0 l 972 972 l 1086 972 l 424 0 m 1019 139 l 708 139 l 708 215 l 1019 618 l 1112 618 l 1112 229 l 1193 229 l 1193 139 l 1112 139 l 1112 1 l 1019 1 l 1019 139 m 1019 229 l 1019 472 l 830 229 l 1019 229 z "},"³":{"ha":562,"x_min":56,"x_max":482,"o":"m 258 353 q 149 379 201 353 q 56 450 97 406 l 122 517 q 189 463 156 481 q 261 444 222 444 q 354 470 324 444 q 385 545 385 496 q 351 614 385 591 q 262 637 317 637 l 208 637 l 208 726 l 265 726 q 337 750 313 726 q 361 814 361 774 q 334 874 361 853 q 257 896 308 896 q 197 881 224 896 q 142 838 170 866 l 77 903 q 156 963 111 939 q 258 987 201 987 q 337 977 300 987 q 400 946 374 966 q 443 894 427 925 q 458 822 458 863 q 442 744 458 775 q 397 690 426 712 q 430 669 415 682 q 457 639 446 656 q 475 598 469 621 q 482 546 482 575 q 467 465 482 500 q 422 404 452 429 q 352 366 393 379 q 258 353 311 353 z "},"²":{"ha":600,"x_min":92,"x_max":510,"o":"m 92 361 q 109 472 94 425 q 149 554 124 518 q 209 619 174 590 q 288 677 244 648 q 346 719 323 702 q 382 752 369 736 q 401 782 396 767 q 407 815 407 796 q 380 874 407 853 q 304 896 353 896 q 262 892 281 896 q 227 880 243 888 q 194 861 210 873 q 161 835 178 850 l 103 909 q 148 943 126 928 q 194 967 170 958 q 245 982 218 977 q 307 987 273 987 q 385 977 349 987 q 448 945 421 966 q 489 892 474 924 q 504 818 504 861 q 496 758 504 783 q 470 708 488 732 q 423 662 452 685 q 351 610 394 638 q 288 564 314 584 q 245 526 262 544 q 219 492 229 508 q 204 457 210 475 l 510 457 l 510 361 l 92 361 z "},"¦":{"ha":422,"x_min":161,"x_max":261,"o":"m 161 1111 l 261 1111 l 261 518 l 161 518 l 161 1111 m 161 336 l 261 336 l 261 -257 l 161 -257 l 161 336 z "},"−":{"ha":802,"x_min":77,"x_max":725,"o":"m 725 525 l 725 431 l 77 431 l 77 525 l 725 525 z "},"×":{"ha":861,"x_min":106,"x_max":755,"o":"m 690 153 l 431 415 l 171 153 l 106 218 l 368 478 l 106 737 l 171 803 l 431 541 l 690 803 l 755 737 l 493 478 l 755 218 l 690 153 z "},"ð":{"ha":786,"x_min":77,"x_max":710,"o":"m 710 414 q 688 221 710 302 q 625 87 666 140 q 524 9 583 35 q 390 -16 465 -16 q 270 7 327 -16 q 171 72 214 29 q 102 179 127 115 q 77 326 77 243 q 101 474 77 410 q 166 582 125 538 q 259 647 207 625 q 368 669 312 669 q 508 642 447 669 q 615 546 570 614 q 556 706 594 638 q 461 818 519 773 l 383 730 l 313 790 l 379 865 q 254 896 319 890 l 254 987 q 350 971 303 984 q 441 936 397 959 l 489 987 l 559 928 l 519 884 q 597 802 562 848 q 657 696 633 755 q 696 567 682 637 q 710 414 710 496 m 606 329 q 589 442 606 395 q 543 519 572 489 q 473 565 513 550 q 383 579 432 579 q 300 563 337 579 q 236 515 262 547 q 196 436 210 483 q 182 329 182 389 q 198 217 182 264 q 243 137 214 169 q 310 91 271 106 q 393 75 349 75 q 477 91 438 75 q 544 137 515 106 q 589 217 573 169 q 606 329 606 264 z "},"!":{"ha":366,"x_min":97,"x_max":267,"o":"m 211 261 l 153 261 l 129 515 l 129 972 l 236 972 l 236 515 l 211 261 m 267 69 q 259 37 267 52 q 241 10 252 22 q 214 -9 229 -2 q 182 -16 199 -16 q 150 -9 165 -16 q 122 10 134 -2 q 104 37 111 22 q 97 69 97 52 q 104 102 97 86 q 122 130 111 118 q 150 150 134 142 q 182 157 165 157 q 214 150 199 157 q 241 130 229 142 q 259 102 252 118 q 267 69 267 86 z "},"\"":{"ha":639,"x_min":117,"x_max":522,"o":"m 498 518 l 416 518 l 393 972 l 522 972 l 498 518 m 222 518 l 140 518 l 117 972 l 245 972 l 222 518 z "},"#":{"ha":861,"x_min":69,"x_max":791,"o":"m 642 245 l 642 0 l 545 0 l 545 245 l 317 245 l 317 0 l 220 0 l 220 245 l 69 245 l 69 336 l 220 336 l 220 636 l 69 636 l 69 726 l 220 726 l 220 972 l 317 972 l 317 726 l 545 726 l 545 972 l 642 972 l 642 726 l 791 726 l 791 636 l 642 636 l 642 336 l 791 336 l 791 245 l 642 245 m 545 636 l 317 636 l 317 336 l 545 336 l 545 636 z "},"$":{"ha":861,"x_min":81,"x_max":760,"o":"m 760 269 q 740 171 760 216 q 684 90 721 125 q 594 33 648 56 q 473 4 541 11 l 473 -139 l 371 -139 l 371 4 q 288 19 328 8 q 210 46 247 30 q 140 81 173 62 q 81 123 108 101 l 147 208 q 211 164 178 184 q 278 129 243 144 q 350 106 313 115 q 427 98 387 98 q 593 142 533 98 q 653 265 653 186 q 641 324 653 298 q 601 371 629 349 q 525 413 572 393 q 406 454 477 433 q 265 507 322 481 q 174 563 208 532 q 124 633 139 594 q 109 726 109 673 q 127 823 109 780 q 181 896 146 865 q 264 945 216 926 q 372 970 313 964 l 372 1111 l 475 1111 l 475 971 q 550 961 515 968 q 616 941 585 953 q 677 913 648 929 q 736 879 707 898 l 672 790 q 613 825 642 810 q 555 851 585 841 q 492 868 525 862 q 421 873 459 873 q 328 863 366 873 q 264 833 289 852 q 228 789 239 814 q 216 733 216 763 q 225 680 216 703 q 261 635 235 656 q 337 594 288 614 q 464 549 385 573 q 606 494 549 521 q 697 436 663 468 q 745 364 731 404 q 760 269 760 324 z "},"%":{"ha":861,"x_min":61,"x_max":800,"o":"m 347 721 q 309 520 347 589 q 203 452 270 452 q 98 519 136 452 q 61 718 61 586 q 100 919 61 850 q 205 987 138 987 q 310 920 273 987 q 347 721 347 853 m 267 718 q 250 860 267 810 q 203 909 234 909 q 157 861 172 909 q 142 721 142 813 q 158 579 142 629 q 205 529 174 529 q 252 577 237 529 q 267 718 267 626 m 244 0 l 163 0 l 616 972 l 699 972 l 244 0 m 800 254 q 762 53 800 122 q 656 -16 723 -16 q 551 52 589 -16 q 514 252 514 119 q 553 452 514 384 q 659 521 591 521 q 763 454 726 521 q 800 254 800 387 m 720 252 q 703 393 720 344 q 656 443 687 443 q 609 395 624 443 q 595 254 595 347 q 611 112 595 162 q 659 62 627 62 q 705 111 690 62 q 720 252 720 159 z "},"&":{"ha":895,"x_min":85,"x_max":846,"o":"m 539 777 q 506 865 539 832 q 422 897 473 897 q 370 889 394 897 q 328 865 345 880 q 300 829 310 850 q 290 783 290 808 q 308 709 290 742 q 349 647 326 676 l 397 585 q 465 634 438 610 q 509 682 492 659 q 532 729 525 705 q 539 777 539 752 m 453 510 l 644 262 q 678 339 662 297 q 711 433 694 380 l 802 406 q 761 287 786 346 q 705 183 735 228 l 846 0 l 718 0 l 640 102 q 517 14 582 43 q 378 -16 453 -16 q 257 1 311 -16 q 164 50 203 17 q 105 131 126 82 q 85 245 85 180 q 101 345 85 301 q 145 423 117 389 q 214 486 174 458 q 302 539 254 514 l 268 583 q 235 629 250 606 q 208 676 219 652 q 190 725 196 700 q 183 778 183 751 q 202 867 183 829 q 255 932 222 906 q 331 972 288 959 q 422 986 374 986 q 511 972 469 986 q 583 931 552 958 q 632 866 614 904 q 650 779 650 827 q 453 510 650 631 m 358 468 q 233 377 276 431 q 189 249 189 323 q 202 182 189 213 q 239 129 214 151 q 299 93 263 106 q 380 79 334 79 q 495 105 444 79 q 583 174 547 131 l 358 468 z "},"'":{"ha":357,"x_min":113,"x_max":244,"o":"m 221 518 l 136 518 l 113 972 l 244 972 l 221 518 z "},"(":{"ha":484,"x_min":43,"x_max":440,"o":"m 401 -153 q 319 -95 361 -127 q 238 -22 277 -62 q 162 66 198 18 q 100 169 127 114 q 58 285 74 223 q 43 415 43 347 q 58 552 43 488 q 100 672 74 616 q 162 777 127 728 q 238 865 198 825 q 319 938 277 905 q 401 996 361 970 l 440 950 q 328 845 379 900 q 239 727 276 791 q 180 589 201 664 q 159 424 159 514 q 180 254 159 330 q 239 114 201 178 q 328 -3 276 51 q 440 -107 379 -57 l 401 -153 z "},")":{"ha":484,"x_min":43,"x_max":440,"o":"m 440 428 q 425 291 440 355 q 382 171 409 227 q 320 66 356 115 q 245 -22 285 18 q 163 -95 205 -62 q 81 -153 121 -127 l 43 -107 q 155 -2 104 -57 q 244 116 207 52 q 302 254 281 179 q 323 419 323 328 q 302 589 323 513 q 244 729 281 665 q 155 846 207 792 q 43 950 104 900 l 81 996 q 163 938 121 970 q 245 865 205 905 q 320 777 285 825 q 382 674 356 729 q 425 558 409 620 q 440 428 440 496 z "},"*":{"ha":694,"x_min":132,"x_max":562,"o":"m 562 664 l 525 599 l 364 720 l 385 519 l 310 519 l 329 720 l 170 599 l 132 664 l 311 745 l 132 828 l 170 892 l 329 772 l 310 972 l 385 972 l 364 772 l 525 892 l 562 828 l 383 745 l 562 664 z "},"+":{"ha":861,"x_min":93,"x_max":768,"o":"m 481 431 l 481 135 l 380 135 l 380 431 l 93 431 l 93 525 l 380 525 l 380 821 l 481 821 l 481 525 l 768 525 l 768 431 l 481 431 z "},",":{"ha":431,"x_min":131,"x_max":296,"o":"m 205 -164 l 131 -164 l 151 160 l 296 160 l 205 -164 z "},"-":{"ha":447,"x_min":71,"x_max":376,"o":"m 71 457 l 71 558 l 376 558 l 376 457 l 71 457 z "},".":{"ha":431,"x_min":125,"x_max":306,"o":"m 306 75 q 298 40 306 56 q 279 11 291 23 q 250 -8 267 -1 q 215 -16 233 -16 q 180 -8 197 -16 q 151 11 163 -1 q 132 40 139 23 q 125 75 125 56 q 132 111 125 94 q 151 140 139 127 q 180 161 163 153 q 215 168 197 168 q 250 161 233 168 q 279 140 267 153 q 298 111 291 127 q 306 75 306 94 z "},"/":{"ha":590,"x_min":36,"x_max":554,"o":"m 139 -125 l 36 -125 l 452 1097 l 554 1097 l 139 -125 z "},":":{"ha":431,"x_min":125,"x_max":306,"o":"m 306 652 q 298 616 306 633 q 279 587 291 600 q 250 568 267 575 q 215 561 233 561 q 180 568 197 561 q 151 587 163 575 q 132 616 139 600 q 125 652 125 633 q 132 687 125 670 q 151 717 139 704 q 180 737 163 730 q 215 745 197 745 q 250 737 233 745 q 279 717 267 730 q 298 687 291 704 q 306 652 306 670 m 306 75 q 298 40 306 56 q 279 11 291 23 q 250 -8 267 -1 q 215 -16 233 -16 q 180 -8 197 -16 q 151 11 163 -1 q 132 40 139 23 q 125 75 125 56 q 132 111 125 94 q 151 140 139 127 q 180 161 163 153 q 215 168 197 168 q 250 161 233 168 q 279 140 267 153 q 298 111 291 127 q 306 75 306 94 z "},";":{"ha":431,"x_min":121,"x_max":306,"o":"m 306 652 q 298 616 306 633 q 279 587 291 600 q 250 568 267 575 q 215 561 233 561 q 180 568 197 561 q 151 587 163 575 q 132 616 139 600 q 125 652 125 633 q 132 687 125 670 q 151 717 139 704 q 180 737 163 730 q 215 745 197 745 q 250 737 233 745 q 279 717 267 730 q 298 687 291 704 q 306 652 306 670 m 196 -164 l 121 -164 l 142 160 l 286 160 l 196 -164 z "},"<":{"ha":861,"x_min":125,"x_max":742,"o":"m 125 421 l 125 534 l 742 920 l 742 807 l 216 479 l 742 151 l 742 36 l 125 421 z "},"=":{"ha":861,"x_min":121,"x_max":741,"o":"m 121 581 l 121 677 l 741 677 l 741 581 l 121 581 m 121 278 l 121 375 l 741 375 l 741 278 l 121 278 z "},">":{"ha":861,"x_min":119,"x_max":736,"o":"m 119 36 l 119 149 l 644 476 l 119 804 l 119 920 l 736 534 l 736 421 l 119 36 z "},"?":{"ha":779,"x_min":61,"x_max":686,"o":"m 686 749 q 675 662 686 698 q 641 597 663 625 q 587 546 618 569 q 514 497 555 522 q 458 456 479 475 q 426 412 437 437 q 412 352 415 387 q 408 261 408 316 l 301 261 q 306 372 301 323 q 328 455 311 420 q 378 518 345 490 q 465 579 412 547 q 513 612 492 596 q 549 647 534 628 q 570 688 563 665 q 578 741 578 711 q 524 848 578 807 q 382 889 469 889 q 245 860 305 889 q 131 782 184 831 l 61 859 q 123 909 89 886 q 199 950 158 932 q 286 977 239 967 q 386 987 333 987 q 507 972 452 987 q 602 927 562 958 q 664 852 642 897 q 686 749 686 808 m 437 69 q 430 37 437 52 q 412 10 423 22 q 385 -9 400 -2 q 353 -16 370 -16 q 320 -9 336 -16 q 293 10 305 -2 q 275 37 281 22 q 268 69 268 52 q 275 102 268 86 q 293 130 281 118 q 320 150 305 142 q 353 157 336 157 q 385 150 370 157 q 412 130 400 142 q 430 102 423 118 q 437 69 437 86 z "},"@":{"ha":1161,"x_min":79,"x_max":1082,"o":"m 1082 500 q 1067 366 1082 421 q 1025 277 1053 311 q 961 227 998 242 q 876 211 923 211 q 827 218 850 211 q 785 236 804 224 q 752 264 766 248 q 728 298 737 280 q 651 235 696 258 q 547 211 605 211 q 463 222 502 211 q 396 258 425 234 q 351 317 368 281 q 335 401 335 353 q 352 479 335 446 q 400 536 370 513 q 471 571 430 559 q 559 583 512 583 q 651 572 614 583 q 714 546 688 562 l 714 628 q 681 695 714 673 q 571 717 647 717 q 497 708 533 717 q 429 684 462 699 l 399 743 q 485 775 441 764 q 581 786 530 786 q 665 778 627 786 q 729 752 703 770 q 771 704 756 734 q 786 632 786 675 l 786 364 q 812 297 786 321 q 885 273 838 273 q 936 285 913 273 q 977 324 960 297 q 1003 394 994 351 q 1013 498 1013 437 q 980 671 1013 593 q 890 805 947 749 q 753 892 832 861 q 581 922 674 922 q 408 891 487 922 q 271 804 328 861 q 181 667 213 747 q 149 489 149 587 q 181 309 149 390 q 271 171 213 228 q 408 82 328 113 q 581 50 487 50 q 681 61 636 50 q 770 93 726 71 l 794 32 q 739 9 764 18 q 688 -5 713 0 q 636 -13 663 -11 q 581 -16 610 -16 q 443 1 508 -16 q 321 50 377 18 q 221 126 266 81 q 145 227 176 172 q 96 348 113 283 q 79 486 79 414 q 96 624 79 559 q 145 745 113 690 q 221 846 176 801 q 321 922 266 890 q 443 970 377 954 q 581 987 508 987 q 720 970 654 987 q 842 920 786 952 q 942 843 897 888 q 1018 743 987 798 q 1065 627 1048 689 q 1082 500 1082 566 m 714 476 q 648 504 688 492 q 553 517 608 517 q 496 509 522 517 q 451 486 470 500 q 422 450 433 471 q 412 406 412 430 q 446 313 412 345 q 554 281 480 281 q 602 287 578 281 q 647 304 626 293 q 685 331 667 315 q 714 364 702 346 l 714 476 z "},"A":{"ha":942,"x_min":74,"x_max":868,"o":"m 868 0 l 754 0 l 671 248 l 269 248 l 184 0 l 74 0 l 411 972 l 530 972 l 868 0 m 637 346 l 471 843 l 302 346 l 637 346 z "},"B":{"ha":869,"x_min":127,"x_max":793,"o":"m 793 288 q 711 72 793 144 q 476 0 629 0 l 127 0 l 127 972 l 484 972 q 590 958 541 972 q 673 913 638 943 q 728 837 708 883 q 747 729 747 791 q 737 657 747 689 q 708 601 726 625 q 663 559 689 576 q 607 530 637 541 q 691 495 656 517 q 748 442 726 472 q 781 373 770 412 q 793 288 793 334 m 639 725 q 629 786 639 758 q 600 832 619 813 q 550 863 580 852 q 479 873 520 873 l 236 873 l 236 571 l 471 571 q 548 583 516 571 q 600 616 580 595 q 630 665 621 637 q 639 725 639 693 m 685 282 q 670 363 685 328 q 629 423 656 399 q 564 460 602 448 q 478 473 526 473 l 236 473 l 236 98 l 484 98 q 577 112 538 98 q 639 149 615 125 q 674 206 663 172 q 685 282 685 240 z "},"C":{"ha":872,"x_min":86,"x_max":798,"o":"m 707 766 q 660 821 683 798 q 610 860 636 844 q 552 882 583 875 q 481 889 520 889 q 366 860 418 889 q 275 777 313 830 q 216 650 237 724 q 195 488 195 576 q 216 325 195 399 q 277 197 238 250 q 368 113 315 143 q 482 83 420 83 q 618 117 561 83 q 722 211 675 151 l 798 146 q 738 80 771 110 q 665 30 705 51 q 579 -4 625 8 q 479 -16 532 -16 q 368 2 420 -16 q 272 51 315 19 q 194 128 228 83 q 135 229 159 173 q 99 349 111 284 q 86 485 86 414 q 115 685 86 593 q 197 844 144 777 q 322 949 250 911 q 484 987 395 987 q 660 949 584 987 q 793 832 735 911 l 707 766 z "},"D":{"ha":914,"x_min":127,"x_max":828,"o":"m 828 493 q 820 372 828 427 q 789 257 811 317 q 722 144 766 196 q 622 60 678 92 q 501 14 565 28 q 366 0 437 0 l 127 0 l 127 972 l 385 972 q 562 944 480 972 q 702 858 643 916 q 795 709 762 800 q 828 493 828 618 m 720 489 q 697 654 720 582 q 632 774 675 726 q 525 848 589 823 q 376 873 460 873 l 236 873 l 236 98 l 379 98 q 521 120 458 98 q 628 189 584 142 q 696 310 672 236 q 720 489 720 384 z "},"E":{"ha":815,"x_min":127,"x_max":736,"o":"m 736 0 l 127 0 l 127 972 l 715 972 l 715 873 l 236 873 l 236 568 l 624 568 l 624 469 l 236 469 l 236 98 l 736 98 l 736 0 z "},"F":{"ha":761,"x_min":127,"x_max":699,"o":"m 236 873 l 236 551 l 503 551 l 503 453 l 236 453 l 236 0 l 127 0 l 127 972 l 699 972 l 699 873 l 236 873 z "},"G":{"ha":916,"x_min":86,"x_max":839,"o":"m 839 387 q 812 211 839 287 q 736 85 785 136 q 623 10 688 35 q 479 -16 557 -16 q 311 26 386 -16 q 187 136 235 68 q 113 289 139 203 q 86 485 87 375 q 115 685 86 593 q 197 844 144 777 q 322 949 250 911 q 484 987 395 987 q 660 949 584 987 q 793 832 735 911 l 707 766 q 660 821 683 798 q 610 860 636 844 q 552 882 583 875 q 481 889 520 889 q 366 860 418 889 q 275 777 313 830 q 216 650 237 724 q 195 488 195 576 q 217 325 195 399 q 277 197 239 250 q 369 113 316 143 q 482 83 421 83 q 669 157 604 83 q 733 374 733 230 l 733 382 l 558 382 l 558 482 l 839 482 l 839 387 z "},"H":{"ha":956,"x_min":127,"x_max":828,"o":"m 720 0 l 720 458 l 236 458 l 236 0 l 127 0 l 127 972 l 236 972 l 236 557 l 720 557 l 720 972 l 828 972 l 828 0 l 720 0 z "},"I":{"ha":378,"x_min":135,"x_max":243,"o":"m 135 0 l 135 972 l 243 972 l 243 0 l 135 0 z "},"J":{"ha":803,"x_min":41,"x_max":682,"o":"m 682 372 q 600 81 682 178 q 350 -16 517 -16 q 240 0 288 -16 q 154 45 191 15 q 88 119 116 75 q 41 220 60 163 l 144 254 q 177 183 159 214 q 220 129 195 151 q 278 95 245 107 q 354 83 311 83 q 454 100 412 83 q 522 153 496 117 q 561 244 549 189 q 574 376 574 300 l 574 972 l 682 972 l 682 372 z "},"K":{"ha":892,"x_min":127,"x_max":832,"o":"m 832 0 l 708 0 l 421 518 l 236 279 l 236 0 l 127 0 l 127 972 l 236 972 l 236 424 l 660 972 l 778 972 l 493 607 l 832 0 z "},"L":{"ha":799,"x_min":127,"x_max":717,"o":"m 127 0 l 127 972 l 236 972 l 236 98 l 717 98 l 717 0 l 127 0 z "},"M":{"ha":1095,"x_min":127,"x_max":966,"o":"m 966 0 l 863 0 l 863 742 l 545 -25 l 232 742 l 232 0 l 127 0 l 127 972 l 249 972 l 547 215 l 848 972 l 966 972 l 966 0 z "},"N":{"ha":956,"x_min":127,"x_max":828,"o":"m 828 0 l 726 0 l 232 774 l 232 0 l 127 0 l 127 972 l 233 972 l 724 183 l 724 972 l 828 972 l 828 0 z "},"O":{"ha":979,"x_min":86,"x_max":893,"o":"m 893 488 q 864 286 893 378 q 781 126 834 193 q 653 22 728 59 q 488 -16 578 -16 q 323 21 397 -16 q 196 125 249 58 q 115 283 144 191 q 86 485 86 375 q 115 687 86 595 q 198 846 144 779 q 325 950 251 913 q 490 987 399 987 q 655 950 581 987 q 782 847 729 913 q 864 689 835 781 q 893 488 893 597 m 785 485 q 762 651 785 576 q 699 779 739 726 q 605 860 659 831 q 486 889 550 889 q 370 861 423 889 q 277 780 316 832 q 217 653 239 728 q 195 488 195 579 q 217 321 195 396 q 280 194 240 247 q 374 112 319 141 q 492 83 428 83 q 608 112 555 83 q 701 192 662 140 q 763 319 741 245 q 785 485 785 393 z "},"P":{"ha":859,"x_min":127,"x_max":802,"o":"m 802 682 q 778 554 802 610 q 710 459 753 498 q 606 401 666 421 q 472 382 545 382 l 236 382 l 236 0 l 127 0 l 127 972 l 492 972 q 614 955 557 972 q 713 901 671 937 q 778 811 754 865 q 802 682 802 756 m 693 677 q 673 778 693 738 q 621 838 652 818 q 556 866 590 859 q 488 873 523 873 l 236 873 l 236 481 l 473 481 q 640 531 586 481 q 693 677 693 581 z "},"Q":{"ha":979,"x_min":86,"x_max":893,"o":"m 893 488 q 881 358 893 420 q 847 243 869 297 q 793 146 825 190 q 722 69 762 102 l 785 -32 l 696 -85 l 635 16 q 564 -7 601 1 q 488 -16 528 -16 q 323 21 397 -16 q 196 125 249 58 q 115 283 144 191 q 86 485 86 375 q 115 687 86 595 q 198 846 144 779 q 325 950 251 913 q 490 987 399 987 q 655 950 581 987 q 782 847 729 913 q 864 689 835 781 q 893 488 893 597 m 785 485 q 762 651 785 576 q 699 779 739 726 q 605 860 659 831 q 486 889 550 889 q 370 861 423 889 q 277 780 316 832 q 217 653 239 728 q 195 488 195 579 q 217 321 195 396 q 280 194 240 247 q 374 112 319 141 q 492 83 428 83 q 583 100 541 83 l 504 229 l 593 282 l 671 154 q 754 288 724 205 q 785 485 785 371 z "},"R":{"ha":903,"x_min":127,"x_max":815,"o":"m 675 0 l 467 414 l 236 414 l 236 0 l 127 0 l 127 972 l 513 972 q 632 956 576 972 q 728 905 687 939 q 792 820 768 871 q 815 697 815 768 q 799 594 815 640 q 753 514 783 549 q 681 456 723 479 q 586 422 638 433 l 800 0 l 675 0 m 707 693 q 692 775 707 740 q 649 834 678 811 q 584 865 620 857 q 509 873 547 873 l 236 873 l 236 511 l 494 511 q 579 520 541 511 q 648 551 618 529 q 692 609 677 572 q 707 693 707 646 z "},"S":{"ha":822,"x_min":77,"x_max":725,"o":"m 725 256 q 703 149 725 199 q 640 63 682 100 q 539 5 599 26 q 403 -16 479 -16 q 307 -5 353 -16 q 219 23 260 5 q 141 65 177 41 q 77 119 105 90 l 149 200 q 268 115 204 146 q 407 83 332 83 q 494 95 456 83 q 560 128 533 106 q 602 181 587 150 q 616 250 616 212 q 605 312 616 284 q 567 363 594 339 q 496 410 541 387 q 385 456 451 432 q 252 512 306 484 q 166 573 199 540 q 119 646 133 606 q 104 739 104 686 q 126 844 104 798 q 188 922 149 890 q 284 970 228 954 q 408 987 340 987 q 498 980 457 987 q 575 960 539 973 q 642 927 610 947 q 704 884 673 908 l 635 799 q 582 838 608 821 q 528 866 555 854 q 469 883 500 878 q 401 889 438 889 q 315 878 351 889 q 257 846 279 866 q 223 800 234 826 q 212 746 212 774 q 221 691 212 715 q 255 644 230 667 q 325 598 280 621 q 443 550 370 576 q 578 491 524 521 q 665 428 632 462 q 711 352 697 393 q 725 256 725 310 z "},"T":{"ha":817,"x_min":68,"x_max":749,"o":"m 463 873 l 463 0 l 354 0 l 354 873 l 68 873 l 68 972 l 749 972 l 749 873 l 463 873 z "},"U":{"ha":942,"x_min":121,"x_max":821,"o":"m 821 395 q 794 204 821 283 q 723 77 768 125 q 616 7 677 30 q 472 -16 554 -16 q 328 7 390 -16 q 219 77 265 30 q 147 204 173 125 q 121 395 121 283 l 121 972 l 229 972 l 229 397 q 290 161 229 239 q 478 83 351 83 q 657 159 602 83 q 713 395 713 235 l 713 972 l 821 972 l 821 395 z "},"V":{"ha":928,"x_min":74,"x_max":854,"o":"m 854 972 l 524 0 l 404 0 l 74 972 l 187 972 l 464 124 l 743 972 l 854 972 z "},"W":{"ha":1189,"x_min":79,"x_max":1110,"o":"m 1110 972 l 916 0 l 793 0 l 593 815 l 393 0 l 273 0 l 79 972 l 187 972 l 336 153 l 538 972 l 654 972 l 854 153 l 1004 972 l 1110 972 z "},"X":{"ha":878,"x_min":79,"x_max":799,"o":"m 799 0 l 676 0 l 439 405 l 199 0 l 79 0 l 382 505 l 104 972 l 227 972 l 440 608 l 654 972 l 774 972 l 496 509 l 799 0 z "},"Y":{"ha":905,"x_min":65,"x_max":840,"o":"m 840 972 l 507 386 l 507 0 l 399 0 l 399 385 l 65 972 l 189 972 l 454 496 l 720 972 l 840 972 z "},"Z":{"ha":872,"x_min":85,"x_max":779,"o":"m 779 0 l 85 0 l 85 94 l 660 878 l 113 878 l 113 972 l 779 972 l 779 878 l 204 94 l 779 94 l 779 0 z "},"[":{"ha":489,"x_min":132,"x_max":401,"o":"m 132 -153 l 132 972 l 401 972 l 401 888 l 233 888 l 233 -68 l 401 -68 l 401 -153 l 132 -153 z "},"\\":{"ha":590,"x_min":36,"x_max":554,"o":"m 452 -125 l 36 1097 l 139 1097 l 554 -125 l 452 -125 z "},"]":{"ha":489,"x_min":87,"x_max":357,"o":"m 87 -153 l 87 -68 l 256 -68 l 256 888 l 87 888 l 87 972 l 357 972 l 357 -153 l 87 -153 z "},"^":{"ha":775,"x_min":65,"x_max":710,"o":"m 590 530 l 386 859 l 182 530 l 65 530 l 349 972 l 427 972 l 710 530 l 590 530 z "},"_":{"ha":694,"x_min":0,"x_max":694,"o":"m 0 -212 l 0 -125 l 694 -125 l 694 -212 l 0 -212 z "},"`":{"ha":694,"x_min":161,"x_max":453,"o":"m 371 827 l 161 1048 l 310 1048 l 453 827 l 371 827 z "},"a":{"ha":749,"x_min":72,"x_max":637,"o":"m 533 0 l 533 89 q 491 49 514 68 q 439 16 467 30 q 378 -7 411 1 q 306 -16 345 -16 q 221 -4 263 -16 q 146 35 179 7 q 93 107 113 62 q 72 218 72 152 q 95 323 72 279 q 157 396 119 368 q 247 438 196 425 q 351 452 297 452 q 454 439 407 452 q 533 410 500 427 l 533 496 q 494 617 533 578 q 375 657 456 657 q 269 642 317 657 q 176 602 221 627 l 138 686 q 248 728 186 712 q 382 745 311 745 q 488 731 441 745 q 569 690 536 718 q 620 616 602 661 q 637 509 637 572 l 637 0 l 533 0 m 533 326 q 496 344 515 336 q 455 357 477 352 q 406 366 433 363 q 346 368 379 368 q 220 331 265 368 q 175 225 175 294 q 186 155 175 184 q 216 106 197 125 q 263 78 235 87 q 323 69 290 69 q 390 78 359 69 q 447 101 420 86 q 495 136 473 116 q 533 179 517 156 l 533 326 z "},"b":{"ha":777,"x_min":115,"x_max":700,"o":"m 700 376 q 679 206 700 279 q 620 83 657 133 q 532 9 583 34 q 425 -16 482 -16 q 307 11 357 -16 q 220 82 258 38 l 220 0 l 115 0 l 115 954 l 220 1013 l 220 640 q 261 680 239 661 q 311 713 284 699 q 370 736 338 728 q 439 745 402 745 q 541 723 494 745 q 624 657 589 702 q 680 542 659 612 q 700 376 700 473 m 597 375 q 549 583 597 511 q 412 654 500 654 q 361 648 388 654 q 307 625 334 642 q 260 591 279 609 q 220 549 240 574 l 220 184 q 255 141 235 161 q 301 107 276 121 q 355 84 326 92 q 416 75 384 75 q 553 151 508 75 q 597 375 597 227 z "},"c":{"ha":688,"x_min":77,"x_max":621,"o":"m 618 86 q 570 44 595 62 q 516 12 545 25 q 455 -8 488 -1 q 383 -16 422 -16 q 268 7 323 -16 q 170 77 213 31 q 102 195 127 124 q 77 361 77 266 q 104 534 77 462 q 176 654 132 607 q 277 723 220 701 q 390 745 333 745 q 521 720 465 745 q 621 659 578 696 l 558 581 q 519 612 538 598 q 478 635 499 626 q 434 650 458 645 q 383 654 411 654 q 303 635 340 654 q 240 580 267 616 q 197 491 213 544 q 182 370 182 437 q 196 248 182 302 q 236 155 210 194 q 301 96 262 117 q 387 75 339 75 q 436 81 414 75 q 479 96 459 86 q 518 120 499 106 q 555 153 536 134 l 618 86 z "},"d":{"ha":777,"x_min":77,"x_max":661,"o":"m 557 0 l 557 89 q 514 49 537 68 q 465 16 492 30 q 406 -7 438 1 q 338 -16 374 -16 q 235 6 283 -16 q 153 72 188 27 q 97 187 117 117 q 77 353 77 256 q 98 523 77 450 q 157 646 119 596 q 244 720 194 695 q 351 745 294 745 q 415 738 386 745 q 469 718 444 730 q 516 687 494 705 q 557 647 537 669 l 557 954 l 661 1013 l 661 0 l 557 0 m 557 545 q 521 588 542 568 q 475 623 500 608 q 421 646 450 637 q 359 654 392 654 q 224 578 269 654 q 179 354 179 502 q 193 229 179 283 q 232 141 206 176 q 291 91 258 106 q 364 75 324 75 q 421 83 396 75 q 470 104 446 90 q 515 136 494 117 q 557 180 536 155 l 557 545 z "},"e":{"ha":750,"x_min":77,"x_max":671,"o":"m 671 386 q 670 354 671 367 q 667 329 669 342 l 180 329 q 200 224 184 271 q 241 144 215 177 q 302 93 267 111 q 383 75 338 75 q 441 80 415 75 q 491 93 467 84 q 537 115 514 102 q 585 144 559 127 l 633 69 q 571 32 601 48 q 511 6 542 16 q 447 -10 481 -5 q 372 -16 414 -16 q 304 -7 339 -16 q 236 20 269 1 q 174 69 203 39 q 123 142 145 99 q 89 241 102 184 q 77 368 77 297 q 99 525 77 455 q 162 644 122 595 q 257 719 202 692 q 378 745 313 745 q 504 718 449 745 q 596 644 559 691 q 652 530 633 596 q 671 386 671 464 m 574 414 q 557 511 570 467 q 520 587 544 555 q 460 637 496 619 q 376 654 424 654 q 302 640 336 654 q 242 595 268 625 q 201 520 217 565 q 180 414 185 475 l 574 414 z "},"f":{"ha":494,"x_min":65,"x_max":429,"o":"m 429 897 q 391 910 412 905 q 345 914 370 914 q 314 911 328 914 q 291 899 300 907 q 275 875 281 890 q 269 838 269 861 l 269 729 l 412 729 l 412 642 l 269 642 l 269 0 l 165 0 l 165 642 l 65 642 l 65 729 l 165 729 l 165 829 q 178 912 165 878 q 213 967 191 946 q 268 999 236 989 q 338 1008 300 1008 q 390 1005 369 1008 q 429 996 410 1002 l 429 897 z "},"g":{"ha":777,"x_min":77,"x_max":661,"o":"m 661 65 q 642 -76 661 -13 q 576 -180 622 -138 q 459 -242 534 -220 q 269 -268 384 -264 l 243 -183 q 408 -170 347 -183 q 497 -132 469 -156 q 542 -60 528 -106 q 557 52 557 -14 l 557 89 q 514 49 537 68 q 465 16 492 30 q 406 -7 438 1 q 338 -16 374 -16 q 235 6 283 -16 q 153 72 188 27 q 97 187 117 117 q 77 353 77 256 q 98 523 77 450 q 157 646 119 596 q 244 720 194 695 q 351 745 294 745 q 415 738 386 745 q 469 718 444 730 q 516 687 494 705 q 557 647 537 669 l 557 729 l 661 729 l 661 65 m 364 75 q 470 104 422 75 q 557 180 518 132 l 557 545 q 521 588 542 568 q 475 623 500 608 q 421 646 450 637 q 359 654 392 654 q 224 578 269 654 q 179 354 179 502 q 228 146 179 216 q 364 75 277 75 z "},"h":{"ha":787,"x_min":115,"x_max":676,"o":"m 572 0 l 572 427 q 530 600 572 545 q 400 654 488 654 q 329 641 362 654 q 272 600 296 628 q 234 529 248 572 q 220 427 220 486 l 220 0 l 115 0 l 115 954 l 220 1013 l 220 640 q 256 682 235 663 q 301 715 276 701 q 357 737 327 729 q 421 745 387 745 q 526 727 479 745 q 606 673 573 710 q 658 580 640 637 q 676 444 676 523 l 676 0 l 572 0 z "},"i":{"ha":349,"x_min":100,"x_max":249,"o":"m 249 933 q 243 905 249 918 q 227 882 237 892 q 204 866 217 871 q 176 860 191 860 q 146 866 160 860 q 122 882 132 871 q 106 905 112 892 q 100 933 100 918 q 106 963 100 949 q 122 987 112 977 q 146 1003 132 997 q 176 1008 160 1008 q 204 1003 191 1008 q 227 987 217 997 q 243 963 237 977 q 249 933 249 949 m 122 0 l 122 729 l 227 729 l 227 0 l 122 0 z "},"j":{"ha":349,"x_min":-24,"x_max":249,"o":"m 249 933 q 243 905 249 918 q 227 882 237 892 q 204 866 217 871 q 176 860 191 860 q 146 866 160 860 q 122 882 132 871 q 106 905 112 892 q 100 933 100 918 q 106 963 100 949 q 122 987 112 977 q 146 1003 132 997 q 176 1008 160 1008 q 204 1003 191 1008 q 227 987 217 997 q 243 963 237 977 q 249 933 249 949 m 227 17 q 219 -92 227 -45 q 188 -171 211 -138 q 122 -228 164 -205 q 11 -268 80 -251 l -24 -191 q 55 -160 26 -176 q 99 -121 84 -144 q 118 -65 114 -98 q 122 18 122 -32 l 122 729 l 227 729 l 227 17 z "},"k":{"ha":701,"x_min":115,"x_max":643,"o":"m 530 0 l 346 383 l 220 210 l 220 0 l 115 0 l 115 954 l 220 1013 l 220 348 l 488 729 l 604 729 l 412 471 l 643 0 l 530 0 z "},"l":{"ha":349,"x_min":122,"x_max":227,"o":"m 122 0 l 122 954 l 227 1013 l 227 0 l 122 0 z "},"m":{"ha":1178,"x_min":115,"x_max":1067,"o":"m 962 0 l 962 427 q 952 532 962 489 q 923 603 943 576 q 874 642 904 630 q 806 654 845 654 q 739 642 768 654 q 687 601 709 629 q 654 530 666 573 q 643 427 643 487 l 643 0 l 539 0 l 539 427 q 529 532 539 489 q 499 603 519 576 q 449 642 479 630 q 382 654 420 654 q 314 642 345 654 q 263 601 284 629 q 231 530 242 573 q 220 427 220 487 l 220 0 l 115 0 l 115 729 l 220 729 l 220 640 q 294 716 248 687 q 404 745 339 745 q 522 714 471 745 q 604 619 572 683 q 640 668 621 646 q 686 708 660 691 q 747 735 713 725 q 825 745 781 745 q 926 728 881 745 q 1002 674 970 711 q 1050 581 1033 638 q 1067 444 1067 524 l 1067 0 l 962 0 z "},"n":{"ha":790,"x_min":115,"x_max":676,"o":"m 572 0 l 572 427 q 530 600 572 545 q 400 654 488 654 q 329 641 362 654 q 272 600 296 628 q 234 529 248 572 q 220 427 220 486 l 220 0 l 115 0 l 115 729 l 220 729 l 220 640 q 256 682 235 663 q 301 715 276 701 q 357 737 327 729 q 421 745 387 745 q 526 727 479 745 q 606 673 573 710 q 658 580 640 637 q 676 444 676 523 l 676 0 l 572 0 z "},"o":{"ha":786,"x_min":77,"x_max":710,"o":"m 710 370 q 685 205 710 277 q 617 84 660 133 q 515 10 574 35 q 390 -16 457 -16 q 266 9 323 -16 q 167 81 209 33 q 101 200 125 130 q 77 364 77 271 q 101 528 77 456 q 170 647 126 599 q 271 720 213 695 q 396 745 330 745 q 520 721 463 745 q 620 650 577 697 q 686 532 662 602 q 710 370 710 462 m 606 367 q 590 493 606 439 q 547 583 574 547 q 480 636 519 618 q 393 654 441 654 q 307 636 346 654 q 240 583 268 618 q 197 493 212 547 q 182 367 182 439 q 197 240 182 295 q 240 149 212 186 q 307 94 268 113 q 393 75 346 75 q 480 94 441 75 q 547 149 519 113 q 590 240 574 186 q 606 367 606 295 z "},"p":{"ha":777,"x_min":115,"x_max":700,"o":"m 700 376 q 679 206 700 279 q 620 83 657 133 q 532 9 583 34 q 425 -16 482 -16 q 307 11 357 -16 q 220 82 258 38 l 220 -210 l 115 -268 l 115 729 l 220 729 l 220 640 q 319 717 264 690 q 439 745 375 745 q 541 723 494 745 q 624 657 589 702 q 680 542 659 612 q 700 376 700 473 m 597 375 q 549 582 597 509 q 412 654 500 654 q 307 626 356 654 q 220 549 258 597 l 220 184 q 255 141 235 161 q 301 107 276 121 q 355 84 326 92 q 416 75 384 75 q 553 151 508 75 q 597 375 597 227 z "},"q":{"ha":777,"x_min":77,"x_max":661,"o":"m 557 -268 l 557 89 q 457 12 511 39 q 338 -16 404 -16 q 235 6 283 -16 q 153 72 188 27 q 97 187 117 117 q 77 353 77 256 q 98 523 77 450 q 157 646 119 596 q 244 720 194 695 q 351 745 294 745 q 415 738 386 745 q 469 718 444 730 q 516 687 494 705 q 557 647 537 669 l 557 729 l 661 729 l 661 -210 l 557 -268 m 557 545 q 521 588 542 568 q 475 623 500 608 q 421 646 450 637 q 359 654 392 654 q 224 578 269 654 q 179 354 179 502 q 228 146 179 216 q 364 75 277 75 q 470 104 422 75 q 557 180 518 132 l 557 545 z "},"r":{"ha":566,"x_min":115,"x_max":514,"o":"m 488 621 q 440 641 466 633 q 378 648 414 648 q 261 590 302 648 q 220 428 220 532 l 220 0 l 115 0 l 115 729 l 220 729 l 220 639 q 251 680 232 661 q 293 713 270 699 q 344 736 317 728 q 400 745 371 745 q 468 740 441 745 q 514 726 495 734 l 488 621 z "},"s":{"ha":648,"x_min":60,"x_max":567,"o":"m 549 667 l 490 590 q 404 641 444 627 q 309 656 364 656 q 219 630 251 656 q 187 566 187 605 q 195 525 187 543 q 221 492 203 508 q 271 461 240 477 q 349 424 302 445 q 441 379 400 400 q 509 332 481 358 q 552 273 537 307 q 567 191 567 239 q 546 98 567 137 q 489 34 524 59 q 409 -3 454 9 q 317 -16 364 -16 q 176 10 241 -16 q 60 78 112 36 l 121 154 q 215 95 165 115 q 319 74 265 74 q 431 103 395 74 q 467 186 467 133 q 458 227 467 208 q 429 262 449 245 q 376 297 409 279 q 294 335 343 314 q 200 380 239 358 q 136 426 161 401 q 99 483 111 451 q 87 558 87 514 q 104 634 87 600 q 152 693 121 669 q 224 731 182 718 q 315 745 266 745 q 449 723 391 745 q 549 667 507 701 z "},"t":{"ha":517,"x_min":54,"x_max":429,"o":"m 418 9 q 356 -9 387 -3 q 283 -16 326 -16 q 224 -7 250 -16 q 180 22 198 2 q 154 73 163 41 q 144 150 144 104 l 144 642 l 54 642 l 54 729 l 144 729 l 144 954 l 249 1013 l 249 729 l 429 729 l 429 642 l 249 642 l 249 167 q 253 126 249 142 q 265 99 256 109 q 287 84 273 88 q 322 79 301 79 q 377 84 354 79 q 425 100 400 90 l 418 9 z "},"u":{"ha":787,"x_min":111,"x_max":672,"o":"m 568 0 l 568 89 q 486 13 536 42 q 367 -16 435 -16 q 177 61 243 -16 q 111 285 111 137 l 111 729 l 215 729 l 215 302 q 257 130 215 184 q 387 75 299 75 q 519 134 471 75 q 568 302 568 192 l 568 729 l 672 729 l 672 0 l 568 0 z "},"v":{"ha":725,"x_min":56,"x_max":669,"o":"m 408 0 l 317 0 l 56 729 l 167 729 l 364 121 l 561 729 l 669 729 l 408 0 z "},"w":{"ha":1014,"x_min":65,"x_max":949,"o":"m 755 0 l 660 0 l 505 574 l 351 0 l 258 0 l 65 729 l 172 729 l 307 159 l 461 729 l 555 729 l 710 159 l 844 729 l 949 729 l 755 0 z "},"x":{"ha":700,"x_min":71,"x_max":629,"o":"m 514 0 l 347 292 l 179 0 l 71 0 l 296 376 l 86 729 l 201 729 l 353 463 l 505 729 l 614 729 l 404 379 l 629 0 l 514 0 z "},"y":{"ha":737,"x_min":56,"x_max":682,"o":"m 319 -257 l 215 -257 l 315 8 l 56 729 l 165 729 l 368 125 l 572 729 l 682 729 l 319 -257 z "},"z":{"ha":684,"x_min":75,"x_max":591,"o":"m 75 0 l 75 77 l 473 642 l 107 642 l 107 729 l 591 729 l 591 653 l 193 87 l 591 87 l 591 0 l 75 0 z "},"{":{"ha":551,"x_min":79,"x_max":478,"o":"m 478 -153 q 263 -76 331 -149 q 195 143 195 -4 l 195 262 q 191 312 195 293 q 177 343 186 332 q 152 358 168 354 q 113 363 136 363 l 79 363 l 79 460 l 113 460 q 152 464 136 460 q 177 480 168 469 q 191 510 186 491 q 195 559 195 530 l 195 684 q 263 903 195 830 q 478 979 331 975 l 478 892 q 395 873 429 886 q 339 837 361 860 q 307 778 317 813 q 297 696 297 743 l 297 599 q 293 525 297 555 q 279 472 289 494 q 254 435 270 450 q 215 410 239 420 q 254 384 239 399 q 279 348 270 370 q 293 295 289 326 q 297 221 297 264 l 297 131 q 307 48 297 83 q 339 -10 317 14 q 395 -47 361 -33 q 478 -65 429 -60 l 478 -153 z "},"|":{"ha":422,"x_min":161,"x_max":261,"o":"m 161 -257 l 161 1111 l 261 1111 l 261 -257 l 161 -257 z "},"}":{"ha":551,"x_min":74,"x_max":472,"o":"m 439 367 q 399 362 415 367 q 374 347 384 358 q 361 316 365 336 q 357 267 357 297 l 357 143 q 289 -76 357 -4 q 74 -153 220 -149 l 74 -65 q 156 -47 122 -60 q 212 -10 191 -33 q 244 48 234 14 q 254 131 254 83 l 254 228 q 258 302 254 271 q 272 354 262 332 q 297 391 281 376 q 336 416 313 406 q 297 442 313 427 q 272 479 281 457 q 258 531 262 500 q 254 606 254 562 l 254 696 q 244 778 254 743 q 212 837 234 813 q 156 873 191 860 q 74 892 122 886 l 74 979 q 289 903 220 975 q 357 684 357 830 l 357 564 q 361 514 357 534 q 374 484 365 495 q 399 468 384 473 q 439 464 415 464 l 472 464 l 472 367 l 439 367 z "},"~":{"ha":766,"x_min":60,"x_max":707,"o":"m 707 586 q 670 509 689 542 q 627 455 650 477 q 574 422 604 433 q 509 411 545 411 q 470 414 488 411 q 438 424 453 418 q 408 439 422 431 q 378 458 393 448 q 307 500 335 487 q 258 513 279 513 q 225 507 239 513 q 199 487 211 500 q 175 453 186 474 q 151 403 164 433 l 60 444 q 97 520 77 488 q 140 575 117 553 q 193 608 163 597 q 258 619 222 619 q 295 616 278 619 q 327 607 311 613 q 357 592 342 601 q 389 572 372 583 q 447 537 414 556 q 509 518 479 519 q 541 524 527 518 q 567 542 555 529 q 590 576 578 555 q 615 628 601 597 l 707 586 z "},"Ä":{"ha":942,"x_min":74,"x_max":868,"o":"m 868 0 l 754 0 l 671 248 l 269 248 l 184 0 l 74 0 l 411 972 l 530 972 l 868 0 m 637 346 l 471 843 l 302 346 l 637 346 m 683 1122 q 677 1093 683 1107 q 661 1068 671 1079 q 636 1052 650 1058 q 607 1046 623 1046 q 577 1052 591 1046 q 553 1068 564 1058 q 536 1093 543 1079 q 530 1122 530 1107 q 536 1152 530 1138 q 553 1177 543 1166 q 577 1194 564 1187 q 607 1200 591 1200 q 636 1194 623 1200 q 661 1177 650 1187 q 677 1152 671 1166 q 683 1122 683 1138 m 414 1122 q 408 1093 414 1107 q 391 1068 401 1079 q 367 1052 381 1058 q 338 1046 353 1046 q 308 1052 322 1046 q 284 1068 294 1058 q 267 1093 273 1079 q 261 1122 261 1107 q 267 1152 261 1138 q 284 1177 273 1166 q 308 1194 294 1187 q 338 1200 322 1200 q 367 1194 353 1200 q 391 1177 381 1187 q 408 1152 401 1166 q 414 1122 414 1138 z "},"Å":{"ha":942,"x_min":74,"x_max":868,"o":"m 754 0 l 671 248 l 269 248 l 184 0 l 74 0 l 393 914 q 330 973 353 935 q 307 1060 307 1011 q 319 1123 307 1094 q 353 1174 332 1152 q 404 1208 374 1196 q 469 1221 434 1221 q 534 1208 505 1221 q 586 1174 564 1196 q 620 1123 608 1152 q 632 1060 632 1094 q 609 975 632 1013 q 547 916 586 937 l 868 0 l 754 0 m 567 1060 q 560 1100 567 1082 q 541 1132 553 1119 q 510 1153 528 1145 q 469 1160 492 1160 q 429 1153 447 1160 q 398 1132 411 1145 q 379 1100 386 1119 q 372 1060 372 1082 q 379 1020 372 1038 q 398 988 386 1001 q 429 967 411 975 q 469 960 447 960 q 510 967 492 960 q 541 988 528 975 q 560 1020 553 1001 q 567 1060 567 1038 m 637 346 l 471 843 l 302 346 l 637 346 z "},"Ç":{"ha":872,"x_min":86,"x_max":798,"o":"m 707 766 q 660 821 683 798 q 610 860 636 844 q 552 882 583 875 q 481 889 520 889 q 366 860 418 889 q 275 777 313 830 q 216 650 237 724 q 195 488 195 576 q 216 325 195 399 q 277 197 238 250 q 368 113 315 143 q 482 83 420 83 q 618 117 561 83 q 722 211 675 151 l 798 146 q 738 80 771 110 q 665 30 705 51 q 579 -4 625 8 q 479 -16 532 -16 q 368 2 420 -16 q 272 51 315 19 q 194 128 228 83 q 135 229 159 173 q 99 349 111 284 q 86 485 86 414 q 115 685 86 593 q 197 844 144 777 q 322 949 250 911 q 484 987 395 987 q 660 949 584 987 q 793 832 735 911 l 707 766 m 435 0 l 498 0 l 474 -71 q 507 -56 489 -61 q 551 -52 526 -52 q 581 -57 565 -52 q 611 -73 597 -62 q 634 -102 625 -84 q 644 -147 644 -121 q 630 -204 644 -181 q 594 -241 617 -227 q 542 -262 572 -256 q 479 -268 512 -268 q 394 -255 436 -268 q 315 -218 351 -242 l 341 -174 q 469 -211 399 -211 q 539 -195 517 -211 q 562 -151 562 -180 q 550 -118 562 -130 q 517 -106 539 -106 q 451 -131 477 -106 l 401 -111 l 435 0 z "},"É":{"ha":815,"x_min":127,"x_max":736,"o":"m 736 0 l 127 0 l 127 972 l 715 972 l 715 873 l 236 873 l 236 568 l 624 568 l 624 469 l 236 469 l 236 98 l 736 98 l 736 0 m 436 1035 l 354 1035 l 497 1257 l 646 1257 l 436 1035 z "},"Ñ":{"ha":956,"x_min":127,"x_max":828,"o":"m 828 0 l 726 0 l 232 774 l 232 0 l 127 0 l 127 972 l 233 972 l 724 183 l 724 972 l 828 972 l 828 0 m 732 1225 q 721 1145 732 1179 q 690 1088 709 1111 q 644 1055 670 1066 q 591 1044 618 1044 q 538 1053 563 1044 q 488 1080 513 1061 q 450 1109 463 1099 q 431 1122 437 1118 q 404 1137 416 1133 q 378 1141 392 1141 q 342 1120 355 1141 q 323 1048 330 1098 l 237 1048 q 249 1128 237 1095 q 280 1185 260 1162 q 326 1218 300 1207 q 379 1229 351 1229 q 432 1221 407 1229 q 482 1193 456 1213 q 520 1164 507 1174 q 539 1151 532 1155 q 566 1136 554 1141 q 592 1132 578 1132 q 627 1154 614 1132 q 646 1225 640 1176 l 732 1225 z "},"Ö":{"ha":979,"x_min":86,"x_max":893,"o":"m 893 488 q 864 286 893 378 q 781 126 834 193 q 653 22 728 59 q 488 -16 578 -16 q 323 21 397 -16 q 196 125 249 58 q 115 283 144 191 q 86 485 86 375 q 115 687 86 595 q 198 846 144 779 q 325 950 251 913 q 490 987 399 987 q 655 950 581 987 q 782 847 729 913 q 864 689 835 781 q 893 488 893 597 m 785 485 q 762 651 785 576 q 699 779 739 726 q 605 860 659 831 q 486 889 550 889 q 370 861 423 889 q 277 780 316 832 q 217 653 239 728 q 195 488 195 579 q 217 321 195 396 q 280 194 240 247 q 374 112 319 141 q 492 83 428 83 q 608 112 555 83 q 701 192 662 140 q 763 319 741 245 q 785 485 785 393 m 700 1122 q 694 1093 700 1107 q 677 1068 688 1079 q 653 1052 667 1058 q 624 1046 640 1046 q 594 1052 608 1046 q 570 1068 581 1058 q 553 1093 559 1079 q 547 1122 547 1107 q 553 1152 547 1138 q 570 1177 559 1166 q 594 1194 581 1187 q 624 1200 608 1200 q 653 1194 640 1200 q 677 1177 667 1187 q 694 1152 688 1166 q 700 1122 700 1138 m 431 1122 q 425 1093 431 1107 q 408 1068 418 1079 q 384 1052 398 1058 q 355 1046 370 1046 q 325 1052 339 1046 q 301 1068 311 1058 q 284 1093 290 1079 q 278 1122 278 1107 q 284 1152 278 1138 q 301 1177 290 1166 q 325 1194 311 1187 q 355 1200 339 1200 q 384 1194 370 1200 q 408 1177 398 1187 q 425 1152 418 1166 q 431 1122 431 1138 z "},"Ü":{"ha":942,"x_min":121,"x_max":821,"o":"m 821 395 q 794 204 821 283 q 723 77 768 125 q 616 7 677 30 q 472 -16 554 -16 q 328 7 390 -16 q 219 77 265 30 q 147 204 173 125 q 121 395 121 283 l 121 972 l 229 972 l 229 397 q 290 161 229 239 q 478 83 351 83 q 657 159 602 83 q 713 395 713 235 l 713 972 l 821 972 l 821 395 m 682 1122 q 675 1093 682 1107 q 659 1068 669 1079 q 635 1052 649 1058 q 606 1046 621 1046 q 576 1052 590 1046 q 552 1068 562 1058 q 535 1093 541 1079 q 529 1122 529 1107 q 535 1152 529 1138 q 552 1177 541 1166 q 576 1194 562 1187 q 606 1200 590 1200 q 635 1194 621 1200 q 659 1177 649 1187 q 675 1152 669 1166 q 682 1122 682 1138 m 412 1122 q 406 1093 412 1107 q 390 1068 400 1079 q 366 1052 380 1058 q 337 1046 352 1046 q 307 1052 321 1046 q 282 1068 293 1058 q 266 1093 272 1079 q 260 1122 260 1107 q 266 1152 260 1138 q 282 1177 272 1166 q 307 1194 293 1187 q 337 1200 321 1200 q 366 1194 352 1200 q 390 1177 380 1187 q 406 1152 400 1166 q 412 1122 412 1138 z "},"á":{"ha":749,"x_min":72,"x_max":637,"o":"m 533 0 l 533 89 q 491 49 514 68 q 439 16 467 30 q 378 -7 411 1 q 306 -16 345 -16 q 221 -4 263 -16 q 146 35 179 7 q 93 107 113 62 q 72 218 72 152 q 95 323 72 279 q 157 396 119 368 q 247 438 196 425 q 351 452 297 452 q 454 439 407 452 q 533 410 500 427 l 533 496 q 494 617 533 578 q 375 657 456 657 q 269 642 317 657 q 176 602 221 627 l 138 686 q 248 728 186 712 q 382 745 311 745 q 488 731 441 745 q 569 690 536 718 q 620 616 602 661 q 637 509 637 572 l 637 0 l 533 0 m 533 326 q 496 344 515 336 q 455 357 477 352 q 406 366 433 363 q 346 368 379 368 q 220 331 265 368 q 175 225 175 294 q 186 155 175 184 q 216 106 197 125 q 263 78 235 87 q 323 69 290 69 q 390 78 359 69 q 447 101 420 86 q 495 136 473 116 q 533 179 517 156 l 533 326 m 397 827 l 315 827 l 458 1048 l 607 1048 l 397 827 z "},"à":{"ha":749,"x_min":72,"x_max":637,"o":"m 533 0 l 533 89 q 491 49 514 68 q 439 16 467 30 q 378 -7 411 1 q 306 -16 345 -16 q 221 -4 263 -16 q 146 35 179 7 q 93 107 113 62 q 72 218 72 152 q 95 323 72 279 q 157 396 119 368 q 247 438 196 425 q 351 452 297 452 q 454 439 407 452 q 533 410 500 427 l 533 496 q 494 617 533 578 q 375 657 456 657 q 269 642 317 657 q 176 602 221 627 l 138 686 q 248 728 186 712 q 382 745 311 745 q 488 731 441 745 q 569 690 536 718 q 620 616 602 661 q 637 509 637 572 l 637 0 l 533 0 m 533 326 q 496 344 515 336 q 455 357 477 352 q 406 366 433 363 q 346 368 379 368 q 220 331 265 368 q 175 225 175 294 q 186 155 175 184 q 216 106 197 125 q 263 78 235 87 q 323 69 290 69 q 390 78 359 69 q 447 101 420 86 q 495 136 473 116 q 533 179 517 156 l 533 326 m 363 827 l 153 1048 l 302 1048 l 445 827 l 363 827 z "},"â":{"ha":749,"x_min":72,"x_max":637,"o":"m 533 0 l 533 89 q 491 49 514 68 q 439 16 467 30 q 378 -7 411 1 q 306 -16 345 -16 q 221 -4 263 -16 q 146 35 179 7 q 93 107 113 62 q 72 218 72 152 q 95 323 72 279 q 157 396 119 368 q 247 438 196 425 q 351 452 297 452 q 454 439 407 452 q 533 410 500 427 l 533 496 q 494 617 533 578 q 375 657 456 657 q 269 642 317 657 q 176 602 221 627 l 138 686 q 248 728 186 712 q 382 745 311 745 q 488 731 441 745 q 569 690 536 718 q 620 616 602 661 q 637 509 637 572 l 637 0 l 533 0 m 533 326 q 496 344 515 336 q 455 357 477 352 q 406 366 433 363 q 346 368 379 368 q 220 331 265 368 q 175 225 175 294 q 186 155 175 184 q 216 106 197 125 q 263 78 235 87 q 323 69 290 69 q 390 78 359 69 q 447 101 420 86 q 495 136 473 116 q 533 179 517 156 l 533 326 m 515 821 l 375 964 l 235 821 l 147 821 l 318 1043 l 435 1043 l 606 821 l 515 821 z "},"ä":{"ha":749,"x_min":72,"x_max":637,"o":"m 533 0 l 533 89 q 491 49 514 68 q 439 16 467 30 q 378 -7 411 1 q 306 -16 345 -16 q 221 -4 263 -16 q 146 35 179 7 q 93 107 113 62 q 72 218 72 152 q 95 323 72 279 q 157 396 119 368 q 247 438 196 425 q 351 452 297 452 q 454 439 407 452 q 533 410 500 427 l 533 496 q 494 617 533 578 q 375 657 456 657 q 269 642 317 657 q 176 602 221 627 l 138 686 q 248 728 186 712 q 382 745 311 745 q 488 731 441 745 q 569 690 536 718 q 620 616 602 661 q 637 509 637 572 l 637 0 l 533 0 m 533 326 q 496 344 515 336 q 455 357 477 352 q 406 366 433 363 q 346 368 379 368 q 220 331 265 368 q 175 225 175 294 q 186 155 175 184 q 216 106 197 125 q 263 78 235 87 q 323 69 290 69 q 390 78 359 69 q 447 101 420 86 q 495 136 473 116 q 533 179 517 156 l 533 326 m 586 909 q 580 879 586 893 q 564 855 574 865 q 539 838 553 844 q 510 832 526 832 q 480 838 494 832 q 456 855 467 844 q 439 879 446 865 q 433 909 433 893 q 439 938 433 924 q 456 963 446 952 q 480 980 467 974 q 510 986 494 986 q 539 980 526 986 q 564 963 553 974 q 580 938 574 952 q 586 909 586 924 m 317 909 q 311 879 317 893 q 294 855 304 865 q 270 838 284 844 q 241 832 256 832 q 211 838 225 832 q 187 855 197 844 q 170 879 176 865 q 164 909 164 893 q 170 938 164 924 q 187 963 176 952 q 211 980 197 974 q 241 986 225 986 q 270 980 256 986 q 294 963 284 974 q 311 938 304 952 q 317 909 317 924 z "},"ã":{"ha":749,"x_min":72,"x_max":637,"o":"m 533 0 l 533 89 q 491 49 514 68 q 439 16 467 30 q 378 -7 411 1 q 306 -16 345 -16 q 221 -4 263 -16 q 146 35 179 7 q 93 107 113 62 q 72 218 72 152 q 95 323 72 279 q 157 396 119 368 q 247 438 196 425 q 351 452 297 452 q 454 439 407 452 q 533 410 500 427 l 533 496 q 494 617 533 578 q 375 657 456 657 q 269 642 317 657 q 176 602 221 627 l 138 686 q 248 728 186 712 q 382 745 311 745 q 488 731 441 745 q 569 690 536 718 q 620 616 602 661 q 637 509 637 572 l 637 0 l 533 0 m 533 326 q 496 344 515 336 q 455 357 477 352 q 406 366 433 363 q 346 368 379 368 q 220 331 265 368 q 175 225 175 294 q 186 155 175 184 q 216 106 197 125 q 263 78 235 87 q 323 69 290 69 q 390 78 359 69 q 447 101 420 86 q 495 136 473 116 q 533 179 517 156 l 533 326 m 623 1011 q 611 931 623 965 q 580 875 600 897 q 534 842 560 852 q 481 831 509 831 q 428 839 453 831 q 378 866 404 847 q 340 895 353 886 q 321 909 328 905 q 294 923 306 919 q 268 928 282 928 q 233 906 245 928 q 214 835 220 884 l 127 835 q 139 915 127 881 q 170 971 151 949 q 216 1004 190 994 q 269 1015 241 1015 q 322 1007 297 1015 q 372 980 347 999 q 410 951 397 960 q 429 937 422 941 q 456 923 444 927 q 482 918 468 918 q 517 940 504 918 q 536 1011 530 962 l 623 1011 z "},"å":{"ha":749,"x_min":72,"x_max":637,"o":"m 533 0 l 533 89 q 491 49 514 68 q 439 16 467 30 q 378 -7 411 1 q 306 -16 345 -16 q 221 -4 263 -16 q 146 35 179 7 q 93 107 113 62 q 72 218 72 152 q 95 323 72 279 q 157 396 119 368 q 247 438 196 425 q 351 452 297 452 q 454 439 407 452 q 533 410 500 427 l 533 496 q 494 617 533 578 q 375 657 456 657 q 269 642 317 657 q 176 602 221 627 l 138 686 q 248 728 186 712 q 382 745 311 745 q 488 731 441 745 q 569 690 536 718 q 620 616 602 661 q 637 509 637 572 l 637 0 l 533 0 m 533 326 q 496 344 515 336 q 455 357 477 352 q 406 366 433 363 q 346 368 379 368 q 220 331 265 368 q 175 225 175 294 q 186 155 175 184 q 216 106 197 125 q 263 78 235 87 q 323 69 290 69 q 390 78 359 69 q 447 101 420 86 q 495 136 473 116 q 533 179 517 156 l 533 326 m 539 994 q 527 931 539 960 q 493 879 515 901 q 441 845 471 857 q 376 832 412 832 q 311 845 341 832 q 260 879 281 857 q 226 931 238 901 q 214 994 214 960 q 226 1058 214 1028 q 260 1109 238 1087 q 311 1143 281 1131 q 376 1156 341 1156 q 441 1143 412 1156 q 493 1109 471 1131 q 527 1058 515 1087 q 539 994 539 1028 m 473 994 q 467 1034 473 1015 q 447 1065 460 1052 q 417 1086 435 1078 q 376 1093 399 1093 q 336 1086 354 1093 q 306 1065 318 1078 q 286 1034 293 1052 q 279 994 279 1015 q 286 954 279 972 q 306 923 293 936 q 336 902 318 909 q 376 895 354 895 q 417 902 399 895 q 447 923 435 909 q 467 954 460 936 q 473 994 473 972 z "},"ç":{"ha":688,"x_min":77,"x_max":621,"o":"m 618 86 q 570 44 595 62 q 516 12 545 25 q 455 -8 488 -1 q 383 -16 422 -16 q 268 7 323 -16 q 170 77 213 31 q 102 195 127 124 q 77 361 77 266 q 104 534 77 462 q 176 654 132 607 q 277 723 220 701 q 390 745 333 745 q 521 720 465 745 q 621 659 578 696 l 558 581 q 519 612 538 598 q 478 635 499 626 q 434 650 458 645 q 383 654 411 654 q 303 635 340 654 q 240 580 267 616 q 197 491 213 544 q 182 370 182 437 q 196 248 182 302 q 236 155 210 194 q 301 96 262 117 q 387 75 339 75 q 436 81 414 75 q 479 96 459 86 q 518 120 499 106 q 555 153 536 134 l 618 86 m 328 0 l 390 0 l 366 -71 q 399 -56 381 -61 q 443 -52 418 -52 q 473 -57 457 -52 q 504 -73 490 -62 q 527 -102 517 -84 q 536 -147 536 -121 q 523 -204 536 -181 q 487 -241 509 -227 q 434 -262 464 -256 q 371 -268 404 -268 q 286 -255 328 -268 q 207 -218 243 -242 l 233 -174 q 361 -211 291 -211 q 431 -195 409 -211 q 454 -151 454 -180 q 443 -118 454 -130 q 410 -106 431 -106 q 343 -131 369 -106 l 293 -111 l 328 0 z "},"é":{"ha":750,"x_min":77,"x_max":671,"o":"m 671 386 q 670 354 671 367 q 667 329 669 342 l 180 329 q 200 224 184 271 q 241 144 215 177 q 302 93 267 111 q 383 75 338 75 q 441 80 415 75 q 491 93 467 84 q 537 115 514 102 q 585 144 559 127 l 633 69 q 571 32 601 48 q 511 6 542 16 q 447 -10 481 -5 q 372 -16 414 -16 q 304 -7 339 -16 q 236 20 269 1 q 174 69 203 39 q 123 142 145 99 q 89 241 102 184 q 77 368 77 297 q 99 525 77 455 q 162 644 122 595 q 257 719 202 692 q 378 745 313 745 q 504 718 449 745 q 596 644 559 691 q 652 530 633 596 q 671 386 671 464 m 574 414 q 557 511 570 467 q 520 587 544 555 q 460 637 496 619 q 376 654 424 654 q 302 640 336 654 q 242 595 268 625 q 201 520 217 565 q 180 414 185 475 l 574 414 m 397 827 l 315 827 l 458 1048 l 607 1048 l 397 827 z "},"è":{"ha":750,"x_min":77,"x_max":671,"o":"m 671 386 q 670 354 671 367 q 667 329 669 342 l 180 329 q 200 224 184 271 q 241 144 215 177 q 302 93 267 111 q 383 75 338 75 q 441 80 415 75 q 491 93 467 84 q 537 115 514 102 q 585 144 559 127 l 633 69 q 571 32 601 48 q 511 6 542 16 q 447 -10 481 -5 q 372 -16 414 -16 q 304 -7 339 -16 q 236 20 269 1 q 174 69 203 39 q 123 142 145 99 q 89 241 102 184 q 77 368 77 297 q 99 525 77 455 q 162 644 122 595 q 257 719 202 692 q 378 745 313 745 q 504 718 449 745 q 596 644 559 691 q 652 530 633 596 q 671 386 671 464 m 574 414 q 557 511 570 467 q 520 587 544 555 q 460 637 496 619 q 376 654 424 654 q 302 640 336 654 q 242 595 268 625 q 201 520 217 565 q 180 414 185 475 l 574 414 m 363 827 l 153 1048 l 302 1048 l 445 827 l 363 827 z "},"ê":{"ha":750,"x_min":77,"x_max":671,"o":"m 671 386 q 670 354 671 367 q 667 329 669 342 l 180 329 q 200 224 184 271 q 241 144 215 177 q 302 93 267 111 q 383 75 338 75 q 441 80 415 75 q 491 93 467 84 q 537 115 514 102 q 585 144 559 127 l 633 69 q 571 32 601 48 q 511 6 542 16 q 447 -10 481 -5 q 372 -16 414 -16 q 304 -7 339 -16 q 236 20 269 1 q 174 69 203 39 q 123 142 145 99 q 89 241 102 184 q 77 368 77 297 q 99 525 77 455 q 162 644 122 595 q 257 719 202 692 q 378 745 313 745 q 504 718 449 745 q 596 644 559 691 q 652 530 633 596 q 671 386 671 464 m 574 414 q 557 511 570 467 q 520 587 544 555 q 460 637 496 619 q 376 654 424 654 q 302 640 336 654 q 242 595 268 625 q 201 520 217 565 q 180 414 185 475 l 574 414 m 515 814 l 375 958 l 235 814 l 147 814 l 318 1036 l 435 1036 l 606 814 l 515 814 z "},"ë":{"ha":750,"x_min":77,"x_max":671,"o":"m 671 386 q 670 354 671 367 q 667 329 669 342 l 180 329 q 200 224 184 271 q 241 144 215 177 q 302 93 267 111 q 383 75 338 75 q 441 80 415 75 q 491 93 467 84 q 537 115 514 102 q 585 144 559 127 l 633 69 q 571 32 601 48 q 511 6 542 16 q 447 -10 481 -5 q 372 -16 414 -16 q 304 -7 339 -16 q 236 20 269 1 q 174 69 203 39 q 123 142 145 99 q 89 241 102 184 q 77 368 77 297 q 99 525 77 455 q 162 644 122 595 q 257 719 202 692 q 378 745 313 745 q 504 718 449 745 q 596 644 559 691 q 652 530 633 596 q 671 386 671 464 m 574 414 q 557 511 570 467 q 520 587 544 555 q 460 637 496 619 q 376 654 424 654 q 302 640 336 654 q 242 595 268 625 q 201 520 217 565 q 180 414 185 475 l 574 414 m 587 909 q 581 879 587 893 q 565 855 575 865 q 541 838 555 844 q 511 832 527 832 q 482 838 496 832 q 457 855 468 844 q 441 879 447 865 q 435 909 435 893 q 441 938 435 924 q 457 963 447 952 q 482 980 468 974 q 511 986 496 986 q 541 980 527 986 q 565 963 555 974 q 581 938 575 952 q 587 909 587 924 m 318 909 q 312 879 318 893 q 296 855 306 865 q 272 838 286 844 q 243 832 258 832 q 213 838 227 832 q 188 855 199 844 q 172 879 178 865 q 165 909 165 893 q 172 938 165 924 q 188 963 178 952 q 213 980 199 974 q 243 986 227 986 q 272 980 258 986 q 296 963 286 974 q 312 938 306 952 q 318 909 318 924 z "},"í":{"ha":349,"x_min":122,"x_max":422,"o":"m 122 0 l 122 729 l 227 729 l 227 0 l 122 0 m 212 827 l 130 827 l 273 1048 l 422 1048 l 212 827 z "},"ì":{"ha":349,"x_min":-71,"x_max":227,"o":"m 122 0 l 122 729 l 227 729 l 227 0 l 122 0 m 139 827 l -71 1048 l 78 1048 l 221 827 l 139 827 z "},"î":{"ha":349,"x_min":-54,"x_max":404,"o":"m 122 0 l 122 729 l 227 729 l 227 0 l 122 0 m 314 807 l 174 950 l 33 807 l -54 807 l 117 1029 l 233 1029 l 404 807 l 314 807 z "},"ï":{"ha":349,"x_min":-36,"x_max":386,"o":"m 122 0 l 122 729 l 227 729 l 227 0 l 122 0 m 386 902 q 380 872 386 886 q 363 848 374 859 q 339 831 353 838 q 310 825 326 825 q 280 831 294 825 q 256 848 267 838 q 239 872 245 859 q 233 902 233 886 q 239 931 233 918 q 256 956 245 945 q 280 973 267 967 q 310 979 294 979 q 339 973 326 979 q 363 956 353 967 q 380 931 374 945 q 386 902 386 918 m 117 902 q 111 872 117 886 q 94 848 104 859 q 70 831 84 838 q 41 825 56 825 q 11 831 25 825 q -13 848 -3 838 q -30 872 -24 859 q -36 902 -36 886 q -30 931 -36 918 q -13 956 -24 945 q 11 973 -3 967 q 41 979 25 979 q 70 973 56 979 q 94 956 84 967 q 111 931 104 945 q 117 902 117 918 z "},"ñ":{"ha":790,"x_min":115,"x_max":676,"o":"m 572 0 l 572 427 q 530 600 572 545 q 400 654 488 654 q 329 641 362 654 q 272 600 296 628 q 234 529 248 572 q 220 427 220 486 l 220 0 l 115 0 l 115 729 l 220 729 l 220 640 q 256 682 235 663 q 301 715 276 701 q 357 737 327 729 q 421 745 387 745 q 526 727 479 745 q 606 673 573 710 q 658 580 640 637 q 676 444 676 523 l 676 0 l 572 0 m 636 1011 q 625 931 636 965 q 593 875 613 897 q 548 842 574 852 q 494 831 522 831 q 442 839 467 831 q 392 866 417 847 q 354 895 366 886 q 334 909 341 905 q 308 923 319 919 q 281 928 296 928 q 246 906 259 928 q 227 835 233 884 l 141 835 q 153 915 141 881 q 184 971 164 949 q 229 1004 203 994 q 283 1015 255 1015 q 335 1007 311 1015 q 386 980 360 999 q 424 951 411 960 q 443 937 436 941 q 470 923 458 927 q 496 918 481 918 q 530 940 517 918 q 550 1011 543 962 l 636 1011 z "},"ó":{"ha":786,"x_min":77,"x_max":710,"o":"m 710 370 q 685 205 710 277 q 617 84 660 133 q 515 10 574 35 q 390 -16 457 -16 q 266 9 323 -16 q 167 81 209 33 q 101 200 125 130 q 77 364 77 271 q 101 528 77 456 q 170 647 126 599 q 271 720 213 695 q 396 745 330 745 q 520 721 463 745 q 620 650 577 697 q 686 532 662 602 q 710 370 710 462 m 606 367 q 590 493 606 439 q 547 583 574 547 q 480 636 519 618 q 393 654 441 654 q 307 636 346 654 q 240 583 268 618 q 197 493 212 547 q 182 367 182 439 q 197 240 182 295 q 240 149 212 186 q 307 94 268 113 q 393 75 346 75 q 480 94 441 75 q 547 149 519 113 q 590 240 574 186 q 606 367 606 295 m 408 827 l 326 827 l 469 1048 l 618 1048 l 408 827 z "},"ò":{"ha":786,"x_min":77,"x_max":710,"o":"m 710 370 q 685 205 710 277 q 617 84 660 133 q 515 10 574 35 q 390 -16 457 -16 q 266 9 323 -16 q 167 81 209 33 q 101 200 125 130 q 77 364 77 271 q 101 528 77 456 q 170 647 126 599 q 271 720 213 695 q 396 745 330 745 q 520 721 463 745 q 620 650 577 697 q 686 532 662 602 q 710 370 710 462 m 606 367 q 590 493 606 439 q 547 583 574 547 q 480 636 519 618 q 393 654 441 654 q 307 636 346 654 q 240 583 268 618 q 197 493 212 547 q 182 367 182 439 q 197 240 182 295 q 240 149 212 186 q 307 94 268 113 q 393 75 346 75 q 480 94 441 75 q 547 149 519 113 q 590 240 574 186 q 606 367 606 295 m 372 827 l 163 1048 l 311 1048 l 454 827 l 372 827 z "},"ô":{"ha":786,"x_min":77,"x_max":710,"o":"m 710 370 q 685 205 710 277 q 617 84 660 133 q 515 10 574 35 q 390 -16 457 -16 q 266 9 323 -16 q 167 81 209 33 q 101 200 125 130 q 77 364 77 271 q 101 528 77 456 q 170 647 126 599 q 271 720 213 695 q 396 745 330 745 q 520 721 463 745 q 620 650 577 697 q 686 532 662 602 q 710 370 710 462 m 606 367 q 590 493 606 439 q 547 583 574 547 q 480 636 519 618 q 393 654 441 654 q 307 636 346 654 q 240 583 268 618 q 197 493 212 547 q 182 367 182 439 q 197 240 182 295 q 240 149 212 186 q 307 94 268 113 q 393 75 346 75 q 480 94 441 75 q 547 149 519 113 q 590 240 574 186 q 606 367 606 295 m 531 814 l 391 958 l 250 814 l 163 814 l 334 1036 l 450 1036 l 621 814 l 531 814 z "},"ö":{"ha":786,"x_min":77,"x_max":710,"o":"m 710 370 q 685 205 710 277 q 617 84 660 133 q 515 10 574 35 q 390 -16 457 -16 q 266 9 323 -16 q 167 81 209 33 q 101 200 125 130 q 77 364 77 271 q 101 528 77 456 q 170 647 126 599 q 271 720 213 695 q 396 745 330 745 q 520 721 463 745 q 620 650 577 697 q 686 532 662 602 q 710 370 710 462 m 606 367 q 590 493 606 439 q 547 583 574 547 q 480 636 519 618 q 393 654 441 654 q 307 636 346 654 q 240 583 268 618 q 197 493 212 547 q 182 367 182 439 q 197 240 182 295 q 240 149 212 186 q 307 94 268 113 q 393 75 346 75 q 480 94 441 75 q 547 149 519 113 q 590 240 574 186 q 606 367 606 295 m 603 902 q 597 872 603 886 q 581 848 591 859 q 556 831 570 838 q 527 825 543 825 q 497 831 511 825 q 473 848 484 838 q 456 872 463 859 q 450 902 450 886 q 456 931 450 918 q 473 956 463 945 q 497 973 484 967 q 527 979 511 979 q 556 973 543 979 q 581 956 570 967 q 597 931 591 945 q 603 902 603 918 m 334 902 q 328 872 334 886 q 311 848 321 859 q 287 831 301 838 q 258 825 273 825 q 228 831 242 825 q 204 848 214 838 q 187 872 193 859 q 181 902 181 886 q 187 931 181 918 q 204 956 193 945 q 228 973 214 967 q 258 979 242 979 q 287 973 273 979 q 311 956 301 967 q 328 931 321 945 q 334 902 334 918 z "},"õ":{"ha":786,"x_min":77,"x_max":710,"o":"m 710 370 q 685 205 710 277 q 617 84 660 133 q 515 10 574 35 q 390 -16 457 -16 q 266 9 323 -16 q 167 81 209 33 q 101 200 125 130 q 77 364 77 271 q 101 528 77 456 q 170 647 126 599 q 271 720 213 695 q 396 745 330 745 q 520 721 463 745 q 620 650 577 697 q 686 532 662 602 q 710 370 710 462 m 606 367 q 590 493 606 439 q 547 583 574 547 q 480 636 519 618 q 393 654 441 654 q 307 636 346 654 q 240 583 268 618 q 197 493 212 547 q 182 367 182 439 q 197 240 182 295 q 240 149 212 186 q 307 94 268 113 q 393 75 346 75 q 480 94 441 75 q 547 149 519 113 q 590 240 574 186 q 606 367 606 295 m 640 1011 q 628 931 640 965 q 597 875 616 897 q 551 842 577 852 q 498 831 526 831 q 445 839 470 831 q 395 866 420 847 q 357 895 370 886 q 338 909 345 905 q 311 923 323 919 q 285 928 299 928 q 250 906 262 928 q 231 835 237 884 l 144 835 q 156 915 144 881 q 187 971 168 949 q 233 1004 207 994 q 286 1015 258 1015 q 339 1007 314 1015 q 389 980 363 999 q 427 951 414 960 q 446 937 439 941 q 473 923 461 927 q 499 918 485 918 q 534 940 521 918 q 553 1011 547 962 l 640 1011 z "},"ú":{"ha":787,"x_min":111,"x_max":672,"o":"m 568 0 l 568 89 q 486 13 536 42 q 367 -16 435 -16 q 177 61 243 -16 q 111 285 111 137 l 111 729 l 215 729 l 215 302 q 257 130 215 184 q 387 75 299 75 q 519 134 471 75 q 568 302 568 192 l 568 729 l 672 729 l 672 0 l 568 0 m 416 827 l 334 827 l 477 1048 l 626 1048 l 416 827 z "},"ù":{"ha":787,"x_min":111,"x_max":672,"o":"m 568 0 l 568 89 q 486 13 536 42 q 367 -16 435 -16 q 177 61 243 -16 q 111 285 111 137 l 111 729 l 215 729 l 215 302 q 257 130 215 184 q 387 75 299 75 q 519 134 471 75 q 568 302 568 192 l 568 729 l 672 729 l 672 0 l 568 0 m 361 827 l 152 1048 l 300 1048 l 444 827 l 361 827 z "},"û":{"ha":787,"x_min":111,"x_max":672,"o":"m 568 0 l 568 89 q 486 13 536 42 q 367 -16 435 -16 q 177 61 243 -16 q 111 285 111 137 l 111 729 l 215 729 l 215 302 q 257 130 215 184 q 387 75 299 75 q 519 134 471 75 q 568 302 568 192 l 568 729 l 672 729 l 672 0 l 568 0 m 532 827 l 392 970 l 252 827 l 164 827 l 335 1048 l 452 1048 l 623 827 l 532 827 z "},"ü":{"ha":787,"x_min":111,"x_max":672,"o":"m 568 0 l 568 89 q 486 13 536 42 q 367 -16 435 -16 q 177 61 243 -16 q 111 285 111 137 l 111 729 l 215 729 l 215 302 q 257 130 215 184 q 387 75 299 75 q 519 134 471 75 q 568 302 568 192 l 568 729 l 672 729 l 672 0 l 568 0 m 604 914 q 598 885 604 899 q 582 860 592 871 q 558 844 572 850 q 528 838 544 838 q 499 844 513 838 q 474 860 485 850 q 458 885 464 871 q 452 914 452 899 q 458 944 452 930 q 474 968 464 958 q 499 985 485 979 q 528 991 513 991 q 558 985 544 991 q 582 968 572 979 q 598 944 592 958 q 604 914 604 930 m 335 914 q 329 885 335 899 q 313 860 323 871 q 289 844 302 850 q 260 838 275 838 q 230 844 243 838 q 205 860 216 850 q 189 885 195 871 q 182 914 182 899 q 189 944 182 930 q 205 968 195 958 q 230 985 216 979 q 260 991 243 991 q 289 985 275 991 q 313 968 302 979 q 329 944 323 958 q 335 914 335 930 z "},"†":{"ha":796,"x_min":77,"x_max":720,"o":"m 446 553 l 446 -139 l 350 -139 l 350 553 l 77 553 l 77 644 l 350 644 l 350 972 l 446 972 l 446 644 l 720 644 l 720 553 l 446 553 z "},"°":{"ha":661,"x_min":71,"x_max":590,"o":"m 590 722 q 571 616 590 665 q 517 531 551 567 q 435 475 483 495 q 330 454 387 454 q 227 475 274 454 q 144 531 179 495 q 90 616 110 567 q 71 722 71 665 q 90 826 71 778 q 144 910 110 875 q 227 967 179 946 q 330 987 274 987 q 435 967 387 987 q 517 910 483 946 q 571 826 551 875 q 590 722 590 778 m 498 722 q 487 794 498 761 q 453 850 475 827 q 399 888 431 874 q 330 901 368 901 q 262 888 293 901 q 209 850 231 874 q 175 794 187 827 q 163 722 163 761 q 175 648 163 682 q 209 591 187 614 q 262 554 231 567 q 330 541 293 541 q 399 554 368 541 q 453 591 431 567 q 487 648 475 614 q 498 722 498 682 z "},"¢":{"ha":861,"x_min":100,"x_max":768,"o":"m 700 700 q 649 739 674 723 q 597 766 624 755 q 541 781 571 777 q 476 786 511 786 q 369 766 418 786 q 283 710 319 747 q 226 622 247 673 q 205 505 205 570 q 225 380 205 435 q 282 286 245 324 q 369 226 318 247 q 481 205 419 205 q 604 229 551 205 q 694 293 656 252 l 761 233 q 656 155 713 182 q 522 121 599 128 l 522 -16 l 415 -16 l 415 121 q 283 160 342 130 q 184 239 225 191 q 121 352 143 288 q 100 493 100 416 q 124 638 100 573 q 191 751 149 703 q 291 829 233 800 q 415 869 349 859 l 415 1000 l 522 1000 l 522 873 q 665 840 605 867 q 768 772 726 813 l 700 700 z "},"£":{"ha":861,"x_min":123,"x_max":774,"o":"m 123 0 l 123 97 q 180 167 155 133 q 222 237 205 201 q 250 315 240 274 q 260 407 259 356 l 123 407 l 123 501 l 244 501 q 224 544 236 523 q 199 589 212 566 q 178 625 186 608 q 163 661 169 643 q 154 699 157 679 q 151 745 151 720 q 175 849 151 804 q 241 925 199 894 q 340 971 283 956 q 463 987 397 987 q 625 956 553 987 q 762 867 698 925 l 697 787 q 586 864 645 838 q 460 890 528 890 q 371 879 409 890 q 309 847 334 867 q 271 801 283 827 q 258 746 258 775 q 270 682 258 712 q 302 615 281 652 q 330 564 316 592 q 353 501 343 535 l 564 501 l 564 407 l 363 407 q 351 310 361 354 q 325 228 340 265 q 288 158 309 190 q 245 98 268 126 l 774 98 l 774 0 l 123 0 z "},"§":{"ha":872,"x_min":77,"x_max":796,"o":"m 796 372 q 783 295 796 330 q 746 230 770 259 q 692 176 723 200 q 624 131 661 151 q 679 67 659 103 q 699 -17 699 32 q 679 -104 699 -65 q 623 -171 659 -143 q 538 -213 587 -198 q 429 -228 488 -228 q 285 -202 350 -228 q 161 -127 220 -176 l 225 -50 q 327 -113 277 -95 q 446 -131 377 -131 q 551 -101 511 -131 q 591 -25 591 -72 q 582 18 591 -2 q 551 56 573 39 q 490 90 528 74 q 393 119 452 105 q 241 168 302 142 q 144 224 180 193 q 92 295 107 256 q 77 387 77 335 q 90 465 77 429 q 126 530 103 500 q 181 585 149 560 q 249 629 212 609 q 193 692 213 656 q 174 777 174 728 q 194 864 174 825 q 249 930 214 903 q 334 972 285 958 q 443 987 384 987 q 587 961 522 987 q 711 888 652 935 l 647 810 q 550 871 599 851 q 427 890 500 890 q 368 883 395 890 q 322 862 341 876 q 292 828 302 848 q 281 785 281 808 q 290 741 281 761 q 322 703 299 721 q 383 670 345 686 q 479 640 421 654 q 631 592 570 617 q 729 535 692 567 q 781 464 766 504 q 796 372 796 425 m 689 364 q 681 418 689 393 q 649 464 673 443 q 582 503 625 485 q 469 539 538 522 q 400 558 433 549 q 336 581 367 568 q 223 500 264 547 q 183 396 183 452 q 192 341 183 366 q 224 296 200 317 q 291 256 248 275 q 403 221 334 238 q 473 202 439 212 q 536 179 506 192 q 649 260 608 213 q 689 364 689 307 z "},"•":{"ha":557,"x_min":93,"x_max":507,"o":"m 507 510 l 93 269 l 93 751 l 507 510 z "},"¶":{"ha":956,"x_min":65,"x_max":827,"o":"m 720 -257 l 720 878 l 593 878 l 593 -257 l 486 -257 l 486 363 l 380 363 q 259 383 316 363 q 159 442 202 403 q 90 538 115 481 q 65 668 65 595 q 91 798 65 741 q 159 893 116 854 q 259 952 202 932 q 380 972 317 972 l 827 972 l 827 -257 l 720 -257 z "},"ß":{"ha":794,"x_min":115,"x_max":718,"o":"m 718 314 q 690 168 718 227 q 612 71 661 108 q 497 17 563 33 q 358 0 432 0 l 338 0 l 338 92 l 363 92 q 469 104 422 92 q 548 142 516 116 q 597 208 580 168 q 614 304 614 248 q 593 397 614 359 q 538 460 573 435 q 459 496 504 484 q 366 507 414 507 l 338 507 l 338 597 l 370 597 q 494 638 450 597 q 539 761 539 679 q 494 876 539 833 q 378 918 450 918 q 263 869 307 918 q 220 734 220 821 l 220 -210 l 115 -268 l 115 717 q 134 842 115 787 q 188 933 153 897 q 272 989 223 970 q 380 1008 321 1008 q 489 989 440 1008 q 572 938 538 970 q 624 860 606 905 q 643 762 643 814 q 612 641 643 691 q 517 561 581 591 q 589 534 553 552 q 654 487 625 517 q 700 415 682 458 q 718 314 718 372 z "},"®":{"ha":1161,"x_min":79,"x_max":1082,"o":"m 1082 486 q 1043 282 1082 374 q 938 123 1005 189 q 779 21 871 57 q 581 -16 687 -16 q 382 21 473 -16 q 223 123 290 57 q 118 282 156 189 q 79 486 79 374 q 118 690 79 598 q 223 849 156 783 q 382 951 290 915 q 581 987 473 987 q 779 951 687 987 q 938 849 871 915 q 1043 690 1005 783 q 1082 486 1082 598 m 1014 486 q 981 664 1014 583 q 889 802 947 744 q 752 892 831 860 q 581 924 673 924 q 409 892 488 924 q 272 802 330 860 q 180 664 214 744 q 147 486 147 583 q 180 309 147 389 q 272 171 214 229 q 409 81 330 113 q 581 49 488 49 q 752 81 673 49 q 889 171 831 113 q 981 309 947 229 q 1014 486 1014 389 m 803 612 q 768 509 803 549 q 675 456 734 469 l 799 218 l 713 218 l 593 450 l 473 450 l 473 218 l 400 218 l 400 772 l 625 772 q 695 763 663 772 q 751 734 728 753 q 789 684 775 714 q 803 612 803 654 m 729 612 q 701 683 729 659 q 621 707 673 707 l 473 707 l 473 519 l 612 519 q 701 542 672 519 q 729 612 729 564 z "},"©":{"ha":1161,"x_min":79,"x_max":1082,"o":"m 1082 486 q 1043 282 1082 374 q 938 123 1005 189 q 779 21 871 57 q 581 -16 687 -16 q 382 21 473 -16 q 223 123 290 57 q 118 282 156 189 q 79 486 79 374 q 118 690 79 598 q 223 849 156 783 q 382 951 290 915 q 581 987 473 987 q 779 951 687 987 q 938 849 871 915 q 1043 690 1005 783 q 1082 486 1082 598 m 1014 486 q 981 664 1014 583 q 889 802 947 744 q 752 892 831 860 q 581 924 673 924 q 409 892 488 924 q 272 802 330 860 q 180 664 214 744 q 147 486 147 583 q 180 309 147 389 q 272 171 214 229 q 409 81 330 113 q 581 49 488 49 q 752 81 673 49 q 889 171 831 113 q 981 309 947 229 q 1014 486 1014 389 m 711 635 q 655 688 684 670 q 582 705 627 705 q 519 689 547 705 q 469 644 490 673 q 437 575 448 615 q 425 488 425 535 q 437 398 425 439 q 470 329 449 358 q 519 283 490 299 q 582 267 548 267 q 657 285 626 267 q 720 342 689 304 l 774 294 q 691 223 739 248 q 581 197 644 197 q 486 219 528 197 q 413 280 444 241 q 367 371 383 319 q 350 485 350 424 q 367 601 350 547 q 415 692 384 654 q 489 753 446 731 q 583 775 532 775 q 688 752 643 775 q 770 681 733 729 l 711 635 z "},"™":{"ha":1059,"x_min":31,"x_max":996,"o":"m 258 914 l 258 418 l 192 418 l 192 914 l 31 914 l 31 972 l 419 972 l 419 914 l 258 914 m 933 418 l 933 832 l 754 403 l 579 835 l 579 418 l 517 418 l 517 972 l 589 972 l 756 547 l 925 972 l 996 972 l 996 418 l 933 418 z "},"´":{"ha":694,"x_min":241,"x_max":533,"o":"m 323 827 l 241 827 l 385 1048 l 533 1048 l 323 827 z "},"¨":{"ha":694,"x_min":136,"x_max":558,"o":"m 558 914 q 552 885 558 899 q 536 860 546 871 q 512 844 526 850 q 482 838 498 838 q 453 844 467 838 q 428 860 439 850 q 412 885 418 871 q 406 914 406 899 q 412 944 406 930 q 428 968 418 958 q 453 985 439 979 q 482 991 467 991 q 512 985 498 991 q 536 968 526 979 q 552 944 546 958 q 558 914 558 930 m 289 914 q 283 885 289 899 q 267 860 277 871 q 242 844 256 850 q 214 838 229 838 q 183 844 197 838 q 159 860 170 850 q 142 885 149 871 q 136 914 136 899 q 142 944 136 930 q 159 968 149 958 q 183 985 170 979 q 214 991 197 991 q 242 985 229 991 q 267 968 256 979 q 283 944 277 958 q 289 914 289 930 z "},"≠":{"ha":861,"x_min":141,"x_max":720,"o":"m 552 677 l 720 677 l 720 581 l 520 581 l 451 375 l 720 375 l 720 278 l 417 278 l 356 96 l 254 96 l 315 278 l 141 278 l 141 375 l 348 375 l 417 581 l 141 581 l 141 677 l 449 677 l 509 852 l 612 852 l 552 677 z "},"Æ":{"ha":1386,"x_min":33,"x_max":1307,"o":"m 1286 972 l 1286 873 l 802 873 l 802 568 l 1192 568 l 1192 469 l 802 469 l 802 98 l 1307 98 l 1307 0 l 699 0 l 699 248 l 319 248 l 157 0 l 33 0 l 686 972 l 1286 972 m 383 346 l 699 346 l 699 825 l 383 346 z "},"Ø":{"ha":979,"x_min":86,"x_max":893,"o":"m 893 488 q 864 286 893 378 q 781 126 834 193 q 653 22 728 59 q 488 -16 578 -16 q 315 25 397 -16 l 272 -69 l 176 -69 l 243 75 q 127 247 168 142 q 86 485 86 352 q 115 687 86 595 q 198 846 144 779 q 325 950 251 913 q 490 987 399 987 q 644 956 573 987 l 684 1042 l 779 1042 l 720 909 q 792 834 760 878 q 847 737 825 791 q 881 620 869 683 q 893 488 893 557 m 603 865 q 486 893 549 893 q 369 864 422 893 q 275 783 315 836 q 213 655 235 730 q 191 488 191 580 q 217 309 191 388 q 289 176 243 230 l 603 865 m 789 485 q 758 676 789 593 q 675 812 728 760 l 357 117 q 492 79 417 79 q 610 108 555 79 q 704 189 664 136 q 766 317 743 242 q 789 485 789 392 z "},"∞":{"ha":1315,"x_min":164,"x_max":1152,"o":"m 435 803 q 567 773 508 803 q 661 682 625 743 q 752 774 694 745 q 885 803 810 803 q 990 782 942 803 q 1075 723 1039 762 q 1131 631 1111 685 q 1152 509 1152 576 q 1131 379 1152 436 q 1075 284 1111 323 q 988 224 1038 245 q 880 204 939 204 q 748 235 807 204 q 654 329 689 267 q 562 235 620 265 q 431 204 505 204 q 325 225 374 204 q 241 286 277 247 q 184 380 205 325 q 164 503 164 435 q 185 626 164 570 q 243 721 207 682 q 329 782 280 760 q 435 803 378 803 m 614 505 q 601 598 614 558 q 566 666 589 639 q 511 706 543 692 q 440 720 479 720 q 369 705 401 720 q 313 663 336 690 q 278 596 290 635 q 265 505 265 556 q 278 414 265 454 q 315 346 291 374 q 372 302 338 317 q 446 288 405 288 q 507 297 478 288 q 557 327 535 307 q 595 375 580 346 q 618 444 611 404 q 614 505 614 473 m 701 509 q 714 408 701 450 q 749 339 726 366 q 805 300 772 313 q 876 288 837 288 q 950 303 918 288 q 1005 346 983 318 q 1039 415 1027 374 q 1051 505 1051 455 q 1038 596 1051 556 q 1001 664 1025 636 q 944 705 977 691 q 869 720 910 720 q 811 711 840 720 q 760 682 783 702 q 721 633 736 662 q 698 566 705 605 q 700 538 699 552 q 701 509 701 524 z "},"±":{"ha":861,"x_min":106,"x_max":755,"o":"m 481 444 l 481 176 l 380 176 l 380 444 l 106 444 l 106 539 l 380 539 l 380 807 l 481 807 l 481 539 l 755 539 l 755 444 l 481 444 m 106 40 l 106 135 l 755 135 l 755 40 l 106 40 z "},"≤":{"ha":861,"x_min":250,"x_max":612,"o":"m 252 472 l 252 567 l 612 869 l 612 741 l 334 521 l 612 301 l 612 170 l 252 472 m 250 40 l 250 135 l 612 135 l 612 40 l 250 40 z "},"≥":{"ha":861,"x_min":249,"x_max":612,"o":"m 249 170 l 249 301 l 527 521 l 249 741 l 249 869 l 609 567 l 609 472 l 249 170 m 249 40 l 249 135 l 612 135 l 612 40 l 249 40 z "},"¥":{"ha":861,"x_min":47,"x_max":814,"o":"m 485 385 l 485 278 l 720 278 l 720 182 l 485 182 l 485 0 l 376 0 l 376 182 l 142 182 l 142 278 l 376 278 l 376 383 l 47 972 l 172 972 l 431 484 l 692 972 l 814 972 l 485 385 z "},"µ":{"ha":791,"x_min":115,"x_max":676,"o":"m 572 0 l 572 89 q 490 14 541 43 q 371 -16 440 -16 q 279 -3 317 -16 q 220 26 241 10 l 220 -210 l 115 -268 l 115 729 l 220 729 l 220 302 q 231 200 220 244 q 265 127 241 156 q 320 87 288 98 q 392 75 353 75 q 463 89 430 75 q 520 129 496 102 q 558 200 545 157 q 572 302 572 243 l 572 729 l 676 729 l 676 0 l 572 0 z "},"∂":{"ha":786,"x_min":77,"x_max":710,"o":"m 254 896 l 254 987 q 350 971 303 984 q 442 936 397 959 q 527 877 486 912 q 601 799 568 842 q 657 696 633 755 q 696 567 682 637 q 710 414 710 496 q 688 221 710 302 q 625 87 666 140 q 524 9 583 35 q 390 -16 465 -16 q 270 7 327 -16 q 171 72 214 29 q 102 179 127 115 q 77 326 77 243 q 101 474 77 410 q 166 582 125 538 q 259 647 207 625 q 368 669 312 669 q 508 642 447 669 q 615 546 570 614 q 560 700 594 638 q 480 802 526 761 q 377 867 435 844 q 254 896 319 890 m 606 329 q 589 442 606 395 q 543 519 572 489 q 473 565 513 550 q 383 579 432 579 q 300 563 337 579 q 236 515 262 547 q 196 436 210 483 q 182 329 182 389 q 198 217 182 264 q 243 137 214 169 q 310 91 271 106 q 393 75 349 75 q 477 91 438 75 q 544 137 515 106 q 589 217 573 169 q 606 329 606 264 z "},"∑":{"ha":857,"x_min":85,"x_max":779,"o":"m 228 878 l 553 423 l 200 -109 l 779 -109 l 779 -203 l 85 -203 l 85 -109 l 431 416 l 102 878 l 102 972 l 768 972 l 768 878 l 228 878 z "},"∏":{"ha":939,"x_min":127,"x_max":811,"o":"m 703 -203 l 703 873 l 236 873 l 236 -203 l 127 -203 l 127 972 l 811 972 l 811 -203 l 703 -203 z "},"π":{"ha":836,"x_min":54,"x_max":782,"o":"m 54 729 l 782 729 l 782 642 l 692 642 l 692 0 l 587 0 l 587 642 l 249 642 l 249 0 l 144 0 l 144 642 l 54 642 l 54 729 z "},"∫":{"ha":546,"x_min":0,"x_max":463,"o":"m 283 -89 q 269 -172 283 -138 q 231 -227 255 -205 q 173 -258 206 -248 q 102 -268 140 -268 q 0 -256 38 -268 l 0 -157 q 43 -170 18 -165 q 94 -174 69 -174 q 156 -156 133 -174 q 179 -93 179 -138 l 179 808 q 193 891 179 857 q 232 946 208 925 q 290 978 256 968 q 361 987 323 987 q 463 975 425 987 l 463 876 q 419 889 445 885 q 368 893 393 893 q 307 876 330 893 q 283 812 283 858 l 283 -89 z "},"º":{"ha":667,"x_min":75,"x_max":591,"o":"m 591 688 q 571 556 591 614 q 516 460 551 499 q 433 401 481 421 q 330 380 386 380 q 229 400 275 380 q 148 458 182 420 q 95 553 114 496 q 75 684 75 610 q 95 814 75 758 q 151 910 115 871 q 234 968 186 948 q 336 987 281 987 q 438 968 391 987 q 518 912 484 949 q 572 818 553 874 q 591 688 591 762 m 497 686 q 485 782 497 741 q 452 850 473 823 q 400 891 431 878 q 334 904 370 904 q 266 891 296 904 q 215 850 236 878 q 181 782 193 823 q 170 686 170 741 q 181 589 170 631 q 215 519 193 547 q 266 478 236 492 q 334 464 296 464 q 400 478 370 464 q 452 519 431 492 q 485 589 473 547 q 497 686 497 631 z "},"Ω":{"ha":1006,"x_min":92,"x_max":914,"o":"m 200 524 q 216 399 200 456 q 260 290 231 341 q 331 191 290 238 q 424 98 372 144 l 424 0 l 103 0 l 103 98 l 302 98 q 211 188 248 144 q 146 288 175 231 q 104 401 117 345 q 92 514 92 457 q 122 708 92 621 q 208 858 153 795 q 338 954 263 920 q 503 987 414 987 q 667 954 592 987 q 798 858 743 920 q 883 708 852 795 q 914 514 914 621 q 901 400 914 456 q 861 291 888 344 q 795 189 835 237 q 703 98 755 140 l 903 98 l 903 0 l 582 0 l 582 98 q 675 191 633 144 q 745 290 716 238 q 790 399 774 341 q 806 524 806 456 q 781 678 806 610 q 714 793 756 746 q 617 864 673 840 q 501 889 562 889 q 386 864 440 889 q 290 793 331 840 q 224 678 249 746 q 200 524 200 610 z "},"æ":{"ha":1164,"x_min":72,"x_max":1084,"o":"m 1084 386 q 1083 354 1084 367 q 1080 329 1082 342 l 614 329 q 632 224 618 271 q 670 144 646 177 q 728 93 694 111 q 807 75 762 75 q 863 80 839 75 q 909 93 888 84 q 952 115 931 102 q 999 144 974 127 l 1047 69 q 986 32 1015 48 q 930 6 958 16 q 869 -10 901 -5 q 796 -16 837 -16 q 673 14 732 -16 q 571 111 614 44 q 447 13 510 41 q 296 -16 384 -16 q 213 -4 253 -16 q 141 35 172 7 q 91 107 110 62 q 72 218 72 152 q 94 323 72 279 q 153 396 115 368 q 239 438 190 425 q 342 452 288 452 q 439 439 397 452 q 514 410 481 427 l 514 496 q 480 617 514 578 q 366 657 446 657 q 259 641 306 657 q 176 602 213 624 l 138 686 q 243 728 186 712 q 372 745 301 745 q 521 709 469 745 q 585 612 572 674 q 671 710 617 675 q 802 745 726 745 q 926 718 873 745 q 1014 644 979 691 q 1067 530 1049 596 q 1084 386 1084 464 m 987 414 q 972 511 984 467 q 939 587 961 555 q 882 637 916 619 q 800 654 848 654 q 721 637 755 654 q 665 587 688 619 q 630 511 643 555 q 614 414 618 467 l 987 414 m 511 328 q 477 345 494 337 q 439 357 460 352 q 394 366 419 363 q 336 368 369 368 q 215 331 256 368 q 175 225 175 294 q 211 106 175 144 q 314 69 248 69 q 367 75 339 69 q 422 96 394 81 q 478 134 450 111 q 533 193 507 158 q 518 256 524 222 q 511 328 513 289 z "},"ø":{"ha":786,"x_min":77,"x_max":710,"o":"m 710 370 q 685 205 710 277 q 617 84 660 133 q 515 10 574 35 q 390 -16 457 -16 q 271 7 326 -16 l 235 -69 l 143 -69 l 200 50 q 110 175 142 96 q 77 364 77 254 q 101 528 77 456 q 170 647 126 599 q 271 720 213 695 q 396 745 330 745 q 460 739 429 745 q 519 721 491 732 l 557 799 l 648 799 l 590 677 q 678 554 646 631 q 710 370 710 477 m 481 639 q 393 657 441 657 q 306 639 345 657 q 238 584 267 621 q 195 493 210 548 q 179 367 179 439 q 196 234 179 290 q 243 140 212 178 l 481 639 m 608 367 q 592 495 608 440 q 547 586 576 549 l 310 89 q 393 72 349 72 q 480 91 441 72 q 549 147 520 110 q 593 239 577 184 q 608 367 608 294 z "},"¿":{"ha":779,"x_min":93,"x_max":718,"o":"m 511 903 q 505 870 511 886 q 486 842 498 854 q 459 822 474 829 q 427 815 444 815 q 394 822 410 815 q 367 842 379 829 q 349 870 355 854 q 342 903 342 886 q 349 935 342 920 q 367 962 355 951 q 394 981 379 974 q 427 987 410 987 q 459 981 444 987 q 486 962 474 974 q 505 935 498 951 q 511 903 511 920 m 718 114 q 656 63 690 87 q 581 22 621 39 q 493 -5 540 5 q 393 -16 446 -16 q 272 -1 327 -16 q 177 44 216 14 q 115 119 137 75 q 93 224 93 164 q 104 310 93 274 q 138 375 116 347 q 193 426 161 403 q 265 475 224 450 q 321 515 300 496 q 353 560 342 534 q 368 621 364 585 q 371 711 371 656 l 478 711 q 476 629 478 665 q 468 566 474 594 q 451 516 462 538 q 421 474 439 494 q 377 435 403 454 q 314 393 351 416 q 266 360 287 376 q 231 326 245 345 q 209 284 216 307 q 201 232 201 262 q 255 125 201 167 q 397 83 309 83 q 470 91 436 83 q 534 112 504 98 q 593 145 565 125 q 648 191 621 165 l 718 114 z "},"¡":{"ha":366,"x_min":98,"x_max":268,"o":"m 268 903 q 261 870 268 886 q 243 842 254 854 q 216 822 231 829 q 183 815 200 815 q 151 822 167 815 q 124 842 136 829 q 105 870 113 854 q 98 903 98 886 q 105 935 98 920 q 124 962 113 951 q 151 981 136 974 q 183 987 167 987 q 216 981 200 987 q 243 962 231 974 q 261 935 254 951 q 268 903 268 920 m 129 0 l 129 457 l 154 711 l 212 711 l 236 457 l 236 0 l 129 0 z "},"¬":{"ha":861,"x_min":106,"x_max":755,"o":"m 755 149 l 653 149 l 653 431 l 106 431 l 106 525 l 755 525 l 755 149 z "},"√":{"ha":806,"x_min":64,"x_max":743,"o":"m 376 0 l 279 0 l 64 472 l 175 472 l 327 120 l 639 972 l 743 972 l 376 0 z "},"ƒ":{"ha":861,"x_min":179,"x_max":772,"o":"m 751 876 q 698 888 732 884 q 625 893 664 893 q 531 869 566 893 q 484 787 496 844 l 471 729 l 689 729 l 671 642 l 453 642 l 315 0 l 211 0 l 349 642 l 179 642 l 197 729 l 367 729 l 378 783 q 412 879 389 840 q 467 942 434 918 q 543 977 500 966 q 639 987 586 987 q 718 983 683 987 q 772 975 753 979 l 751 876 z "},"≈":{"ha":861,"x_min":140,"x_max":721,"o":"m 557 532 q 487 544 519 532 q 418 579 454 555 q 361 613 383 604 q 317 623 338 623 q 262 601 285 623 q 235 536 239 578 l 140 536 q 156 616 140 583 q 196 673 172 650 q 249 706 220 695 q 304 717 278 717 q 373 706 340 717 q 436 674 406 694 q 492 640 466 654 q 545 627 518 627 q 600 650 576 627 q 627 713 623 673 l 721 713 q 705 633 721 667 q 665 576 689 599 q 612 543 641 554 q 557 532 583 532 m 557 232 q 487 243 519 232 q 418 279 454 255 q 361 313 383 303 q 317 322 338 322 q 262 300 285 322 q 235 236 239 278 l 140 236 q 156 316 140 282 q 196 372 172 350 q 249 406 220 395 q 304 416 278 416 q 373 405 340 416 q 436 374 406 394 q 492 340 466 353 q 545 326 518 326 q 600 349 576 326 q 627 412 623 372 l 721 412 q 705 332 721 366 q 665 276 689 298 q 612 243 641 254 q 557 232 583 232 z "},"∆":{"ha":953,"x_min":65,"x_max":888,"o":"m 65 0 l 419 972 l 536 972 l 888 0 l 65 0 m 477 848 l 214 98 l 737 98 l 477 848 z "},"«":{"ha":800,"x_min":41,"x_max":737,"o":"m 619 0 l 338 364 l 619 729 l 737 729 l 456 366 l 737 0 l 619 0 m 323 0 l 41 364 l 323 729 l 441 729 l 160 366 l 441 0 l 323 0 z "},"»":{"ha":800,"x_min":62,"x_max":758,"o":"m 476 0 l 358 0 l 640 364 l 358 729 l 476 729 l 758 366 l 476 0 m 180 0 l 62 0 l 345 364 l 62 729 l 180 729 l 463 366 l 180 0 z "},"…":{"ha":1000,"x_min":78,"x_max":922,"o":"m 922 74 q 915 39 922 56 q 895 11 907 23 q 867 -8 883 -1 q 833 -16 851 -16 q 799 -8 815 -16 q 771 11 783 -1 q 752 39 759 23 q 745 74 745 56 q 752 109 745 92 q 771 138 759 125 q 799 158 783 151 q 833 165 815 165 q 867 158 851 165 q 895 138 883 151 q 915 109 907 125 q 922 74 922 92 m 589 74 q 582 39 589 56 q 562 11 574 23 q 534 -8 550 -1 q 500 -16 517 -16 q 466 -8 481 -16 q 437 11 450 -1 q 418 39 425 23 q 411 74 411 56 q 418 109 411 92 q 437 138 425 125 q 466 158 450 151 q 500 165 481 165 q 534 158 517 165 q 562 138 550 151 q 582 109 574 125 q 589 74 589 92 m 256 74 q 248 39 256 56 q 229 11 241 23 q 200 -8 216 -1 q 167 -16 184 -16 q 132 -8 149 -16 q 104 11 116 -1 q 85 39 92 23 q 78 74 78 56 q 85 109 78 92 q 104 138 92 125 q 132 158 116 151 q 167 165 149 165 q 200 158 184 165 q 229 138 216 151 q 248 109 241 125 q 256 74 256 92 z "},"À":{"ha":942,"x_min":74,"x_max":868,"o":"m 868 0 l 754 0 l 671 248 l 269 248 l 184 0 l 74 0 l 411 972 l 530 972 l 868 0 m 637 346 l 471 843 l 302 346 l 637 346 m 432 1035 l 222 1257 l 371 1257 l 514 1035 l 432 1035 z "},"Ã":{"ha":942,"x_min":74,"x_max":868,"o":"m 868 0 l 754 0 l 671 248 l 269 248 l 184 0 l 74 0 l 411 972 l 530 972 l 868 0 m 637 346 l 471 843 l 302 346 l 637 346 m 718 1219 q 707 1139 718 1173 q 675 1083 695 1105 q 630 1050 656 1061 q 576 1039 604 1039 q 524 1047 549 1039 q 474 1075 499 1055 q 436 1103 448 1094 q 416 1117 423 1113 q 390 1132 401 1127 q 363 1136 378 1136 q 328 1114 341 1136 q 309 1043 315 1093 l 223 1043 q 235 1123 223 1089 q 266 1179 246 1157 q 311 1213 286 1202 q 365 1223 337 1223 q 417 1215 393 1223 q 468 1188 442 1207 q 506 1159 493 1168 q 525 1145 518 1149 q 552 1131 540 1135 q 578 1126 564 1126 q 612 1148 600 1126 q 632 1219 625 1171 l 718 1219 z "},"Õ":{"ha":979,"x_min":86,"x_max":893,"o":"m 893 488 q 864 286 893 378 q 781 126 834 193 q 653 22 728 59 q 488 -16 578 -16 q 323 21 397 -16 q 196 125 249 58 q 115 283 144 191 q 86 485 86 375 q 115 687 86 595 q 198 846 144 779 q 325 950 251 913 q 490 987 399 987 q 655 950 581 987 q 782 847 729 913 q 864 689 835 781 q 893 488 893 597 m 785 485 q 762 651 785 576 q 699 779 739 726 q 605 860 659 831 q 486 889 550 889 q 370 861 423 889 q 277 780 316 832 q 217 653 239 728 q 195 488 195 579 q 217 321 195 396 q 280 194 240 247 q 374 112 319 141 q 492 83 428 83 q 608 112 555 83 q 701 192 662 140 q 763 319 741 245 q 785 485 785 393 m 735 1219 q 724 1139 735 1173 q 692 1083 712 1105 q 647 1050 673 1061 q 593 1039 621 1039 q 541 1047 566 1039 q 491 1075 516 1055 q 453 1103 465 1094 q 433 1117 440 1113 q 407 1132 418 1127 q 380 1136 395 1136 q 345 1114 358 1136 q 326 1043 332 1093 l 240 1043 q 252 1123 240 1089 q 283 1179 263 1157 q 328 1213 302 1202 q 382 1223 354 1223 q 434 1215 410 1223 q 485 1188 459 1207 q 523 1159 510 1168 q 542 1145 535 1149 q 569 1131 557 1135 q 595 1126 581 1126 q 629 1148 616 1126 q 649 1219 642 1171 l 735 1219 z "},"Œ":{"ha":1449,"x_min":86,"x_max":1369,"o":"m 873 469 l 873 98 l 1369 98 l 1369 0 l 777 0 l 777 161 q 728 91 754 123 q 667 35 701 58 q 588 -2 633 11 q 485 -16 544 -16 q 321 22 395 -16 q 195 125 248 59 q 115 284 143 192 q 86 486 86 376 q 115 688 86 596 q 195 847 143 780 q 321 950 248 913 q 485 987 395 987 q 584 974 539 987 q 665 937 629 960 q 728 882 701 913 q 777 815 756 850 l 777 972 l 1349 972 l 1349 873 l 873 873 l 873 568 l 1264 568 l 1264 469 l 873 469 m 777 485 q 754 651 777 576 q 693 779 732 726 q 600 860 654 831 q 482 889 546 889 q 366 861 419 889 q 275 780 313 832 q 216 653 237 728 q 195 488 195 579 q 217 321 195 396 q 278 194 239 247 q 370 112 317 141 q 488 83 424 83 q 604 112 551 83 q 695 192 656 140 q 755 319 734 245 q 777 485 777 393 z "},"œ":{"ha":1244,"x_min":77,"x_max":1165,"o":"m 1165 386 q 1164 354 1165 367 q 1161 329 1163 342 l 689 329 q 708 224 692 271 q 748 144 723 177 q 808 93 773 111 q 885 75 842 75 q 979 91 935 75 q 1079 144 1023 106 l 1128 69 q 1009 7 1065 29 q 873 -16 952 -16 q 796 -2 833 -16 q 728 36 759 12 q 673 91 696 60 q 636 158 650 123 q 599 91 622 122 q 544 35 576 59 q 472 -2 513 12 q 383 -16 432 -16 q 264 9 320 -16 q 166 81 208 33 q 101 200 125 130 q 77 364 77 271 q 102 528 77 456 q 170 647 127 599 q 269 720 212 695 q 389 745 326 745 q 476 731 436 745 q 548 693 516 717 q 602 638 579 670 q 639 572 625 607 q 732 695 668 646 q 879 745 795 745 q 1000 718 947 745 q 1090 644 1053 691 q 1146 530 1126 596 q 1165 386 1165 464 m 1068 414 q 1052 511 1065 467 q 1015 587 1039 555 q 957 637 991 619 q 878 654 923 654 q 750 595 800 654 q 689 414 699 536 l 1068 414 m 591 367 q 576 493 591 439 q 533 583 561 547 q 468 636 506 618 q 386 654 431 654 q 303 636 341 654 q 239 583 266 618 q 197 493 212 547 q 182 367 182 439 q 197 240 182 295 q 239 149 212 186 q 303 94 266 113 q 386 75 341 75 q 468 94 431 75 q 533 149 506 113 q 576 240 561 186 q 591 367 591 295 z "},"–":{"ha":586,"x_min":71,"x_max":515,"o":"m 71 458 l 71 557 l 515 557 l 515 458 l 71 458 z "},"—":{"ha":806,"x_min":71,"x_max":734,"o":"m 71 458 l 71 557 l 734 557 l 734 458 l 71 458 z "},"“":{"ha":652,"x_min":83,"x_max":547,"o":"m 526 663 l 385 663 l 475 972 l 547 972 l 526 663 m 225 663 l 83 663 l 174 972 l 245 972 l 225 663 z "},"”":{"ha":652,"x_min":104,"x_max":568,"o":"m 478 663 l 406 663 l 427 972 l 568 972 l 478 663 m 176 663 l 104 663 l 125 972 l 267 972 l 176 663 z "},"‘":{"ha":350,"x_min":83,"x_max":245,"o":"m 225 663 l 83 663 l 174 972 l 245 972 l 225 663 z "},"’":{"ha":350,"x_min":104,"x_max":267,"o":"m 176 663 l 104 663 l 125 972 l 267 972 l 176 663 z "},"÷":{"ha":861,"x_min":93,"x_max":768,"o":"m 521 762 q 514 727 521 744 q 494 699 507 711 q 465 679 481 686 q 431 672 449 672 q 395 679 412 672 q 367 699 379 686 q 348 727 355 711 q 340 762 340 744 q 348 798 340 781 q 367 828 355 815 q 395 848 379 841 q 431 856 412 856 q 465 848 449 856 q 494 828 481 841 q 514 798 507 815 q 521 762 521 781 m 93 431 l 93 525 l 768 525 l 768 431 l 93 431 m 521 191 q 514 155 521 172 q 494 126 507 138 q 465 107 481 114 q 431 100 449 100 q 395 107 412 100 q 367 126 379 114 q 348 155 355 138 q 340 191 340 172 q 348 226 340 209 q 367 256 355 243 q 395 276 379 269 q 431 283 412 283 q 465 276 449 283 q 494 256 481 269 q 514 226 507 243 q 521 191 521 209 z "},"◊":{"ha":764,"x_min":40,"x_max":724,"o":"m 382 785 l 160 436 l 382 87 l 604 436 l 382 785 m 724 435 l 450 0 l 315 0 l 40 435 l 314 869 l 449 869 l 724 435 z "},"ÿ":{"ha":737,"x_min":56,"x_max":682,"o":"m 319 -257 l 215 -257 l 315 8 l 56 729 l 165 729 l 368 125 l 572 729 l 682 729 l 319 -257 m 581 902 q 574 872 581 886 q 558 848 568 859 q 534 831 548 838 q 505 825 520 825 q 475 831 489 825 q 451 848 461 838 q 434 872 440 859 q 428 902 428 886 q 434 931 428 918 q 451 956 440 945 q 475 973 461 967 q 505 979 489 979 q 534 973 520 979 q 558 956 548 967 q 574 931 568 945 q 581 902 581 918 m 311 902 q 305 872 311 886 q 289 848 299 859 q 265 831 279 838 q 236 825 251 825 q 206 831 220 825 q 181 848 192 838 q 165 872 171 859 q 159 902 159 886 q 165 931 159 918 q 181 956 171 945 q 206 973 192 967 q 236 979 220 979 q 265 973 251 979 q 289 956 279 967 q 305 931 299 945 q 311 902 311 918 z "},"Ÿ":{"ha":905,"x_min":65,"x_max":840,"o":"m 840 972 l 507 386 l 507 0 l 399 0 l 399 385 l 65 972 l 189 972 l 454 496 l 720 972 l 840 972 m 663 1109 q 656 1079 663 1093 q 640 1055 650 1065 q 616 1038 630 1044 q 587 1032 602 1032 q 557 1038 571 1032 q 533 1055 543 1044 q 516 1079 522 1065 q 510 1109 510 1093 q 516 1138 510 1124 q 533 1163 522 1152 q 557 1180 543 1174 q 587 1186 571 1186 q 616 1180 602 1186 q 640 1163 630 1174 q 656 1138 650 1152 q 663 1109 663 1124 m 393 1109 q 387 1079 393 1093 q 371 1055 381 1065 q 347 1038 361 1044 q 318 1032 333 1032 q 288 1038 302 1032 q 263 1055 274 1044 q 247 1079 253 1065 q 241 1109 241 1093 q 247 1138 241 1124 q 263 1163 253 1152 q 288 1180 274 1174 q 318 1186 302 1186 q 347 1180 333 1186 q 371 1163 361 1174 q 387 1138 381 1152 q 393 1109 393 1124 z "},"⁄":{"ha":635,"x_min":-71,"x_max":705,"o":"m 43 0 l -71 0 l 591 972 l 705 972 l 43 0 z "},"€":{"ha":861,"x_min":57,"x_max":768,"o":"m 494 -16 q 372 8 427 -16 q 274 79 316 33 q 204 193 232 125 q 164 347 176 260 l 57 347 l 57 433 l 155 433 q 154 490 154 446 q 155 551 154 534 l 57 551 l 57 637 l 165 637 q 283 900 196 813 q 498 987 370 987 q 586 977 548 987 q 656 946 625 967 q 713 894 687 926 q 764 821 739 863 l 682 765 q 642 825 661 800 q 603 865 623 850 q 556 886 582 880 q 496 893 530 893 q 420 879 456 893 q 354 834 384 865 q 303 754 325 803 q 269 637 281 706 l 607 637 l 607 551 l 260 551 q 258 520 258 536 q 258 488 258 505 q 258 459 258 473 q 260 433 258 446 l 607 433 l 607 347 l 268 347 q 307 209 280 262 q 367 128 334 157 q 434 89 399 99 q 498 79 469 79 q 561 87 534 79 q 609 111 587 95 q 651 151 631 127 q 693 208 671 176 l 768 155 q 716 85 743 117 q 658 31 690 54 q 586 -3 626 9 q 494 -16 546 -16 z "},"‹":{"ha":504,"x_min":41,"x_max":441,"o":"m 323 0 l 41 364 l 323 729 l 441 729 l 160 366 l 441 0 l 323 0 z "},"›":{"ha":504,"x_min":62,"x_max":463,"o":"m 180 0 l 62 0 l 345 364 l 62 729 l 180 729 l 463 366 l 180 0 z "},"ﬁ":{"ha":829,"x_min":65,"x_max":729,"o":"m 729 933 q 723 905 729 918 q 708 882 718 892 q 685 866 698 871 q 657 860 671 860 q 627 866 641 860 q 603 882 613 871 q 586 905 592 892 q 581 933 581 918 q 586 963 581 949 q 603 987 592 977 q 627 1003 613 997 q 657 1008 641 1008 q 685 1003 671 1008 q 708 987 698 997 q 723 963 718 977 q 729 933 729 949 m 429 897 q 391 910 412 905 q 345 914 370 914 q 287 895 305 914 q 269 838 269 876 l 269 729 l 412 729 l 412 642 l 269 642 l 269 0 l 165 0 l 165 642 l 65 642 l 65 729 l 165 729 l 165 829 q 178 912 165 878 q 213 967 191 946 q 268 999 236 989 q 338 1008 300 1008 q 390 1005 369 1008 q 429 996 410 1002 l 429 897 m 603 0 l 603 729 l 707 729 l 707 0 l 603 0 z "},"ﬂ":{"ha":829,"x_min":65,"x_max":707,"o":"m 603 0 l 603 954 l 707 1013 l 707 0 l 603 0 m 429 897 q 391 910 412 905 q 345 914 370 914 q 287 895 305 914 q 269 838 269 876 l 269 729 l 412 729 l 412 642 l 269 642 l 269 0 l 165 0 l 165 642 l 65 642 l 65 729 l 165 729 l 165 829 q 178 912 165 878 q 213 967 191 946 q 268 999 236 989 q 338 1008 300 1008 q 390 1005 369 1008 q 429 996 410 1002 l 429 897 z "},"‡":{"ha":796,"x_min":77,"x_max":720,"o":"m 446 189 l 446 -139 l 350 -139 l 350 189 l 77 189 l 77 279 l 350 279 l 350 554 l 77 554 l 77 644 l 350 644 l 350 972 l 446 972 l 446 644 l 720 644 l 720 554 l 446 554 l 446 279 l 720 279 l 720 189 l 446 189 z "},"·":{"ha":334,"x_min":78,"x_max":256,"o":"m 256 510 q 249 475 256 492 q 229 447 241 459 q 201 428 217 435 q 167 421 184 421 q 132 428 149 421 q 104 447 116 435 q 85 475 92 459 q 78 510 78 492 q 85 545 78 528 q 104 574 92 561 q 132 594 116 587 q 167 602 149 602 q 201 594 184 602 q 229 574 217 587 q 249 545 241 561 q 256 510 256 528 z "},"‚":{"ha":350,"x_min":104,"x_max":267,"o":"m 176 -150 l 104 -150 l 125 160 l 267 160 l 176 -150 z "},"„":{"ha":652,"x_min":104,"x_max":568,"o":"m 478 -150 l 406 -150 l 427 160 l 568 160 l 478 -150 m 176 -150 l 104 -150 l 125 160 l 267 160 l 176 -150 z "},"‰":{"ha":1868,"x_min":83,"x_max":1805,"o":"m 416 0 l 315 0 l 920 972 l 1021 972 l 416 0 m 1254 288 q 1238 165 1254 221 q 1191 69 1221 109 q 1119 7 1161 29 q 1026 -16 1077 -16 q 934 6 975 -16 q 864 68 892 28 q 819 163 835 108 q 803 285 803 218 q 819 409 803 353 q 864 505 835 465 q 936 567 894 545 q 1029 589 977 589 q 1124 567 1082 589 q 1195 505 1166 545 q 1239 410 1223 465 q 1254 288 1254 354 m 1158 285 q 1149 373 1158 332 q 1123 443 1140 414 q 1082 489 1106 472 q 1028 505 1058 505 q 935 446 970 505 q 899 288 899 387 q 908 199 899 239 q 934 130 917 159 q 975 84 951 100 q 1029 68 999 68 q 1083 85 1059 68 q 1124 133 1107 103 q 1149 201 1141 162 q 1158 285 1158 241 m 1805 288 q 1789 165 1805 221 q 1743 69 1773 109 q 1670 7 1712 29 q 1577 -16 1628 -16 q 1485 6 1527 -16 q 1415 68 1444 28 q 1370 163 1386 108 q 1354 285 1354 218 q 1370 409 1354 353 q 1416 505 1386 465 q 1487 567 1445 545 q 1581 589 1529 589 q 1675 567 1634 589 q 1746 505 1717 545 q 1790 410 1775 465 q 1805 288 1805 354 m 1710 285 q 1701 373 1710 332 q 1674 443 1691 414 q 1633 489 1657 472 q 1579 505 1609 505 q 1486 446 1522 505 q 1450 288 1450 387 q 1459 199 1450 239 q 1485 130 1468 159 q 1526 84 1502 100 q 1581 68 1550 68 q 1635 85 1611 68 q 1675 133 1659 103 q 1701 201 1692 162 q 1710 285 1710 241 m 534 686 q 518 564 534 620 q 472 468 502 508 q 400 406 441 428 q 307 383 358 383 q 215 405 256 383 q 144 466 174 427 q 99 561 115 506 q 83 684 83 616 q 99 807 83 751 q 145 903 115 863 q 216 965 174 943 q 310 987 258 987 q 405 965 363 987 q 475 904 446 943 q 519 808 504 864 q 534 686 534 753 m 439 684 q 430 772 439 731 q 404 842 420 812 q 362 887 387 871 q 309 904 338 904 q 214 844 250 904 q 179 686 179 785 q 188 598 179 638 q 214 528 197 557 q 255 483 231 499 q 310 467 279 467 q 364 484 340 467 q 405 531 388 502 q 430 600 421 561 q 439 684 439 640 z "},"Â":{"ha":942,"x_min":74,"x_max":868,"o":"m 868 0 l 754 0 l 671 248 l 269 248 l 184 0 l 74 0 l 411 972 l 530 972 l 868 0 m 637 346 l 471 843 l 302 346 l 637 346 m 610 1007 l 469 1150 l 329 1007 l 241 1007 l 412 1229 l 529 1229 l 700 1007 l 610 1007 z "},"Ê":{"ha":815,"x_min":127,"x_max":736,"o":"m 736 0 l 127 0 l 127 972 l 715 972 l 715 873 l 236 873 l 236 568 l 624 568 l 624 469 l 236 469 l 236 98 l 736 98 l 736 0 m 560 1035 l 420 1178 l 279 1035 l 192 1035 l 363 1257 l 479 1257 l 650 1035 l 560 1035 z "},"Á":{"ha":942,"x_min":74,"x_max":868,"o":"m 868 0 l 754 0 l 671 248 l 269 248 l 184 0 l 74 0 l 411 972 l 530 972 l 868 0 m 637 346 l 471 843 l 302 346 l 637 346 m 508 1035 l 426 1035 l 569 1257 l 718 1257 l 508 1035 z "},"Ë":{"ha":815,"x_min":127,"x_max":736,"o":"m 736 0 l 127 0 l 127 972 l 715 972 l 715 873 l 236 873 l 236 568 l 624 568 l 624 469 l 236 469 l 236 98 l 736 98 l 736 0 m 633 1122 q 627 1093 633 1107 q 611 1068 621 1079 q 587 1052 601 1058 q 557 1046 573 1046 q 528 1052 542 1046 q 504 1068 514 1058 q 487 1093 493 1079 q 481 1122 481 1107 q 487 1152 481 1138 q 504 1177 493 1166 q 528 1194 514 1187 q 557 1200 542 1200 q 587 1194 573 1200 q 611 1177 601 1187 q 627 1152 621 1166 q 633 1122 633 1138 m 364 1122 q 358 1093 364 1107 q 342 1068 352 1079 q 318 1052 332 1058 q 289 1046 304 1046 q 259 1052 273 1046 q 234 1068 245 1058 q 218 1093 224 1079 q 212 1122 212 1107 q 218 1152 212 1138 q 234 1177 224 1166 q 259 1194 245 1187 q 289 1200 273 1200 q 318 1194 304 1200 q 342 1177 332 1187 q 358 1152 352 1166 q 364 1122 364 1138 z "},"È":{"ha":815,"x_min":127,"x_max":736,"o":"m 736 0 l 127 0 l 127 972 l 715 972 l 715 873 l 236 873 l 236 568 l 624 568 l 624 469 l 236 469 l 236 98 l 736 98 l 736 0 m 414 1035 l 204 1257 l 353 1257 l 496 1035 l 414 1035 z "},"Í":{"ha":378,"x_min":135,"x_max":433,"o":"m 135 0 l 135 972 l 243 972 l 243 0 l 135 0 m 223 1035 l 141 1035 l 284 1257 l 433 1257 l 223 1035 z "},"Î":{"ha":378,"x_min":-43,"x_max":415,"o":"m 135 0 l 135 972 l 243 972 l 243 0 l 135 0 m 325 1028 l 184 1171 l 44 1028 l -43 1028 l 127 1250 l 244 1250 l 415 1028 l 325 1028 z "},"Ï":{"ha":378,"x_min":-22,"x_max":399,"o":"m 135 0 l 135 972 l 243 972 l 243 0 l 135 0 m 399 1128 q 393 1098 399 1112 q 377 1074 387 1084 q 353 1057 367 1063 q 323 1051 339 1051 q 294 1057 308 1051 q 270 1074 280 1063 q 253 1098 259 1084 q 247 1128 247 1112 q 253 1157 247 1143 q 270 1182 259 1171 q 294 1199 280 1193 q 323 1205 308 1205 q 353 1199 339 1205 q 377 1182 367 1193 q 393 1157 387 1171 q 399 1128 399 1143 m 130 1128 q 124 1098 130 1112 q 108 1074 118 1084 q 84 1057 98 1063 q 55 1051 70 1051 q 25 1057 39 1051 q 0 1074 11 1063 q -16 1098 -10 1084 q -22 1128 -22 1112 q -16 1157 -22 1143 q 0 1182 -10 1171 q 25 1199 11 1193 q 55 1205 39 1205 q 84 1199 70 1205 q 108 1182 98 1193 q 124 1157 118 1171 q 130 1128 130 1143 z "},"Ì":{"ha":378,"x_min":-51,"x_max":243,"o":"m 135 0 l 135 972 l 243 972 l 243 0 l 135 0 m 159 1035 l -51 1257 l 98 1257 l 241 1035 l 159 1035 z "},"Ó":{"ha":979,"x_min":86,"x_max":893,"o":"m 893 488 q 864 286 893 378 q 781 126 834 193 q 653 22 728 59 q 488 -16 578 -16 q 323 21 397 -16 q 196 125 249 58 q 115 283 144 191 q 86 485 86 375 q 115 687 86 595 q 198 846 144 779 q 325 950 251 913 q 490 987 399 987 q 655 950 581 987 q 782 847 729 913 q 864 689 835 781 q 893 488 893 597 m 785 485 q 762 651 785 576 q 699 779 739 726 q 605 860 659 831 q 486 889 550 889 q 370 861 423 889 q 277 780 316 832 q 217 653 239 728 q 195 488 195 579 q 217 321 195 396 q 280 194 240 247 q 374 112 319 141 q 492 83 428 83 q 608 112 555 83 q 701 192 662 140 q 763 319 741 245 q 785 485 785 393 m 513 1035 l 431 1035 l 574 1257 l 722 1257 l 513 1035 z "},"Ô":{"ha":979,"x_min":86,"x_max":893,"o":"m 893 488 q 864 286 893 378 q 781 126 834 193 q 653 22 728 59 q 488 -16 578 -16 q 323 21 397 -16 q 196 125 249 58 q 115 283 144 191 q 86 485 86 375 q 115 687 86 595 q 198 846 144 779 q 325 950 251 913 q 490 987 399 987 q 655 950 581 987 q 782 847 729 913 q 864 689 835 781 q 893 488 893 597 m 785 485 q 762 651 785 576 q 699 779 739 726 q 605 860 659 831 q 486 889 550 889 q 370 861 423 889 q 277 780 316 832 q 217 653 239 728 q 195 488 195 579 q 217 321 195 396 q 280 194 240 247 q 374 112 319 141 q 492 83 428 83 q 608 112 555 83 q 701 192 662 140 q 763 319 741 245 q 785 485 785 393 m 627 1028 l 486 1171 l 346 1028 l 258 1028 l 429 1250 l 546 1250 l 717 1028 l 627 1028 z "},"":{"ha":1111,"x_min":28,"x_max":1083,"o":"m 850 302 q 807 302 829 290 q 794 350 784 321 l 822 412 l 627 412 l 627 240 l 693 267 q 739 252 723 277 q 734 212 749 233 l 555 -21 l 372 212 q 370 252 359 233 q 418 267 385 277 l 482 240 l 482 412 l 289 412 l 317 349 q 307 304 328 319 q 262 302 283 289 l 28 486 l 262 665 q 305 666 286 680 q 317 624 326 651 l 289 557 l 482 557 l 482 732 l 418 705 q 370 721 388 694 q 372 760 359 741 l 555 993 l 734 760 q 739 721 748 739 q 693 705 724 694 l 627 732 l 627 557 l 822 557 l 794 624 q 811 669 785 656 q 850 665 828 678 l 1083 486 l 850 302 z "},"Ò":{"ha":979,"x_min":86,"x_max":893,"o":"m 893 488 q 864 286 893 378 q 781 126 834 193 q 653 22 728 59 q 488 -16 578 -16 q 323 21 397 -16 q 196 125 249 58 q 115 283 144 191 q 86 485 86 375 q 115 687 86 595 q 198 846 144 779 q 325 950 251 913 q 490 987 399 987 q 655 950 581 987 q 782 847 729 913 q 864 689 835 781 q 893 488 893 597 m 785 485 q 762 651 785 576 q 699 779 739 726 q 605 860 659 831 q 486 889 550 889 q 370 861 423 889 q 277 780 316 832 q 217 653 239 728 q 195 488 195 579 q 217 321 195 396 q 280 194 240 247 q 374 112 319 141 q 492 83 428 83 q 608 112 555 83 q 701 192 662 140 q 763 319 741 245 q 785 485 785 393 m 463 1035 l 253 1257 l 401 1257 l 545 1035 l 463 1035 z "},"Ú":{"ha":942,"x_min":121,"x_max":821,"o":"m 821 395 q 794 204 821 283 q 723 77 768 125 q 616 7 677 30 q 472 -16 554 -16 q 328 7 390 -16 q 219 77 265 30 q 147 204 173 125 q 121 395 121 283 l 121 972 l 229 972 l 229 397 q 290 161 229 239 q 478 83 351 83 q 657 159 602 83 q 713 395 713 235 l 713 972 l 821 972 l 821 395 m 494 1014 l 412 1014 l 555 1236 l 704 1236 l 494 1014 z "},"Û":{"ha":942,"x_min":121,"x_max":821,"o":"m 821 395 q 794 204 821 283 q 723 77 768 125 q 616 7 677 30 q 472 -16 554 -16 q 328 7 390 -16 q 219 77 265 30 q 147 204 173 125 q 121 395 121 283 l 121 972 l 229 972 l 229 397 q 290 161 229 239 q 478 83 351 83 q 657 159 602 83 q 713 395 713 235 l 713 972 l 821 972 l 821 395 m 610 1035 l 469 1178 l 329 1035 l 241 1035 l 412 1257 l 529 1257 l 700 1035 l 610 1035 z "},"Ù":{"ha":942,"x_min":121,"x_max":821,"o":"m 821 395 q 794 204 821 283 q 723 77 768 125 q 616 7 677 30 q 472 -16 554 -16 q 328 7 390 -16 q 219 77 265 30 q 147 204 173 125 q 121 395 121 283 l 121 972 l 229 972 l 229 397 q 290 161 229 239 q 478 83 351 83 q 657 159 602 83 q 713 395 713 235 l 713 972 l 821 972 l 821 395 m 445 1014 l 235 1236 l 384 1236 l 527 1014 l 445 1014 z "},"ı":{"ha":349,"x_min":122,"x_max":227,"o":"m 122 0 l 122 729 l 227 729 l 227 0 l 122 0 z "},"ˆ":{"ha":694,"x_min":118,"x_max":576,"o":"m 486 827 l 346 970 l 205 827 l 118 827 l 289 1048 l 406 1048 l 576 827 l 486 827 z "},"˜":{"ha":694,"x_min":100,"x_max":595,"o":"m 595 1011 q 583 931 595 965 q 552 875 572 897 q 507 842 532 852 q 453 831 481 831 q 400 839 425 831 q 350 866 376 847 q 312 895 325 886 q 293 909 300 905 q 266 923 278 919 q 240 928 254 928 q 205 906 218 928 q 186 835 192 884 l 100 835 q 111 915 100 881 q 142 971 123 949 q 188 1004 162 994 q 241 1015 214 1015 q 294 1007 269 1015 q 344 980 319 999 q 382 951 370 960 q 401 937 395 941 q 428 923 416 927 q 454 918 440 918 q 489 940 476 918 q 509 1011 502 962 l 595 1011 z "},"¯":{"ha":694,"x_min":158,"x_max":536,"o":"m 158 859 l 158 956 l 536 956 l 536 859 l 158 859 z "},"˘":{"ha":694,"x_min":113,"x_max":582,"o":"m 582 1048 q 562 955 579 996 q 515 886 545 914 q 443 842 486 857 q 346 827 400 827 q 253 842 295 827 q 181 886 212 857 q 133 955 151 914 q 113 1048 115 996 l 199 1048 q 242 939 205 973 q 349 904 279 904 q 452 939 413 904 q 497 1048 490 974 l 582 1048 z "},"˙":{"ha":694,"x_min":271,"x_max":424,"o":"m 424 914 q 418 885 424 899 q 401 860 412 871 q 377 844 391 850 q 347 838 363 838 q 318 844 332 838 q 293 860 304 850 q 277 885 283 871 q 271 914 271 899 q 277 944 271 930 q 293 968 283 958 q 318 985 304 979 q 347 991 332 991 q 377 985 363 991 q 401 968 391 979 q 418 944 412 958 q 424 914 424 930 z "},"˚":{"ha":694,"x_min":184,"x_max":510,"o":"m 510 994 q 498 931 510 960 q 464 879 486 901 q 412 845 442 857 q 347 832 382 832 q 282 845 312 832 q 231 879 252 857 q 197 931 209 901 q 184 994 184 960 q 197 1058 184 1028 q 231 1109 209 1087 q 282 1143 252 1131 q 347 1156 312 1156 q 412 1143 382 1156 q 464 1109 442 1131 q 498 1058 486 1087 q 510 994 510 1028 m 444 994 q 437 1034 444 1015 q 418 1065 431 1052 q 388 1086 406 1078 q 347 1093 370 1093 q 307 1086 325 1093 q 276 1065 289 1078 q 257 1034 264 1052 q 250 994 250 1015 q 257 954 250 972 q 276 923 264 936 q 307 902 289 909 q 347 895 325 895 q 388 902 370 895 q 418 923 406 909 q 437 954 431 936 q 444 994 444 972 z "},"¸":{"ha":694,"x_min":189,"x_max":518,"o":"m 310 0 l 372 0 l 349 -71 q 382 -56 363 -61 q 425 -52 400 -52 q 456 -57 439 -52 q 486 -73 472 -62 q 509 -102 500 -84 q 518 -147 518 -121 q 505 -204 518 -181 q 469 -241 492 -227 q 416 -262 446 -256 q 353 -268 387 -268 q 268 -255 311 -268 q 189 -218 226 -242 l 216 -174 q 343 -211 273 -211 q 414 -195 391 -211 q 436 -151 436 -180 q 425 -118 436 -130 q 392 -106 414 -106 q 326 -131 351 -106 l 275 -111 l 310 0 z "},"˝":{"ha":694,"x_min":103,"x_max":616,"o":"m 427 827 l 349 827 l 478 1048 l 616 1048 l 427 827 m 180 827 l 103 827 l 232 1048 l 371 1048 l 180 827 z "},"˛":{"ha":694,"x_min":168,"x_max":421,"o":"m 421 0 q 372 -29 393 -16 q 331 -58 352 -42 q 296 -97 311 -75 q 281 -143 281 -119 q 293 -175 281 -166 q 322 -184 304 -184 q 350 -179 336 -184 q 374 -164 363 -173 l 421 -233 q 366 -267 398 -256 q 297 -278 334 -278 q 249 -271 272 -278 q 208 -249 226 -263 q 179 -215 190 -235 q 168 -170 168 -195 q 182 -108 168 -135 q 217 -61 196 -81 q 260 -28 238 -42 q 317 0 281 -14 l 421 0 z "},"ˇ":{"ha":694,"x_min":118,"x_max":576,"o":"m 406 827 l 289 827 l 118 1048 l 208 1048 l 349 905 l 489 1048 l 576 1048 l 406 827 z "},"⁴":{"ha":600,"x_min":66,"x_max":551,"o":"m 377 499 l 66 499 l 66 575 l 377 978 l 470 978 l 470 589 l 551 589 l 551 499 l 470 499 l 470 361 l 377 361 l 377 499 m 377 589 l 377 832 l 188 589 l 377 589 z "},"¤":{"ha":827,"x_min":82,"x_max":751,"o":"m 454 -16 q 299 18 368 -16 q 182 116 231 52 q 108 273 134 180 q 82 485 82 366 q 109 700 82 606 q 184 858 135 793 q 303 955 233 922 q 458 987 372 987 q 551 978 509 987 q 626 950 592 969 q 690 902 661 931 q 747 832 720 873 l 667 770 q 623 825 644 802 q 576 863 601 848 q 523 885 552 878 q 456 892 494 892 q 287 825 351 892 q 200 639 223 759 l 574 639 l 574 551 l 189 551 q 188 520 188 536 q 187 488 187 505 q 188 460 187 474 q 189 433 188 447 l 574 433 l 574 346 l 199 346 q 285 150 220 220 q 457 81 350 81 q 526 89 495 81 q 584 113 557 97 q 634 153 610 129 q 682 207 658 176 l 751 146 q 694 80 724 109 q 628 29 664 50 q 550 -4 593 7 q 454 -16 507 -16 z "},"Ā":{"ha":942,"x_min":74,"x_max":868,"o":"m 868 0 l 754 0 l 671 248 l 269 248 l 184 0 l 74 0 l 411 972 l 530 972 l 868 0 m 637 346 l 471 843 l 302 346 l 637 346 m 281 1067 l 281 1164 l 660 1164 l 660 1067 l 281 1067 z "},"ā":{"ha":749,"x_min":72,"x_max":637,"o":"m 533 0 l 533 89 q 491 49 514 68 q 439 16 467 30 q 378 -7 411 1 q 306 -16 345 -16 q 221 -4 263 -16 q 146 35 179 7 q 93 107 113 62 q 72 218 72 152 q 95 323 72 279 q 157 396 119 368 q 247 438 196 425 q 351 452 297 452 q 454 439 407 452 q 533 410 500 427 l 533 496 q 494 617 533 578 q 375 657 456 657 q 269 642 317 657 q 176 602 221 627 l 138 686 q 248 728 186 712 q 382 745 311 745 q 488 731 441 745 q 569 690 536 718 q 620 616 602 661 q 637 509 637 572 l 637 0 l 533 0 m 533 326 q 496 344 515 336 q 455 357 477 352 q 406 366 433 363 q 346 368 379 368 q 220 331 265 368 q 175 225 175 294 q 186 155 175 184 q 216 106 197 125 q 263 78 235 87 q 323 69 290 69 q 390 78 359 69 q 447 101 420 86 q 495 136 473 116 q 533 179 517 156 l 533 326 m 184 859 l 184 956 l 563 956 l 563 859 l 184 859 z "},"Ă":{"ha":942,"x_min":74,"x_max":868,"o":"m 868 0 l 754 0 l 671 248 l 269 248 l 184 0 l 74 0 l 411 972 l 530 972 l 868 0 m 637 346 l 471 843 l 302 346 l 637 346 m 705 1257 q 686 1163 703 1204 q 639 1094 669 1122 q 566 1050 609 1065 q 469 1035 524 1035 q 377 1050 418 1035 q 304 1094 335 1065 q 256 1163 274 1122 q 236 1257 239 1204 l 322 1257 q 366 1147 328 1181 q 472 1112 403 1112 q 575 1147 536 1112 q 621 1257 614 1182 l 705 1257 z "},"ă":{"ha":749,"x_min":72,"x_max":637,"o":"m 533 0 l 533 89 q 491 49 514 68 q 439 16 467 30 q 378 -7 411 1 q 306 -16 345 -16 q 221 -4 263 -16 q 146 35 179 7 q 93 107 113 62 q 72 218 72 152 q 95 323 72 279 q 157 396 119 368 q 247 438 196 425 q 351 452 297 452 q 454 439 407 452 q 533 410 500 427 l 533 496 q 494 617 533 578 q 375 657 456 657 q 269 642 317 657 q 176 602 221 627 l 138 686 q 248 728 186 712 q 382 745 311 745 q 488 731 441 745 q 569 690 536 718 q 620 616 602 661 q 637 509 637 572 l 637 0 l 533 0 m 533 326 q 496 344 515 336 q 455 357 477 352 q 406 366 433 363 q 346 368 379 368 q 220 331 265 368 q 175 225 175 294 q 186 155 175 184 q 216 106 197 125 q 263 78 235 87 q 323 69 290 69 q 390 78 359 69 q 447 101 420 86 q 495 136 473 116 q 533 179 517 156 l 533 326 m 608 1048 q 589 955 606 996 q 542 886 572 914 q 469 842 512 857 q 372 827 427 827 q 280 842 321 827 q 208 886 238 857 q 159 955 177 914 q 139 1048 142 996 l 225 1048 q 269 939 231 973 q 375 904 306 904 q 478 939 439 904 q 524 1048 517 974 l 608 1048 z "},"Ą":{"ha":942,"x_min":74,"x_max":868,"o":"m 868 0 l 754 0 l 671 248 l 269 248 l 184 0 l 74 0 l 411 972 l 530 972 l 868 0 m 637 346 l 471 843 l 302 346 l 637 346 m 859 0 q 810 -29 830 -16 q 769 -58 789 -42 q 733 -97 748 -75 q 718 -143 718 -119 q 730 -175 718 -166 q 760 -184 742 -184 q 787 -179 774 -184 q 811 -164 801 -173 l 859 -233 q 803 -267 836 -256 q 734 -278 771 -278 q 686 -271 709 -278 q 645 -249 663 -263 q 616 -215 627 -235 q 606 -170 606 -195 q 620 -108 606 -135 q 654 -61 633 -81 q 697 -28 675 -42 q 754 0 719 -14 l 859 0 z "},"ą":{"ha":749,"x_min":72,"x_max":637,"o":"m 533 0 l 533 89 q 491 49 514 68 q 439 16 467 30 q 378 -7 411 1 q 306 -16 345 -16 q 221 -4 263 -16 q 146 35 179 7 q 93 107 113 62 q 72 218 72 152 q 95 323 72 279 q 157 396 119 368 q 247 438 196 425 q 351 452 297 452 q 454 439 407 452 q 533 410 500 427 l 533 496 q 494 617 533 578 q 375 657 456 657 q 269 642 317 657 q 176 602 221 627 l 138 686 q 248 728 186 712 q 382 745 311 745 q 488 731 441 745 q 569 690 536 718 q 620 616 602 661 q 637 509 637 572 l 637 0 l 533 0 m 533 326 q 496 344 515 336 q 455 357 477 352 q 406 366 433 363 q 346 368 379 368 q 220 331 265 368 q 175 225 175 294 q 186 155 175 184 q 216 106 197 125 q 263 78 235 87 q 323 69 290 69 q 390 78 359 69 q 447 101 420 86 q 495 136 473 116 q 533 179 517 156 l 533 326 m 637 0 q 589 -29 609 -16 q 548 -58 568 -42 q 512 -97 527 -75 q 497 -143 497 -119 q 509 -175 497 -166 q 538 -184 521 -184 q 566 -179 553 -184 q 590 -164 580 -173 l 637 -233 q 582 -267 614 -256 q 513 -278 550 -278 q 465 -271 488 -278 q 424 -249 442 -263 q 395 -215 406 -235 q 385 -170 385 -195 q 398 -108 385 -135 q 433 -61 412 -81 q 476 -28 454 -42 q 533 0 498 -14 l 637 0 z "},"Ć":{"ha":872,"x_min":86,"x_max":798,"o":"m 707 766 q 660 821 683 798 q 610 860 636 844 q 552 882 583 875 q 481 889 520 889 q 366 860 418 889 q 275 777 313 830 q 216 650 237 724 q 195 488 195 576 q 216 325 195 399 q 277 197 238 250 q 368 113 315 143 q 482 83 420 83 q 618 117 561 83 q 722 211 675 151 l 798 146 q 738 80 771 110 q 665 30 705 51 q 579 -4 625 8 q 479 -16 532 -16 q 368 2 420 -16 q 272 51 315 19 q 194 128 228 83 q 135 229 159 173 q 99 349 111 284 q 86 485 86 414 q 115 685 86 593 q 197 844 144 777 q 322 949 250 911 q 484 987 395 987 q 660 949 584 987 q 793 832 735 911 l 707 766 m 513 1035 l 431 1035 l 574 1257 l 722 1257 l 513 1035 z "},"ć":{"ha":688,"x_min":77,"x_max":621,"o":"m 618 86 q 570 44 595 62 q 516 12 545 25 q 455 -8 488 -1 q 383 -16 422 -16 q 268 7 323 -16 q 170 77 213 31 q 102 195 127 124 q 77 361 77 266 q 104 534 77 462 q 176 654 132 607 q 277 723 220 701 q 390 745 333 745 q 521 720 465 745 q 621 659 578 696 l 558 581 q 519 612 538 598 q 478 635 499 626 q 434 650 458 645 q 383 654 411 654 q 303 635 340 654 q 240 580 267 616 q 197 491 213 544 q 182 370 182 437 q 196 248 182 302 q 236 155 210 194 q 301 96 262 117 q 387 75 339 75 q 436 81 414 75 q 479 96 459 86 q 518 120 499 106 q 555 153 536 134 l 618 86 m 346 827 l 264 827 l 407 1048 l 555 1048 l 346 827 z "},"Ĉ":{"ha":872,"x_min":86,"x_max":798,"o":"m 707 766 q 660 821 683 798 q 610 860 636 844 q 552 882 583 875 q 481 889 520 889 q 366 860 418 889 q 275 777 313 830 q 216 650 237 724 q 195 488 195 576 q 216 325 195 399 q 277 197 238 250 q 368 113 315 143 q 482 83 420 83 q 618 117 561 83 q 722 211 675 151 l 798 146 q 738 80 771 110 q 665 30 705 51 q 579 -4 625 8 q 479 -16 532 -16 q 368 2 420 -16 q 272 51 315 19 q 194 128 228 83 q 135 229 159 173 q 99 349 111 284 q 86 485 86 414 q 115 685 86 593 q 197 844 144 777 q 322 949 250 911 q 484 987 395 987 q 660 949 584 987 q 793 832 735 911 l 707 766 m 627 1028 l 486 1171 l 346 1028 l 258 1028 l 429 1250 l 546 1250 l 717 1028 l 627 1028 z "},"ĉ":{"ha":688,"x_min":77,"x_max":621,"o":"m 618 86 q 570 44 595 62 q 516 12 545 25 q 455 -8 488 -1 q 383 -16 422 -16 q 268 7 323 -16 q 170 77 213 31 q 102 195 127 124 q 77 361 77 266 q 104 534 77 462 q 176 654 132 607 q 277 723 220 701 q 390 745 333 745 q 521 720 465 745 q 621 659 578 696 l 558 581 q 519 612 538 598 q 478 635 499 626 q 434 650 458 645 q 383 654 411 654 q 303 635 340 654 q 240 580 267 616 q 197 491 213 544 q 182 370 182 437 q 196 248 182 302 q 236 155 210 194 q 301 96 262 117 q 387 75 339 75 q 436 81 414 75 q 479 96 459 86 q 518 120 499 106 q 555 153 536 134 l 618 86 m 531 814 l 391 958 l 250 814 l 163 814 l 334 1036 l 450 1036 l 621 814 l 531 814 z "},"Ċ":{"ha":872,"x_min":86,"x_max":798,"o":"m 707 766 q 660 821 683 798 q 610 860 636 844 q 552 882 583 875 q 481 889 520 889 q 366 860 418 889 q 275 777 313 830 q 216 650 237 724 q 195 488 195 576 q 216 325 195 399 q 277 197 238 250 q 368 113 315 143 q 482 83 420 83 q 618 117 561 83 q 722 211 675 151 l 798 146 q 738 80 771 110 q 665 30 705 51 q 579 -4 625 8 q 479 -16 532 -16 q 368 2 420 -16 q 272 51 315 19 q 194 128 228 83 q 135 229 159 173 q 99 349 111 284 q 86 485 86 414 q 115 685 86 593 q 197 844 144 777 q 322 949 250 911 q 484 987 395 987 q 660 949 584 987 q 793 832 735 911 l 707 766 m 562 1122 q 555 1093 562 1107 q 539 1068 549 1079 q 514 1052 528 1058 q 485 1046 500 1046 q 455 1052 469 1046 q 431 1068 441 1058 q 414 1093 420 1079 q 408 1122 408 1107 q 414 1152 408 1138 q 431 1177 420 1166 q 455 1194 441 1187 q 485 1200 469 1200 q 514 1194 500 1200 q 539 1177 528 1187 q 555 1152 549 1166 q 562 1122 562 1138 z "},"ċ":{"ha":688,"x_min":77,"x_max":621,"o":"m 618 86 q 570 44 595 62 q 516 12 545 25 q 455 -8 488 -1 q 383 -16 422 -16 q 268 7 323 -16 q 170 77 213 31 q 102 195 127 124 q 77 361 77 266 q 104 534 77 462 q 176 654 132 607 q 277 723 220 701 q 390 745 333 745 q 521 720 465 745 q 621 659 578 696 l 558 581 q 519 612 538 598 q 478 635 499 626 q 434 650 458 645 q 383 654 411 654 q 303 635 340 654 q 240 580 267 616 q 197 491 213 544 q 182 370 182 437 q 196 248 182 302 q 236 155 210 194 q 301 96 262 117 q 387 75 339 75 q 436 81 414 75 q 479 96 459 86 q 518 120 499 106 q 555 153 536 134 l 618 86 m 469 914 q 463 885 469 899 q 446 860 456 871 q 421 844 435 850 q 392 838 408 838 q 362 844 376 838 q 338 860 349 850 q 321 885 328 871 q 315 914 315 899 q 321 944 315 930 q 338 968 328 958 q 362 985 349 979 q 392 991 376 991 q 421 985 408 991 q 446 968 435 979 q 463 944 456 958 q 469 914 469 930 z "},"Č":{"ha":872,"x_min":86,"x_max":798,"o":"m 707 766 q 660 821 683 798 q 610 860 636 844 q 552 882 583 875 q 481 889 520 889 q 366 860 418 889 q 275 777 313 830 q 216 650 237 724 q 195 488 195 576 q 216 325 195 399 q 277 197 238 250 q 368 113 315 143 q 482 83 420 83 q 618 117 561 83 q 722 211 675 151 l 798 146 q 738 80 771 110 q 665 30 705 51 q 579 -4 625 8 q 479 -16 532 -16 q 368 2 420 -16 q 272 51 315 19 q 194 128 228 83 q 135 229 159 173 q 99 349 111 284 q 86 485 86 414 q 115 685 86 593 q 197 844 144 777 q 322 949 250 911 q 484 987 395 987 q 660 949 584 987 q 793 832 735 911 l 707 766 m 545 1028 l 428 1028 l 257 1250 l 347 1250 l 488 1107 l 628 1250 l 715 1250 l 545 1028 z "},"č":{"ha":688,"x_min":77,"x_max":621,"o":"m 618 86 q 570 44 595 62 q 516 12 545 25 q 455 -8 488 -1 q 383 -16 422 -16 q 268 7 323 -16 q 170 77 213 31 q 102 195 127 124 q 77 361 77 266 q 104 534 77 462 q 176 654 132 607 q 277 723 220 701 q 390 745 333 745 q 521 720 465 745 q 621 659 578 696 l 558 581 q 519 612 538 598 q 478 635 499 626 q 434 650 458 645 q 383 654 411 654 q 303 635 340 654 q 240 580 267 616 q 197 491 213 544 q 182 370 182 437 q 196 248 182 302 q 236 155 210 194 q 301 96 262 117 q 387 75 339 75 q 436 81 414 75 q 479 96 459 86 q 518 120 499 106 q 555 153 536 134 l 618 86 m 447 827 l 330 827 l 159 1048 l 250 1048 l 390 905 l 530 1048 l 618 1048 l 447 827 z "},"Ď":{"ha":914,"x_min":127,"x_max":828,"o":"m 828 493 q 820 372 828 427 q 789 257 811 317 q 722 144 766 196 q 622 60 678 92 q 501 14 565 28 q 366 0 437 0 l 127 0 l 127 972 l 385 972 q 562 944 480 972 q 702 858 643 916 q 795 709 762 800 q 828 493 828 618 m 720 489 q 697 654 720 582 q 632 774 675 726 q 525 848 589 823 q 376 873 460 873 l 236 873 l 236 98 l 379 98 q 521 120 458 98 q 628 189 584 142 q 696 310 672 236 q 720 489 720 384 m 515 1035 l 399 1035 l 228 1257 l 318 1257 l 458 1114 l 599 1257 l 686 1257 l 515 1035 z "},"ď":{"ha":836,"x_min":77,"x_max":909,"o":"m 557 0 l 557 89 q 514 49 537 68 q 465 16 492 30 q 406 -7 438 1 q 338 -16 374 -16 q 235 6 283 -16 q 153 72 188 27 q 97 187 117 117 q 77 353 77 256 q 98 523 77 450 q 157 646 119 596 q 244 720 194 695 q 351 745 294 745 q 415 738 386 745 q 469 718 444 730 q 516 687 494 705 q 557 647 537 669 l 557 954 l 661 1013 l 661 0 l 557 0 m 557 545 q 521 588 542 568 q 475 623 500 608 q 421 646 450 637 q 359 654 392 654 q 224 578 269 654 q 179 354 179 502 q 193 229 179 283 q 232 141 206 176 q 291 91 258 106 q 364 75 324 75 q 421 83 396 75 q 470 104 446 90 q 515 136 494 117 q 557 180 536 155 l 557 545 m 819 663 l 747 663 l 768 972 l 909 972 l 819 663 z "},"Đ":{"ha":947,"x_min":56,"x_max":842,"o":"m 842 493 q 806 267 842 361 q 708 114 770 174 q 561 27 646 55 q 379 0 477 0 l 142 0 l 142 460 l 56 460 l 56 557 l 142 557 l 142 972 l 399 972 q 576 944 494 972 q 716 858 657 916 q 808 709 775 800 q 842 493 842 618 m 733 489 q 711 654 733 582 q 646 774 689 726 q 538 848 602 823 q 390 873 474 873 l 248 873 l 248 557 l 444 557 l 444 460 l 248 460 l 248 98 l 393 98 q 535 120 472 98 q 642 189 597 142 q 709 310 686 236 q 733 489 733 384 z "},"đ":{"ha":798,"x_min":77,"x_max":791,"o":"m 791 873 l 791 777 l 661 777 l 661 0 l 557 0 l 557 89 q 453 10 507 35 q 338 -16 399 -16 q 235 6 283 -16 q 153 72 188 27 q 97 187 117 117 q 77 353 77 256 q 98 523 77 450 q 157 646 119 596 q 244 720 194 695 q 351 745 294 745 q 415 738 386 745 q 469 718 444 730 q 516 687 494 705 q 557 647 537 669 l 557 777 l 414 777 l 414 873 l 557 873 l 557 954 l 661 1013 l 661 873 l 791 873 m 557 545 q 521 588 542 568 q 475 623 500 608 q 421 646 450 637 q 359 654 392 654 q 224 578 269 654 q 179 354 179 502 q 193 229 179 283 q 232 141 206 176 q 291 91 258 106 q 364 75 324 75 q 421 83 396 75 q 470 104 446 90 q 515 136 494 117 q 557 180 536 155 l 557 545 z "},"Ē":{"ha":815,"x_min":127,"x_max":736,"o":"m 736 0 l 127 0 l 127 972 l 715 972 l 715 873 l 236 873 l 236 568 l 624 568 l 624 469 l 236 469 l 236 98 l 736 98 l 736 0 m 241 1067 l 241 1164 l 620 1164 l 620 1067 l 241 1067 z "},"ē":{"ha":750,"x_min":77,"x_max":671,"o":"m 671 386 q 670 354 671 367 q 667 329 669 342 l 180 329 q 200 224 184 271 q 241 144 215 177 q 302 93 267 111 q 383 75 338 75 q 441 80 415 75 q 491 93 467 84 q 537 115 514 102 q 585 144 559 127 l 633 69 q 571 32 601 48 q 511 6 542 16 q 447 -10 481 -5 q 372 -16 414 -16 q 304 -7 339 -16 q 236 20 269 1 q 174 69 203 39 q 123 142 145 99 q 89 241 102 184 q 77 368 77 297 q 99 525 77 455 q 162 644 122 595 q 257 719 202 692 q 378 745 313 745 q 504 718 449 745 q 596 644 559 691 q 652 530 633 596 q 671 386 671 464 m 574 414 q 557 511 570 467 q 520 587 544 555 q 460 637 496 619 q 376 654 424 654 q 302 640 336 654 q 242 595 268 625 q 201 520 217 565 q 180 414 185 475 l 574 414 m 186 859 l 186 956 l 564 956 l 564 859 l 186 859 z "},"Ĕ":{"ha":815,"x_min":127,"x_max":736,"o":"m 736 0 l 127 0 l 127 972 l 715 972 l 715 873 l 236 873 l 236 568 l 624 568 l 624 469 l 236 469 l 236 98 l 736 98 l 736 0 m 656 1257 q 636 1163 653 1204 q 589 1094 619 1122 q 517 1050 559 1065 q 420 1035 474 1035 q 327 1050 369 1035 q 255 1094 286 1065 q 207 1163 224 1122 q 186 1257 189 1204 l 273 1257 q 316 1147 279 1181 q 422 1112 353 1112 q 526 1147 487 1112 q 571 1257 564 1182 l 656 1257 z "},"ĕ":{"ha":750,"x_min":77,"x_max":671,"o":"m 671 386 q 670 354 671 367 q 667 329 669 342 l 180 329 q 200 224 184 271 q 241 144 215 177 q 302 93 267 111 q 383 75 338 75 q 441 80 415 75 q 491 93 467 84 q 537 115 514 102 q 585 144 559 127 l 633 69 q 571 32 601 48 q 511 6 542 16 q 447 -10 481 -5 q 372 -16 414 -16 q 304 -7 339 -16 q 236 20 269 1 q 174 69 203 39 q 123 142 145 99 q 89 241 102 184 q 77 368 77 297 q 99 525 77 455 q 162 644 122 595 q 257 719 202 692 q 378 745 313 745 q 504 718 449 745 q 596 644 559 691 q 652 530 633 596 q 671 386 671 464 m 574 414 q 557 511 570 467 q 520 587 544 555 q 460 637 496 619 q 376 654 424 654 q 302 640 336 654 q 242 595 268 625 q 201 520 217 565 q 180 414 185 475 l 574 414 m 611 1048 q 591 955 608 996 q 545 886 574 914 q 472 842 515 857 q 375 827 429 827 q 282 842 324 827 q 210 886 241 857 q 162 955 180 914 q 142 1048 144 996 l 228 1048 q 271 939 234 973 q 378 904 309 904 q 481 939 442 904 q 526 1048 519 974 l 611 1048 z "},"Ė":{"ha":815,"x_min":127,"x_max":736,"o":"m 736 0 l 127 0 l 127 972 l 715 972 l 715 873 l 236 873 l 236 568 l 624 568 l 624 469 l 236 469 l 236 98 l 736 98 l 736 0 m 484 1122 q 477 1093 484 1107 q 461 1068 471 1079 q 436 1052 450 1058 q 407 1046 422 1046 q 377 1052 391 1046 q 353 1068 363 1058 q 336 1093 342 1079 q 330 1122 330 1107 q 336 1152 330 1138 q 353 1177 342 1166 q 377 1194 363 1187 q 407 1200 391 1200 q 436 1194 422 1200 q 461 1177 450 1187 q 477 1152 471 1166 q 484 1122 484 1138 z "},"ė":{"ha":750,"x_min":77,"x_max":671,"o":"m 671 386 q 670 354 671 367 q 667 329 669 342 l 180 329 q 200 224 184 271 q 241 144 215 177 q 302 93 267 111 q 383 75 338 75 q 441 80 415 75 q 491 93 467 84 q 537 115 514 102 q 585 144 559 127 l 633 69 q 571 32 601 48 q 511 6 542 16 q 447 -10 481 -5 q 372 -16 414 -16 q 304 -7 339 -16 q 236 20 269 1 q 174 69 203 39 q 123 142 145 99 q 89 241 102 184 q 77 368 77 297 q 99 525 77 455 q 162 644 122 595 q 257 719 202 692 q 378 745 313 745 q 504 718 449 745 q 596 644 559 691 q 652 530 633 596 q 671 386 671 464 m 574 414 q 557 511 570 467 q 520 587 544 555 q 460 637 496 619 q 376 654 424 654 q 302 640 336 654 q 242 595 268 625 q 201 520 217 565 q 180 414 185 475 l 574 414 m 452 914 q 446 885 452 899 q 429 860 439 871 q 405 844 418 850 q 375 838 391 838 q 346 844 359 838 q 321 860 332 850 q 304 885 311 871 q 298 914 298 899 q 304 944 298 930 q 321 968 311 958 q 346 985 332 979 q 375 991 359 991 q 405 985 391 991 q 429 968 418 979 q 446 944 439 958 q 452 914 452 930 z "},"Ę":{"ha":815,"x_min":127,"x_max":736,"o":"m 736 0 l 127 0 l 127 972 l 715 972 l 715 873 l 236 873 l 236 568 l 624 568 l 624 469 l 236 469 l 236 98 l 736 98 l 736 0 m 736 0 q 687 -29 707 -16 q 646 -58 667 -42 q 610 -97 625 -75 q 595 -143 595 -119 q 607 -175 595 -166 q 637 -184 619 -184 q 665 -179 651 -184 q 688 -164 678 -173 l 736 -233 q 681 -267 713 -256 q 612 -278 648 -278 q 564 -271 587 -278 q 523 -249 541 -263 q 494 -215 505 -235 q 483 -170 483 -195 q 497 -108 483 -135 q 532 -61 511 -81 q 574 -28 553 -42 q 631 0 596 -14 l 736 0 z "},"ę":{"ha":750,"x_min":77,"x_max":671,"o":"m 585 144 l 633 69 q 576 34 598 47 q 532 6 554 20 q 489 -24 511 -8 q 449 -58 467 -41 q 417 -99 431 -76 q 404 -147 404 -122 q 417 -173 404 -161 q 449 -186 429 -186 q 474 -181 462 -186 q 496 -170 486 -177 l 541 -236 q 485 -267 514 -255 q 425 -278 456 -278 q 374 -270 397 -278 q 335 -248 351 -262 q 309 -212 318 -233 q 300 -163 300 -191 q 330 -81 300 -120 q 406 -16 361 -43 q 271 4 334 -20 q 161 85 208 28 q 95 217 114 142 q 77 368 77 291 q 99 525 77 455 q 162 644 122 595 q 257 719 202 692 q 378 745 313 745 q 504 718 449 745 q 596 644 559 691 q 652 530 633 596 q 671 386 671 464 q 670 354 671 367 q 667 329 669 342 l 180 329 q 200 224 184 271 q 241 144 215 177 q 302 93 267 111 q 383 75 338 75 q 482 90 437 75 q 585 144 526 104 m 574 414 q 557 511 570 467 q 520 587 544 555 q 460 637 496 619 q 376 654 425 654 q 302 640 336 654 q 242 595 268 625 q 201 520 217 565 q 180 414 185 475 l 574 414 z "},"Ě":{"ha":815,"x_min":127,"x_max":736,"o":"m 736 0 l 127 0 l 127 972 l 715 972 l 715 873 l 236 873 l 236 568 l 624 568 l 624 469 l 236 469 l 236 98 l 736 98 l 736 0 m 477 1035 l 361 1035 l 190 1257 l 280 1257 l 420 1114 l 561 1257 l 648 1257 l 477 1035 z "},"ě":{"ha":750,"x_min":77,"x_max":671,"o":"m 671 386 q 670 354 671 367 q 667 329 669 342 l 180 329 q 200 224 184 271 q 241 144 215 177 q 302 93 267 111 q 383 75 338 75 q 441 80 415 75 q 491 93 467 84 q 537 115 514 102 q 585 144 559 127 l 633 69 q 571 32 601 48 q 511 6 542 16 q 447 -10 481 -5 q 372 -16 414 -16 q 304 -7 339 -16 q 236 20 269 1 q 174 69 203 39 q 123 142 145 99 q 89 241 102 184 q 77 368 77 297 q 99 525 77 455 q 162 644 122 595 q 257 719 202 692 q 378 745 313 745 q 504 718 449 745 q 596 644 559 691 q 652 530 633 596 q 671 386 671 464 m 574 414 q 557 511 570 467 q 520 587 544 555 q 460 637 496 619 q 376 654 424 654 q 302 640 336 654 q 242 595 268 625 q 201 520 217 565 q 180 414 185 475 l 574 414 m 433 827 l 317 827 l 146 1048 l 236 1048 l 376 905 l 517 1048 l 604 1048 l 433 827 z "},"Ĝ":{"ha":916,"x_min":86,"x_max":839,"o":"m 839 387 q 812 211 839 287 q 736 85 785 136 q 623 10 688 35 q 479 -16 557 -16 q 311 26 386 -16 q 187 136 235 68 q 113 289 139 203 q 86 485 87 375 q 115 685 86 593 q 197 844 144 777 q 322 949 250 911 q 484 987 395 987 q 660 949 584 987 q 793 832 735 911 l 707 766 q 660 821 683 798 q 610 860 636 844 q 552 882 583 875 q 481 889 520 889 q 366 860 418 889 q 275 777 313 830 q 216 650 237 724 q 195 488 195 576 q 217 325 195 399 q 277 197 239 250 q 369 113 316 143 q 482 83 421 83 q 669 157 604 83 q 733 374 733 230 l 733 382 l 558 382 l 558 482 l 839 482 l 839 387 m 627 1028 l 486 1171 l 346 1028 l 258 1028 l 429 1250 l 546 1250 l 717 1028 l 627 1028 z "},"ĝ":{"ha":777,"x_min":77,"x_max":661,"o":"m 661 65 q 642 -76 661 -13 q 576 -180 622 -138 q 459 -242 534 -220 q 269 -268 384 -264 l 243 -183 q 408 -170 347 -183 q 497 -132 469 -156 q 542 -60 528 -106 q 557 52 557 -14 l 557 89 q 514 49 537 68 q 465 16 492 30 q 406 -7 438 1 q 338 -16 374 -16 q 235 6 283 -16 q 153 72 188 27 q 97 187 117 117 q 77 353 77 256 q 98 523 77 450 q 157 646 119 596 q 244 720 194 695 q 351 745 294 745 q 415 738 386 745 q 469 718 444 730 q 516 687 494 705 q 557 647 537 669 l 557 729 l 661 729 l 661 65 m 364 75 q 470 104 422 75 q 557 180 518 132 l 557 545 q 521 588 542 568 q 475 623 500 608 q 421 646 450 637 q 359 654 392 654 q 224 578 269 654 q 179 354 179 502 q 228 146 179 216 q 364 75 277 75 m 531 814 l 391 958 l 250 814 l 163 814 l 334 1036 l 450 1036 l 621 814 l 531 814 z "},"Ğ":{"ha":916,"x_min":86,"x_max":839,"o":"m 839 387 q 812 211 839 287 q 736 85 785 136 q 623 10 688 35 q 479 -16 557 -16 q 311 26 386 -16 q 187 136 235 68 q 113 289 139 203 q 86 485 87 375 q 115 685 86 593 q 197 844 144 777 q 322 949 250 911 q 484 987 395 987 q 660 949 584 987 q 793 832 735 911 l 707 766 q 660 821 683 798 q 610 860 636 844 q 552 882 583 875 q 481 889 520 889 q 366 860 418 889 q 275 777 313 830 q 216 650 237 724 q 195 488 195 576 q 217 325 195 399 q 277 197 239 250 q 369 113 316 143 q 482 83 421 83 q 669 157 604 83 q 733 374 733 230 l 733 382 l 558 382 l 558 482 l 839 482 l 839 387 m 722 1250 q 703 1157 720 1198 q 656 1087 686 1116 q 583 1043 626 1059 q 486 1028 541 1028 q 394 1043 435 1028 q 321 1087 352 1059 q 273 1157 291 1116 q 253 1250 256 1198 l 339 1250 q 382 1140 345 1175 q 489 1105 420 1105 q 592 1140 553 1105 q 637 1250 631 1175 l 722 1250 z "},"ğ":{"ha":777,"x_min":77,"x_max":661,"o":"m 661 65 q 642 -76 661 -13 q 576 -180 622 -138 q 459 -242 534 -220 q 269 -268 384 -264 l 243 -183 q 408 -170 347 -183 q 497 -132 469 -156 q 542 -60 528 -106 q 557 52 557 -14 l 557 89 q 514 49 537 68 q 465 16 492 30 q 406 -7 438 1 q 338 -16 374 -16 q 235 6 283 -16 q 153 72 188 27 q 97 187 117 117 q 77 353 77 256 q 98 523 77 450 q 157 646 119 596 q 244 720 194 695 q 351 745 294 745 q 415 738 386 745 q 469 718 444 730 q 516 687 494 705 q 557 647 537 669 l 557 729 l 661 729 l 661 65 m 364 75 q 470 104 422 75 q 557 180 518 132 l 557 545 q 521 588 542 568 q 475 623 500 608 q 421 646 450 637 q 359 654 392 654 q 224 578 269 654 q 179 354 179 502 q 228 146 179 216 q 364 75 277 75 m 622 1048 q 602 955 619 996 q 555 886 585 914 q 483 842 526 857 q 386 827 440 827 q 293 842 335 827 q 221 886 252 857 q 173 955 191 914 q 153 1048 155 996 l 239 1048 q 282 939 245 973 q 389 904 319 904 q 492 939 453 904 q 537 1048 530 974 l 622 1048 z "},"Ġ":{"ha":916,"x_min":86,"x_max":839,"o":"m 839 387 q 812 211 839 287 q 736 85 785 136 q 623 10 688 35 q 479 -16 557 -16 q 311 26 386 -16 q 187 136 235 68 q 113 289 139 203 q 86 485 87 375 q 115 685 86 593 q 197 844 144 777 q 322 949 250 911 q 484 987 395 987 q 660 949 584 987 q 793 832 735 911 l 707 766 q 660 821 683 798 q 610 860 636 844 q 552 882 583 875 q 481 889 520 889 q 366 860 418 889 q 275 777 313 830 q 216 650 237 724 q 195 488 195 576 q 217 325 195 399 q 277 197 239 250 q 369 113 316 143 q 482 83 421 83 q 669 157 604 83 q 733 374 733 230 l 733 382 l 558 382 l 558 482 l 839 482 l 839 387 m 562 1122 q 555 1093 562 1107 q 539 1068 549 1079 q 514 1052 528 1058 q 485 1046 500 1046 q 455 1052 469 1046 q 431 1068 441 1058 q 414 1093 420 1079 q 408 1122 408 1107 q 414 1152 408 1138 q 431 1177 420 1166 q 455 1194 441 1187 q 485 1200 469 1200 q 514 1194 500 1200 q 539 1177 528 1187 q 555 1152 549 1166 q 562 1122 562 1138 z "},"ġ":{"ha":777,"x_min":77,"x_max":661,"o":"m 661 65 q 642 -76 661 -13 q 576 -180 622 -138 q 459 -242 534 -220 q 269 -268 384 -264 l 243 -183 q 408 -170 347 -183 q 497 -132 469 -156 q 542 -60 528 -106 q 557 52 557 -14 l 557 89 q 514 49 537 68 q 465 16 492 30 q 406 -7 438 1 q 338 -16 374 -16 q 235 6 283 -16 q 153 72 188 27 q 97 187 117 117 q 77 353 77 256 q 98 523 77 450 q 157 646 119 596 q 244 720 194 695 q 351 745 294 745 q 415 738 386 745 q 469 718 444 730 q 516 687 494 705 q 557 647 537 669 l 557 729 l 661 729 l 661 65 m 364 75 q 470 104 422 75 q 557 180 518 132 l 557 545 q 521 588 542 568 q 475 623 500 608 q 421 646 450 637 q 359 654 392 654 q 224 578 269 654 q 179 354 179 502 q 228 146 179 216 q 364 75 277 75 m 448 914 q 441 885 448 899 q 425 860 435 871 q 400 844 414 850 q 371 838 387 838 q 341 844 355 838 q 317 860 328 850 q 300 885 307 871 q 294 914 294 899 q 300 944 294 930 q 317 968 307 958 q 341 985 328 979 q 371 991 355 991 q 400 985 387 991 q 425 968 414 979 q 441 944 435 958 q 448 914 448 930 z "},"Ģ":{"ha":916,"x_min":86,"x_max":839,"o":"m 839 387 q 812 211 839 287 q 736 85 785 136 q 623 10 688 35 q 479 -16 557 -16 q 311 26 386 -16 q 187 136 235 68 q 113 289 139 203 q 86 485 87 375 q 115 685 86 593 q 197 844 144 777 q 322 949 250 911 q 484 987 395 987 q 660 949 584 987 q 793 832 735 911 l 707 766 q 660 821 683 798 q 610 860 636 844 q 552 882 583 875 q 481 889 520 889 q 366 860 418 889 q 275 777 313 830 q 216 650 237 724 q 195 488 195 576 q 217 325 195 399 q 277 197 239 250 q 369 113 316 143 q 482 83 421 83 q 669 157 604 83 q 733 374 733 230 l 733 382 l 558 382 l 558 482 l 839 482 l 839 387 m 444 -333 l 387 -333 l 403 -72 l 518 -72 l 444 -333 z "},"ģ":{"ha":777,"x_min":77,"x_max":661,"o":"m 661 65 q 642 -76 661 -13 q 576 -180 622 -138 q 459 -242 534 -220 q 269 -268 384 -264 l 243 -183 q 408 -170 347 -183 q 497 -132 469 -156 q 542 -60 528 -106 q 557 52 557 -14 l 557 89 q 514 49 537 68 q 465 16 492 30 q 406 -7 438 1 q 338 -16 374 -16 q 235 6 283 -16 q 153 72 188 27 q 97 187 117 117 q 77 353 77 256 q 98 523 77 450 q 157 646 119 596 q 244 720 194 695 q 351 745 294 745 q 415 738 386 745 q 469 718 444 730 q 516 687 494 705 q 557 647 537 669 l 557 729 l 661 729 l 661 65 m 364 75 q 470 104 422 75 q 557 180 518 132 l 557 545 q 521 588 542 568 q 475 623 500 608 q 421 646 450 637 q 359 654 392 654 q 224 578 269 654 q 179 354 179 502 q 228 146 179 216 q 364 75 277 75 m 408 1139 l 472 1139 l 453 850 l 326 850 l 408 1139 z "},"Ĥ":{"ha":956,"x_min":127,"x_max":828,"o":"m 720 0 l 720 458 l 236 458 l 236 0 l 127 0 l 127 972 l 236 972 l 236 557 l 720 557 l 720 972 l 828 972 l 828 0 l 720 0 m 617 1035 l 477 1178 l 336 1035 l 249 1035 l 420 1257 l 536 1257 l 707 1035 l 617 1035 z "},"ĥ":{"ha":787,"x_min":115,"x_max":676,"o":"m 572 0 l 572 427 q 530 600 572 545 q 400 654 488 654 q 329 641 362 654 q 272 600 296 628 q 234 529 248 572 q 220 427 220 486 l 220 0 l 115 0 l 115 954 l 220 1013 l 220 640 q 256 682 235 663 q 301 715 276 701 q 357 737 327 729 q 421 745 387 745 q 526 727 479 745 q 606 673 573 710 q 658 580 640 637 q 676 444 676 523 l 676 0 l 572 0 m 536 1025 l 395 1168 l 255 1025 l 168 1025 l 338 1247 l 455 1247 l 626 1025 l 536 1025 z "},"Ħ":{"ha":956,"x_min":58,"x_max":898,"o":"m 720 0 l 720 458 l 236 458 l 236 0 l 127 0 l 127 732 l 58 732 l 58 830 l 127 830 l 127 972 l 236 972 l 236 830 l 720 830 l 720 972 l 828 972 l 828 830 l 898 830 l 898 732 l 828 732 l 828 0 l 720 0 m 720 557 l 720 732 l 236 732 l 236 557 l 720 557 z "},"ħ":{"ha":787,"x_min":-8,"x_max":676,"o":"m 572 0 l 572 427 q 563 526 572 484 q 532 596 553 568 q 479 640 511 625 q 400 654 446 654 q 268 596 317 654 q 220 427 220 538 l 220 0 l 115 0 l 115 791 l -8 791 l -8 878 l 115 878 l 115 954 l 220 1013 l 220 878 l 355 878 l 355 791 l 220 791 l 220 640 q 256 682 235 663 q 301 715 276 701 q 357 737 327 729 q 421 745 387 745 q 613 666 549 745 q 676 444 676 587 l 676 0 l 572 0 z "},"Ĩ":{"ha":378,"x_min":-57,"x_max":438,"o":"m 135 0 l 135 972 l 243 972 l 243 0 l 135 0 m 438 1225 q 427 1145 438 1179 q 395 1088 415 1111 q 350 1055 376 1066 q 296 1044 324 1044 q 244 1053 269 1044 q 194 1080 219 1061 q 156 1109 168 1099 q 136 1122 143 1118 q 110 1137 121 1133 q 83 1141 98 1141 q 48 1120 61 1141 q 29 1048 35 1098 l -57 1048 q -45 1128 -57 1095 q -14 1185 -34 1162 q 31 1218 5 1207 q 85 1229 57 1229 q 137 1221 113 1229 q 188 1193 162 1213 q 225 1164 213 1174 q 245 1151 238 1155 q 272 1136 260 1141 q 298 1132 283 1132 q 332 1154 319 1132 q 352 1225 345 1176 l 438 1225 z "},"ĩ":{"ha":349,"x_min":-73,"x_max":422,"o":"m 122 0 l 122 729 l 227 729 l 227 0 l 122 0 m 422 1011 q 411 931 422 965 q 380 875 399 897 q 334 842 360 852 q 281 831 309 831 q 228 839 253 831 q 178 866 203 847 q 140 895 153 886 q 121 909 127 905 q 94 923 106 919 q 68 928 82 928 q 33 906 45 928 q 14 835 20 884 l -73 835 q -61 915 -73 881 q -30 971 -50 949 q 16 1004 -10 994 q 69 1015 41 1015 q 122 1007 97 1015 q 172 980 146 999 q 210 951 197 960 q 229 937 222 941 q 256 923 244 927 q 282 918 268 918 q 317 940 304 918 q 336 1011 330 962 l 422 1011 z "},"Ī":{"ha":378,"x_min":1,"x_max":380,"o":"m 135 0 l 135 972 l 243 972 l 243 0 l 135 0 m 1 1067 l 1 1164 l 380 1164 l 380 1067 l 1 1067 z "},"ī":{"ha":349,"x_min":-14,"x_max":364,"o":"m 122 0 l 122 729 l 227 729 l 227 0 l 122 0 m -14 859 l -14 956 l 364 956 l 364 859 l -14 859 z "},"Ĭ":{"ha":378,"x_min":-44,"x_max":425,"o":"m 135 0 l 135 972 l 243 972 l 243 0 l 135 0 m 425 1257 q 406 1163 422 1204 q 359 1094 389 1122 q 286 1050 329 1065 q 189 1035 243 1035 q 97 1050 138 1035 q 24 1094 55 1065 q -24 1163 -6 1122 q -44 1257 -41 1204 l 42 1257 q 85 1147 48 1181 q 192 1112 123 1112 q 295 1147 256 1112 q 340 1257 334 1182 l 425 1257 z "},"ĭ":{"ha":349,"x_min":-60,"x_max":410,"o":"m 122 0 l 122 729 l 227 729 l 227 0 l 122 0 m 410 1048 q 390 955 407 996 q 343 886 373 914 q 271 842 313 857 q 174 827 228 827 q 81 842 123 827 q 9 886 39 857 q -39 955 -22 914 q -60 1048 -57 996 l 26 1048 q 70 939 33 973 q 176 904 107 904 q 279 939 241 904 q 325 1048 318 974 l 410 1048 z "},"Į":{"ha":378,"x_min":-12,"x_max":243,"o":"m 135 0 l 135 972 l 243 972 l 243 0 l 135 0 m 241 0 q 193 -29 213 -16 q 152 -58 172 -42 q 116 -97 131 -75 q 101 -143 101 -119 q 113 -175 101 -166 q 142 -184 125 -184 q 170 -179 157 -184 q 194 -164 184 -173 l 241 -233 q 186 -267 218 -256 q 117 -278 154 -278 q 69 -271 92 -278 q 28 -249 46 -263 q -1 -215 10 -235 q -12 -170 -12 -195 q 2 -108 -12 -135 q 37 -61 16 -81 q 80 -28 58 -42 q 137 0 102 -14 l 241 0 z "},"į":{"ha":349,"x_min":-25,"x_max":249,"o":"m 249 933 q 243 905 249 918 q 227 882 237 892 q 204 866 217 871 q 176 860 191 860 q 146 866 160 860 q 122 882 132 871 q 106 905 112 892 q 100 933 100 918 q 106 963 100 949 q 122 987 112 977 q 146 1003 132 997 q 176 1008 160 1008 q 204 1003 191 1008 q 227 987 217 997 q 243 963 237 977 q 249 933 249 949 m 122 0 l 122 729 l 227 729 l 227 0 l 122 0 m 228 0 q 179 -29 199 -16 q 138 -58 159 -42 q 102 -97 117 -75 q 87 -143 87 -119 q 99 -175 87 -166 q 129 -184 111 -184 q 157 -179 143 -184 q 180 -164 170 -173 l 228 -233 q 173 -267 205 -256 q 104 -278 140 -278 q 56 -271 79 -278 q 15 -249 33 -263 q -14 -215 -3 -235 q -25 -170 -25 -195 q -11 -108 -25 -135 q 24 -61 3 -81 q 66 -28 45 -42 q 123 0 88 -14 l 228 0 z "},"İ":{"ha":378,"x_min":114,"x_max":267,"o":"m 135 0 l 135 972 l 243 972 l 243 0 l 135 0 m 267 1122 q 261 1093 267 1107 q 244 1068 255 1079 q 220 1052 234 1058 q 191 1046 206 1046 q 161 1052 175 1046 q 137 1068 147 1058 q 120 1093 126 1079 q 114 1122 114 1107 q 120 1152 114 1138 q 137 1177 126 1166 q 161 1194 147 1187 q 191 1200 175 1200 q 220 1194 206 1200 q 244 1177 234 1187 q 261 1152 255 1166 q 267 1122 267 1138 z "},"Ĳ":{"ha":1181,"x_min":135,"x_max":1060,"o":"m 135 0 l 135 972 l 243 972 l 243 0 l 135 0 m 1060 372 q 978 81 1060 178 q 728 -16 895 -16 q 617 0 666 -16 q 531 45 569 15 q 466 119 494 75 q 419 220 438 163 l 522 254 q 555 183 536 214 q 598 129 573 151 q 656 95 623 107 q 732 83 688 83 q 832 100 790 83 q 900 153 873 117 q 939 244 926 189 q 951 376 951 300 l 951 972 l 1060 972 l 1060 372 z "},"ĳ":{"ha":697,"x_min":100,"x_max":597,"o":"m 249 933 q 243 905 249 918 q 227 882 237 892 q 204 866 217 871 q 176 860 191 860 q 146 866 160 860 q 122 882 132 871 q 106 905 112 892 q 100 933 100 918 q 106 963 100 949 q 122 987 112 977 q 146 1003 132 997 q 176 1008 160 1008 q 204 1003 191 1008 q 227 987 217 997 q 243 963 237 977 q 249 933 249 949 m 122 0 l 122 729 l 227 729 l 227 0 l 122 0 m 597 933 q 592 905 597 918 q 576 882 586 892 q 552 866 566 871 q 525 860 539 860 q 495 866 509 860 q 471 882 481 871 q 454 905 460 892 q 448 933 448 918 q 454 963 448 949 q 471 987 460 977 q 495 1003 481 997 q 525 1008 509 1008 q 552 1003 539 1008 q 576 987 566 997 q 592 963 586 977 q 597 933 597 949 m 575 17 q 567 -92 575 -45 q 536 -171 559 -138 q 471 -228 513 -205 q 359 -268 429 -251 l 325 -191 q 404 -160 374 -176 q 448 -121 433 -144 q 467 -65 463 -98 q 471 18 471 -32 l 471 729 l 575 729 l 575 17 z "},"Ĵ":{"ha":803,"x_min":41,"x_max":853,"o":"m 682 372 q 600 81 682 178 q 350 -16 517 -16 q 240 0 288 -16 q 154 45 191 15 q 88 119 116 75 q 41 220 60 163 l 144 254 q 177 183 159 214 q 220 129 195 151 q 278 95 245 107 q 354 83 311 83 q 454 100 412 83 q 522 153 496 117 q 561 244 549 189 q 574 376 574 300 l 574 972 l 682 972 l 682 372 m 763 1028 l 623 1171 l 482 1028 l 395 1028 l 566 1250 l 682 1250 l 853 1028 l 763 1028 z "},"ĵ":{"ha":349,"x_min":-56,"x_max":403,"o":"m 227 17 q 219 -92 227 -45 q 188 -171 211 -138 q 122 -228 164 -205 q 11 -268 80 -251 l -24 -191 q 55 -160 26 -176 q 99 -121 84 -144 q 118 -65 114 -98 q 122 18 122 -32 l 122 729 l 227 729 l 227 17 m 313 827 l 172 970 l 32 827 l -56 827 l 115 1048 l 232 1048 l 403 827 l 313 827 z "},"Ķ":{"ha":892,"x_min":127,"x_max":832,"o":"m 832 0 l 708 0 l 421 518 l 236 279 l 236 0 l 127 0 l 127 972 l 236 972 l 236 424 l 660 972 l 778 972 l 493 607 l 832 0 m 432 -333 l 375 -333 l 391 -72 l 507 -72 l 432 -333 z "},"ķ":{"ha":701,"x_min":115,"x_max":643,"o":"m 530 0 l 346 383 l 220 210 l 220 0 l 115 0 l 115 954 l 220 1013 l 220 348 l 488 729 l 604 729 l 412 471 l 643 0 l 530 0 m 336 -333 l 279 -333 l 296 -72 l 411 -72 l 336 -333 z "},"ĸ":{"ha":701,"x_min":115,"x_max":643,"o":"m 530 0 l 346 383 l 220 210 l 220 0 l 115 0 l 115 729 l 220 729 l 220 349 l 488 729 l 604 729 l 412 471 l 643 0 l 530 0 z "},"Ĺ":{"ha":799,"x_min":127,"x_max":717,"o":"m 127 0 l 127 972 l 236 972 l 236 98 l 717 98 l 717 0 l 127 0 m 216 1035 l 134 1035 l 277 1257 l 426 1257 l 216 1035 z "},"ĺ":{"ha":349,"x_min":122,"x_max":416,"o":"m 122 0 l 122 954 l 227 1013 l 227 0 l 122 0 m 207 1084 l 125 1084 l 268 1305 l 416 1305 l 207 1084 z "},"Ļ":{"ha":799,"x_min":127,"x_max":717,"o":"m 127 0 l 127 972 l 236 972 l 236 98 l 717 98 l 717 0 l 127 0 m 385 -333 l 328 -333 l 345 -72 l 460 -72 l 385 -333 z "},"ļ":{"ha":349,"x_min":103,"x_max":235,"o":"m 122 0 l 122 954 l 227 1013 l 227 0 l 122 0 m 160 -333 l 103 -333 l 119 -72 l 235 -72 l 160 -333 z "},"Ľ":{"ha":799,"x_min":127,"x_max":717,"o":"m 127 0 l 127 972 l 236 972 l 236 98 l 717 98 l 717 0 l 127 0 m 422 800 l 350 800 l 370 1110 l 512 1110 l 422 800 z "},"ľ":{"ha":400,"x_min":122,"x_max":473,"o":"m 122 0 l 122 954 l 227 1013 l 227 0 l 122 0 m 383 663 l 311 663 l 332 972 l 473 972 l 383 663 z "},"Ŀ":{"ha":799,"x_min":127,"x_max":717,"o":"m 127 0 l 127 972 l 236 972 l 236 98 l 717 98 l 717 0 l 127 0 m 614 510 q 607 475 614 492 q 587 447 600 459 q 559 428 575 435 q 525 421 543 421 q 490 428 507 421 q 462 447 474 435 q 443 475 450 459 q 436 510 436 492 q 443 545 436 528 q 462 574 450 561 q 490 594 474 587 q 525 602 507 602 q 559 594 543 602 q 587 574 575 587 q 607 545 600 561 q 614 510 614 528 z "},"ŀ":{"ha":682,"x_min":122,"x_max":604,"o":"m 122 0 l 122 954 l 227 1013 l 227 0 l 122 0 m 604 510 q 597 475 604 492 q 578 447 590 459 q 549 428 566 435 q 515 421 533 421 q 481 428 497 421 q 453 447 465 435 q 434 475 441 459 q 427 510 427 492 q 434 545 427 528 q 453 574 441 561 q 481 594 465 587 q 515 602 497 602 q 549 594 533 602 q 578 574 566 587 q 597 545 590 561 q 604 510 604 528 z "},"Ń":{"ha":956,"x_min":127,"x_max":828,"o":"m 828 0 l 726 0 l 232 774 l 232 0 l 127 0 l 127 972 l 233 972 l 724 183 l 724 972 l 828 972 l 828 0 m 454 1035 l 372 1035 l 515 1257 l 664 1257 l 454 1035 z "},"ń":{"ha":790,"x_min":115,"x_max":676,"o":"m 572 0 l 572 427 q 530 600 572 545 q 400 654 488 654 q 329 641 362 654 q 272 600 296 628 q 234 529 248 572 q 220 427 220 486 l 220 0 l 115 0 l 115 729 l 220 729 l 220 640 q 256 682 235 663 q 301 715 276 701 q 357 737 327 729 q 421 745 387 745 q 526 727 479 745 q 606 673 573 710 q 658 580 640 637 q 676 444 676 523 l 676 0 l 572 0 m 431 827 l 349 827 l 492 1048 l 640 1048 l 431 827 z "},"Ņ":{"ha":956,"x_min":127,"x_max":828,"o":"m 828 0 l 726 0 l 232 774 l 232 0 l 127 0 l 127 972 l 233 972 l 724 183 l 724 972 l 828 972 l 828 0 m 465 -333 l 408 -333 l 424 -72 l 539 -72 l 465 -333 z "},"ņ":{"ha":790,"x_min":115,"x_max":676,"o":"m 572 0 l 572 427 q 530 600 572 545 q 400 654 488 654 q 329 641 362 654 q 272 600 296 628 q 234 529 248 572 q 220 427 220 486 l 220 0 l 115 0 l 115 729 l 220 729 l 220 640 q 256 682 235 663 q 301 715 276 701 q 357 737 327 729 q 421 745 387 745 q 526 727 479 745 q 606 673 573 710 q 658 580 640 637 q 676 444 676 523 l 676 0 l 572 0 m 380 -333 l 323 -333 l 339 -72 l 454 -72 l 380 -333 z "},"Ň":{"ha":956,"x_min":127,"x_max":828,"o":"m 828 0 l 726 0 l 232 774 l 232 0 l 127 0 l 127 972 l 233 972 l 724 183 l 724 972 l 828 972 l 828 0 m 536 1035 l 420 1035 l 249 1257 l 339 1257 l 479 1114 l 620 1257 l 707 1257 l 536 1035 z "},"ň":{"ha":790,"x_min":115,"x_max":676,"o":"m 572 0 l 572 427 q 530 600 572 545 q 400 654 488 654 q 329 641 362 654 q 272 600 296 628 q 234 529 248 572 q 220 427 220 486 l 220 0 l 115 0 l 115 729 l 220 729 l 220 640 q 256 682 235 663 q 301 715 276 701 q 357 737 327 729 q 421 745 387 745 q 526 727 479 745 q 606 673 573 710 q 658 580 640 637 q 676 444 676 523 l 676 0 l 572 0 m 452 827 l 335 827 l 164 1048 l 254 1048 l 395 905 l 535 1048 l 623 1048 l 452 827 z "},"ŉ":{"ha":1104,"x_min":104,"x_max":990,"o":"m 886 0 l 886 427 q 844 600 886 545 q 714 654 802 654 q 643 641 676 654 q 586 600 610 628 q 548 529 562 572 q 534 427 534 486 l 534 0 l 429 0 l 429 729 l 534 729 l 534 640 q 570 682 549 663 q 615 715 590 701 q 671 737 641 729 q 735 745 701 745 q 840 727 793 745 q 920 673 887 710 q 972 580 954 637 q 990 444 990 523 l 990 0 l 886 0 m 176 663 l 104 663 l 125 972 l 267 972 l 176 663 z "},"Ŋ":{"ha":956,"x_min":127,"x_max":828,"o":"m 828 0 q 819 -101 828 -58 q 786 -175 810 -144 q 720 -229 762 -207 q 612 -268 678 -252 l 578 -191 q 654 -160 625 -176 q 697 -124 682 -145 q 718 -72 713 -102 q 724 4 723 -41 l 232 774 l 232 0 l 127 0 l 127 972 l 233 972 l 724 183 l 724 972 l 828 972 l 828 0 z "},"ŋ":{"ha":790,"x_min":115,"x_max":676,"o":"m 220 0 l 115 0 l 115 729 l 220 729 l 220 640 q 256 682 235 663 q 301 715 276 701 q 357 737 327 729 q 421 745 387 745 q 526 727 479 745 q 606 673 573 710 q 658 580 640 637 q 676 444 676 523 l 676 17 q 668 -92 676 -45 q 637 -171 661 -138 q 572 -228 614 -205 q 461 -268 530 -251 l 427 -191 q 502 -161 473 -176 q 546 -125 530 -146 q 567 -74 562 -104 q 572 0 572 -44 l 572 427 q 530 600 572 545 q 400 654 488 654 q 329 641 362 654 q 272 600 296 628 q 234 529 248 572 q 220 427 220 486 l 220 0 z "},"Ō":{"ha":979,"x_min":86,"x_max":893,"o":"m 893 488 q 864 286 893 378 q 781 126 834 193 q 653 22 728 59 q 488 -16 578 -16 q 323 21 397 -16 q 196 125 249 58 q 115 283 144 191 q 86 485 86 375 q 115 687 86 595 q 198 846 144 779 q 325 950 251 913 q 490 987 399 987 q 655 950 581 987 q 782 847 729 913 q 864 689 835 781 q 893 488 893 597 m 785 485 q 762 651 785 576 q 699 779 739 726 q 605 860 659 831 q 486 889 550 889 q 370 861 423 889 q 277 780 316 832 q 217 653 239 728 q 195 488 195 579 q 217 321 195 396 q 280 194 240 247 q 374 112 319 141 q 492 83 428 83 q 608 112 555 83 q 701 192 662 140 q 763 319 741 245 q 785 485 785 393 m 300 1067 l 300 1164 l 678 1164 l 678 1067 l 300 1067 z "},"ō":{"ha":786,"x_min":77,"x_max":710,"o":"m 710 370 q 685 205 710 277 q 617 84 660 133 q 515 10 574 35 q 390 -16 457 -16 q 266 9 323 -16 q 167 81 209 33 q 101 200 125 130 q 77 364 77 271 q 101 528 77 456 q 170 647 126 599 q 271 720 213 695 q 396 745 330 745 q 520 721 463 745 q 620 650 577 697 q 686 532 662 602 q 710 370 710 462 m 606 367 q 590 493 606 439 q 547 583 574 547 q 480 636 519 618 q 393 654 441 654 q 307 636 346 654 q 240 583 268 618 q 197 493 212 547 q 182 367 182 439 q 197 240 182 295 q 240 149 212 186 q 307 94 268 113 q 393 75 346 75 q 480 94 441 75 q 547 149 519 113 q 590 240 574 186 q 606 367 606 295 m 204 859 l 204 956 l 583 956 l 583 859 l 204 859 z "},"Ŏ":{"ha":979,"x_min":86,"x_max":893,"o":"m 893 488 q 864 286 893 378 q 781 126 834 193 q 653 22 728 59 q 488 -16 578 -16 q 323 21 397 -16 q 196 125 249 58 q 115 283 144 191 q 86 485 86 375 q 115 687 86 595 q 198 846 144 779 q 325 950 251 913 q 490 987 399 987 q 655 950 581 987 q 782 847 729 913 q 864 689 835 781 q 893 488 893 597 m 785 485 q 762 651 785 576 q 699 779 739 726 q 605 860 659 831 q 486 889 550 889 q 370 861 423 889 q 277 780 316 832 q 217 653 239 728 q 195 488 195 579 q 217 321 195 396 q 280 194 240 247 q 374 112 319 141 q 492 83 428 83 q 608 112 555 83 q 701 192 662 140 q 763 319 741 245 q 785 485 785 393 m 722 1250 q 703 1157 720 1198 q 656 1087 686 1116 q 583 1043 626 1059 q 486 1028 541 1028 q 394 1043 435 1028 q 321 1087 352 1059 q 273 1157 291 1116 q 253 1250 256 1198 l 339 1250 q 382 1140 345 1175 q 489 1105 420 1105 q 592 1140 553 1105 q 637 1250 631 1175 l 722 1250 z "},"ŏ":{"ha":786,"x_min":77,"x_max":710,"o":"m 710 370 q 685 205 710 277 q 617 84 660 133 q 515 10 574 35 q 390 -16 457 -16 q 266 9 323 -16 q 167 81 209 33 q 101 200 125 130 q 77 364 77 271 q 101 528 77 456 q 170 647 126 599 q 271 720 213 695 q 396 745 330 745 q 520 721 463 745 q 620 650 577 697 q 686 532 662 602 q 710 370 710 462 m 606 367 q 590 493 606 439 q 547 583 574 547 q 480 636 519 618 q 393 654 441 654 q 307 636 346 654 q 240 583 268 618 q 197 493 212 547 q 182 367 182 439 q 197 240 182 295 q 240 149 212 186 q 307 94 268 113 q 393 75 346 75 q 480 94 441 75 q 547 149 519 113 q 590 240 574 186 q 606 367 606 295 m 628 1048 q 608 955 625 996 q 562 886 591 914 q 489 842 532 857 q 392 827 446 827 q 299 842 341 827 q 227 886 258 857 q 179 955 197 914 q 159 1048 161 996 l 245 1048 q 288 939 251 973 q 395 904 326 904 q 498 939 459 904 q 543 1048 536 974 l 628 1048 z "},"Ő":{"ha":979,"x_min":86,"x_max":893,"o":"m 893 488 q 864 286 893 378 q 781 126 834 193 q 653 22 728 59 q 488 -16 578 -16 q 323 21 397 -16 q 196 125 249 58 q 115 283 144 191 q 86 485 86 375 q 115 687 86 595 q 198 846 144 779 q 325 950 251 913 q 490 987 399 987 q 655 950 581 987 q 782 847 729 913 q 864 689 835 781 q 893 488 893 597 m 785 485 q 762 651 785 576 q 699 779 739 726 q 605 860 659 831 q 486 889 550 889 q 370 861 423 889 q 277 780 316 832 q 217 653 239 728 q 195 488 195 579 q 217 321 195 396 q 280 194 240 247 q 374 112 319 141 q 492 83 428 83 q 608 112 555 83 q 701 192 662 140 q 763 319 741 245 q 785 485 785 393 m 636 1035 l 558 1035 l 688 1257 l 826 1257 l 636 1035 m 390 1035 l 313 1035 l 441 1257 l 581 1257 l 390 1035 z "},"ő":{"ha":786,"x_min":77,"x_max":710,"o":"m 710 370 q 685 205 710 277 q 617 84 660 133 q 515 10 574 35 q 390 -16 457 -16 q 266 9 323 -16 q 167 81 209 33 q 101 200 125 130 q 77 364 77 271 q 101 528 77 456 q 170 647 126 599 q 271 720 213 695 q 396 745 330 745 q 520 721 463 745 q 620 650 577 697 q 686 532 662 602 q 710 370 710 462 m 606 367 q 590 493 606 439 q 547 583 574 547 q 480 636 519 618 q 393 654 441 654 q 307 636 346 654 q 240 583 268 618 q 197 493 212 547 q 182 367 182 439 q 197 240 182 295 q 240 149 212 186 q 307 94 268 113 q 393 75 346 75 q 480 94 441 75 q 547 149 519 113 q 590 240 574 186 q 606 367 606 295 m 514 827 l 436 827 l 566 1048 l 704 1048 l 514 827 m 268 827 l 191 827 l 319 1048 l 458 1048 l 268 827 z "},"Ŕ":{"ha":903,"x_min":127,"x_max":815,"o":"m 675 0 l 467 414 l 236 414 l 236 0 l 127 0 l 127 972 l 513 972 q 632 956 576 972 q 728 905 687 939 q 792 820 768 871 q 815 697 815 768 q 799 594 815 640 q 753 514 783 549 q 681 456 723 479 q 586 422 638 433 l 800 0 l 675 0 m 707 693 q 692 775 707 740 q 649 834 678 811 q 584 865 620 857 q 509 873 547 873 l 236 873 l 236 511 l 494 511 q 579 520 541 511 q 648 551 618 529 q 692 609 677 572 q 707 693 707 646 m 428 1035 l 346 1035 l 489 1257 l 637 1257 l 428 1035 z "},"ŕ":{"ha":566,"x_min":115,"x_max":514,"o":"m 488 621 q 440 641 466 633 q 378 648 414 648 q 261 590 302 648 q 220 428 220 532 l 220 0 l 115 0 l 115 729 l 220 729 l 220 639 q 251 680 232 661 q 293 713 270 699 q 344 736 317 728 q 400 745 371 745 q 468 740 441 745 q 514 726 495 734 l 488 621 m 302 827 l 220 827 l 363 1048 l 512 1048 l 302 827 z "},"Ŗ":{"ha":903,"x_min":127,"x_max":815,"o":"m 675 0 l 467 414 l 236 414 l 236 0 l 127 0 l 127 972 l 513 972 q 632 956 576 972 q 728 905 687 939 q 792 820 768 871 q 815 697 815 768 q 799 594 815 640 q 753 514 783 549 q 681 456 723 479 q 586 422 638 433 l 800 0 l 675 0 m 707 693 q 692 775 707 740 q 649 834 678 811 q 584 865 620 857 q 509 873 547 873 l 236 873 l 236 511 l 494 511 q 579 520 541 511 q 648 551 618 529 q 692 609 677 572 q 707 693 707 646 m 438 -333 l 381 -333 l 397 -72 l 513 -72 l 438 -333 z "},"ŗ":{"ha":566,"x_min":95,"x_max":514,"o":"m 488 621 q 440 641 466 633 q 378 648 414 648 q 261 590 302 648 q 220 428 220 532 l 220 0 l 115 0 l 115 729 l 220 729 l 220 639 q 251 680 232 661 q 293 713 270 699 q 344 736 317 728 q 400 745 371 745 q 468 740 441 745 q 514 726 495 734 l 488 621 m 152 -333 l 95 -333 l 111 -72 l 227 -72 l 152 -333 z "},"Ř":{"ha":903,"x_min":127,"x_max":815,"o":"m 675 0 l 467 414 l 236 414 l 236 0 l 127 0 l 127 972 l 513 972 q 632 956 576 972 q 728 905 687 939 q 792 820 768 871 q 815 697 815 768 q 799 594 815 640 q 753 514 783 549 q 681 456 723 479 q 586 422 638 433 l 800 0 l 675 0 m 707 693 q 692 775 707 740 q 649 834 678 811 q 584 865 620 857 q 509 873 547 873 l 236 873 l 236 511 l 494 511 q 579 520 541 511 q 648 551 618 529 q 692 609 677 572 q 707 693 707 646 m 510 1035 l 393 1035 l 222 1257 l 313 1257 l 453 1114 l 593 1257 l 681 1257 l 510 1035 z "},"ř":{"ha":566,"x_min":54,"x_max":514,"o":"m 488 621 q 440 641 466 633 q 378 648 414 648 q 261 590 302 648 q 220 428 220 532 l 220 0 l 115 0 l 115 729 l 220 729 l 220 639 q 251 680 232 661 q 293 713 270 699 q 344 736 317 728 q 400 745 371 745 q 468 740 441 745 q 514 726 495 734 l 488 621 m 342 827 l 225 827 l 54 1048 l 144 1048 l 285 905 l 425 1048 l 513 1048 l 342 827 z "},"Ś":{"ha":822,"x_min":77,"x_max":725,"o":"m 725 256 q 703 149 725 199 q 640 63 682 100 q 539 5 599 26 q 403 -16 479 -16 q 307 -5 353 -16 q 219 23 260 5 q 141 65 177 41 q 77 119 105 90 l 149 200 q 268 115 204 146 q 407 83 332 83 q 494 95 456 83 q 560 128 533 106 q 602 181 587 150 q 616 250 616 212 q 605 312 616 284 q 567 363 594 339 q 496 410 541 387 q 385 456 451 432 q 252 512 306 484 q 166 573 199 540 q 119 646 133 606 q 104 739 104 686 q 126 844 104 798 q 188 922 149 890 q 284 970 228 954 q 408 987 340 987 q 498 980 457 987 q 575 960 539 973 q 642 927 610 947 q 704 884 673 908 l 635 799 q 582 838 608 821 q 528 866 555 854 q 469 883 500 878 q 401 889 438 889 q 315 878 351 889 q 257 846 279 866 q 223 800 234 826 q 212 746 212 774 q 221 691 212 715 q 255 644 230 667 q 325 598 280 621 q 443 550 370 576 q 578 491 524 521 q 665 428 632 462 q 711 352 697 393 q 725 256 725 310 m 387 1035 l 305 1035 l 448 1257 l 597 1257 l 387 1035 z "},"ś":{"ha":648,"x_min":60,"x_max":567,"o":"m 549 667 l 490 590 q 404 641 444 627 q 309 656 364 656 q 219 630 251 656 q 187 566 187 605 q 195 525 187 543 q 221 492 203 508 q 271 461 240 477 q 349 424 302 445 q 441 379 400 400 q 509 332 481 358 q 552 273 537 307 q 567 191 567 239 q 546 98 567 137 q 489 34 524 59 q 409 -3 454 9 q 317 -16 364 -16 q 176 10 241 -16 q 60 78 112 36 l 121 154 q 215 95 165 115 q 319 74 265 74 q 431 103 395 74 q 467 186 467 133 q 458 227 467 208 q 429 262 449 245 q 376 297 409 279 q 294 335 343 314 q 200 380 239 358 q 136 426 161 401 q 99 483 111 451 q 87 558 87 514 q 104 634 87 600 q 152 693 121 669 q 224 731 182 718 q 315 745 266 745 q 449 723 391 745 q 549 667 507 701 m 301 827 l 219 827 l 362 1048 l 511 1048 l 301 827 z "},"Ŝ":{"ha":822,"x_min":77,"x_max":725,"o":"m 725 256 q 703 149 725 199 q 640 63 682 100 q 539 5 599 26 q 403 -16 479 -16 q 307 -5 353 -16 q 219 23 260 5 q 141 65 177 41 q 77 119 105 90 l 149 200 q 268 115 204 146 q 407 83 332 83 q 494 95 456 83 q 560 128 533 106 q 602 181 587 150 q 616 250 616 212 q 605 312 616 284 q 567 363 594 339 q 496 410 541 387 q 385 456 451 432 q 252 512 306 484 q 166 573 199 540 q 119 646 133 606 q 104 739 104 686 q 126 844 104 798 q 188 922 149 890 q 284 970 228 954 q 408 987 340 987 q 498 980 457 987 q 575 960 539 973 q 642 927 610 947 q 704 884 673 908 l 635 799 q 582 838 608 821 q 528 866 555 854 q 469 883 500 878 q 401 889 438 889 q 315 878 351 889 q 257 846 279 866 q 223 800 234 826 q 212 746 212 774 q 221 691 212 715 q 255 644 230 667 q 325 598 280 621 q 443 550 370 576 q 578 491 524 521 q 665 428 632 462 q 711 352 697 393 q 725 256 725 310 m 554 1028 l 414 1171 l 273 1028 l 186 1028 l 357 1250 l 473 1250 l 644 1028 l 554 1028 z "},"ŝ":{"ha":648,"x_min":60,"x_max":567,"o":"m 549 667 l 490 590 q 404 641 444 627 q 309 656 364 656 q 219 630 251 656 q 187 566 187 605 q 195 525 187 543 q 221 492 203 508 q 271 461 240 477 q 349 424 302 445 q 441 379 400 400 q 509 332 481 358 q 552 273 537 307 q 567 191 567 239 q 546 98 567 137 q 489 34 524 59 q 409 -3 454 9 q 317 -16 364 -16 q 176 10 241 -16 q 60 78 112 36 l 121 154 q 215 95 165 115 q 319 74 265 74 q 431 103 395 74 q 467 186 467 133 q 458 227 467 208 q 429 262 449 245 q 376 297 409 279 q 294 335 343 314 q 200 380 239 358 q 136 426 161 401 q 99 483 111 451 q 87 558 87 514 q 104 634 87 600 q 152 693 121 669 q 224 731 182 718 q 315 745 266 745 q 449 723 391 745 q 549 667 507 701 m 464 814 l 323 958 l 183 814 l 96 814 l 267 1036 l 383 1036 l 554 814 l 464 814 z "},"Ş":{"ha":822,"x_min":77,"x_max":725,"o":"m 725 256 q 703 149 725 199 q 640 63 682 100 q 539 5 599 26 q 403 -16 479 -16 q 307 -5 353 -16 q 219 23 260 5 q 141 65 177 41 q 77 119 105 90 l 149 200 q 268 115 204 146 q 407 83 332 83 q 494 95 456 83 q 560 128 533 106 q 602 181 587 150 q 616 250 616 212 q 605 312 616 284 q 567 363 594 339 q 496 410 541 387 q 385 456 451 432 q 252 512 306 484 q 166 573 199 540 q 119 646 133 606 q 104 739 104 686 q 126 844 104 798 q 188 922 149 890 q 284 970 228 954 q 408 987 340 987 q 498 980 457 987 q 575 960 539 973 q 642 927 610 947 q 704 884 673 908 l 635 799 q 582 838 608 821 q 528 866 555 854 q 469 883 500 878 q 401 889 438 889 q 315 878 351 889 q 257 846 279 866 q 223 800 234 826 q 212 746 212 774 q 221 691 212 715 q 255 644 230 667 q 325 598 280 621 q 443 550 370 576 q 578 491 524 521 q 665 428 632 462 q 711 352 697 393 q 725 256 725 310 m 374 0 l 436 0 l 412 -71 q 446 -56 427 -61 q 489 -52 464 -52 q 519 -57 503 -52 q 550 -73 536 -62 q 573 -102 564 -84 q 582 -147 582 -121 q 569 -204 582 -181 q 533 -241 555 -227 q 480 -262 510 -256 q 417 -268 450 -268 q 332 -255 374 -268 q 253 -218 290 -242 l 279 -174 q 407 -211 337 -211 q 477 -195 455 -211 q 500 -151 500 -180 q 489 -118 500 -130 q 456 -106 477 -106 q 389 -131 415 -106 l 339 -111 l 374 0 z "},"ş":{"ha":648,"x_min":60,"x_max":567,"o":"m 549 667 l 490 590 q 404 641 444 627 q 309 656 364 656 q 219 630 251 656 q 187 566 187 605 q 195 525 187 543 q 221 492 203 508 q 271 461 240 477 q 349 424 302 445 q 441 379 400 400 q 509 332 481 358 q 552 273 537 307 q 567 191 567 239 q 546 98 567 137 q 489 34 524 59 q 409 -3 454 9 q 317 -16 364 -16 q 176 10 241 -16 q 60 78 112 36 l 121 154 q 215 95 165 115 q 319 74 265 74 q 431 103 395 74 q 467 186 467 133 q 458 227 467 208 q 429 262 449 245 q 376 297 409 279 q 294 335 343 314 q 200 380 239 358 q 136 426 161 401 q 99 483 111 451 q 87 558 87 514 q 104 634 87 600 q 152 693 121 669 q 224 731 182 718 q 315 745 266 745 q 449 723 391 745 q 549 667 507 701 m 288 0 l 350 0 l 326 -71 q 359 -56 341 -61 q 403 -52 378 -52 q 433 -57 417 -52 q 464 -73 450 -62 q 487 -102 477 -84 q 496 -147 496 -121 q 483 -204 496 -181 q 447 -241 469 -227 q 394 -262 424 -256 q 331 -268 364 -268 q 246 -255 288 -268 q 167 -218 203 -242 l 193 -174 q 321 -211 251 -211 q 391 -195 369 -211 q 414 -151 414 -180 q 402 -118 414 -130 q 370 -106 391 -106 q 303 -131 329 -106 l 253 -111 l 288 0 z "},"Ț":{"ha":817,"x_min":68,"x_max":749,"o":"m 463 873 l 463 0 l 354 0 l 354 873 l 68 873 l 68 972 l 749 972 l 749 873 l 463 873 m 395 -333 l 338 -333 l 354 -72 l 469 -72 l 395 -333 z "},"ț":{"ha":517,"x_min":54,"x_max":429,"o":"m 418 9 q 356 -9 387 -3 q 283 -16 326 -16 q 224 -7 250 -16 q 180 22 198 2 q 154 73 163 41 q 144 150 144 104 l 144 642 l 54 642 l 54 729 l 144 729 l 144 954 l 249 1013 l 249 729 l 429 729 l 429 642 l 249 642 l 249 167 q 253 126 249 142 q 265 99 256 109 q 287 84 273 88 q 322 79 301 79 q 377 84 354 79 q 425 100 400 90 l 418 9 m 245 -333 l 188 -333 l 204 -72 l 319 -72 l 245 -333 z "},"Ţ":{"ha":817,"x_min":68,"x_max":749,"o":"m 463 873 l 463 0 l 354 0 l 354 873 l 68 873 l 68 972 l 749 972 l 749 873 l 463 873 m 376 0 l 439 0 l 415 -71 q 448 -56 430 -61 q 492 -52 467 -52 q 522 -57 506 -52 q 552 -73 538 -62 q 575 -102 566 -84 q 585 -147 585 -121 q 571 -204 585 -181 q 535 -241 558 -227 q 483 -262 513 -256 q 420 -268 453 -268 q 335 -255 377 -268 q 256 -218 292 -242 l 282 -174 q 410 -211 340 -211 q 480 -195 458 -211 q 503 -151 503 -180 q 491 -118 503 -130 q 458 -106 480 -106 q 392 -131 418 -106 l 342 -111 l 376 0 z "},"ţ":{"ha":517,"x_min":54,"x_max":431,"o":"m 418 9 q 356 -9 387 -3 q 283 -16 326 -16 q 224 -7 250 -16 q 180 22 198 2 q 154 73 163 41 q 144 150 144 104 l 144 642 l 54 642 l 54 729 l 144 729 l 144 954 l 249 1013 l 249 729 l 429 729 l 429 642 l 249 642 l 249 167 q 253 126 249 142 q 265 99 256 109 q 287 84 273 88 q 322 79 301 79 q 377 84 354 79 q 425 100 400 90 l 418 9 m 222 0 l 285 0 l 261 -71 q 294 -56 276 -61 q 338 -52 313 -52 q 368 -57 352 -52 q 398 -73 385 -62 q 421 -102 412 -84 q 431 -147 431 -121 q 417 -204 431 -181 q 381 -241 404 -227 q 329 -262 359 -256 q 266 -268 299 -268 q 181 -255 223 -268 q 102 -218 138 -242 l 128 -174 q 256 -211 186 -211 q 326 -195 304 -211 q 349 -151 349 -180 q 337 -118 349 -130 q 304 -106 326 -106 q 238 -131 264 -106 l 188 -111 l 222 0 z "},"Ť":{"ha":817,"x_min":68,"x_max":749,"o":"m 463 873 l 463 0 l 354 0 l 354 873 l 68 873 l 68 972 l 749 972 l 749 873 l 463 873 m 467 1035 l 350 1035 l 179 1257 l 269 1257 l 410 1114 l 550 1257 l 637 1257 l 467 1035 z "},"ť":{"ha":517,"x_min":54,"x_max":505,"o":"m 431 798 l 374 798 l 390 1048 l 505 1048 l 431 798 m 418 9 q 356 -9 387 -3 q 283 -16 326 -16 q 224 -7 250 -16 q 180 22 198 2 q 154 73 163 41 q 144 150 144 104 l 144 642 l 54 642 l 54 729 l 144 729 l 144 954 l 249 1013 l 249 729 l 429 729 l 429 642 l 249 642 l 249 167 q 253 126 249 142 q 265 99 256 109 q 287 84 273 88 q 322 79 301 79 q 377 84 354 79 q 425 100 400 90 l 418 9 z "},"Ŧ":{"ha":817,"x_min":68,"x_max":749,"o":"m 463 450 l 463 0 l 354 0 l 354 450 l 132 450 l 132 549 l 354 549 l 354 873 l 68 873 l 68 972 l 749 972 l 749 873 l 463 873 l 463 549 l 686 549 l 686 450 l 463 450 z "},"ŧ":{"ha":517,"x_min":54,"x_max":429,"o":"m 418 9 q 356 -9 387 -3 q 283 -16 326 -16 q 224 -7 250 -16 q 180 22 198 2 q 154 73 163 41 q 144 150 144 104 l 144 389 l 54 389 l 54 476 l 144 476 l 144 642 l 54 642 l 54 729 l 144 729 l 144 954 l 249 1013 l 249 729 l 429 729 l 429 642 l 249 642 l 249 476 l 429 476 l 429 389 l 249 389 l 249 167 q 253 126 249 142 q 265 99 256 109 q 287 84 273 88 q 322 79 301 79 q 377 84 354 79 q 425 100 400 90 l 418 9 z "},"Ũ":{"ha":942,"x_min":121,"x_max":821,"o":"m 821 395 q 794 204 821 283 q 723 77 768 125 q 616 7 677 30 q 472 -16 554 -16 q 328 7 390 -16 q 219 77 265 30 q 147 204 173 125 q 121 395 121 283 l 121 972 l 229 972 l 229 397 q 290 161 229 239 q 478 83 351 83 q 657 159 602 83 q 713 395 713 235 l 713 972 l 821 972 l 821 395 m 718 1225 q 707 1145 718 1179 q 675 1088 695 1111 q 630 1055 656 1066 q 576 1044 604 1044 q 524 1053 549 1044 q 474 1080 499 1061 q 436 1109 448 1099 q 416 1122 423 1118 q 390 1137 401 1133 q 363 1141 378 1141 q 328 1120 341 1141 q 309 1048 315 1098 l 223 1048 q 235 1128 223 1095 q 266 1185 246 1162 q 311 1218 286 1207 q 365 1229 337 1229 q 417 1221 393 1229 q 468 1193 442 1213 q 506 1164 493 1174 q 525 1151 518 1155 q 552 1136 540 1141 q 578 1132 564 1132 q 612 1154 600 1132 q 632 1225 625 1176 l 718 1225 z "},"ũ":{"ha":787,"x_min":111,"x_max":672,"o":"m 568 0 l 568 89 q 486 13 536 42 q 367 -16 435 -16 q 177 61 243 -16 q 111 285 111 137 l 111 729 l 215 729 l 215 302 q 257 130 215 184 q 387 75 299 75 q 519 134 471 75 q 568 302 568 192 l 568 729 l 672 729 l 672 0 l 568 0 m 641 1011 q 629 931 641 965 q 598 875 618 897 q 553 842 578 852 q 499 831 527 831 q 447 839 471 831 q 396 866 422 847 q 358 895 371 886 q 339 909 346 905 q 312 923 324 919 q 286 928 300 928 q 251 906 264 928 q 232 835 238 884 l 146 835 q 157 915 146 881 q 189 971 169 949 q 234 1004 208 994 q 288 1015 260 1015 q 340 1007 315 1015 q 390 980 365 999 q 428 951 416 960 q 448 937 441 941 q 474 923 463 927 q 500 918 486 918 q 535 940 522 918 q 555 1011 548 962 l 641 1011 z "},"Ū":{"ha":942,"x_min":121,"x_max":821,"o":"m 821 395 q 794 204 821 283 q 723 77 768 125 q 616 7 677 30 q 472 -16 554 -16 q 328 7 390 -16 q 219 77 265 30 q 147 204 173 125 q 121 395 121 283 l 121 972 l 229 972 l 229 397 q 290 161 229 239 q 478 83 351 83 q 657 159 602 83 q 713 395 713 235 l 713 972 l 821 972 l 821 395 m 281 1067 l 281 1164 l 660 1164 l 660 1067 l 281 1067 z "},"ū":{"ha":787,"x_min":111,"x_max":672,"o":"m 568 0 l 568 89 q 486 13 536 42 q 367 -16 435 -16 q 177 61 243 -16 q 111 285 111 137 l 111 729 l 215 729 l 215 302 q 257 130 215 184 q 387 75 299 75 q 519 134 471 75 q 568 302 568 192 l 568 729 l 672 729 l 672 0 l 568 0 m 204 859 l 204 956 l 583 956 l 583 859 l 204 859 z "},"Ŭ":{"ha":942,"x_min":121,"x_max":821,"o":"m 821 395 q 794 204 821 283 q 723 77 768 125 q 616 7 677 30 q 472 -16 554 -16 q 328 7 390 -16 q 219 77 265 30 q 147 204 173 125 q 121 395 121 283 l 121 972 l 229 972 l 229 397 q 290 161 229 239 q 478 83 351 83 q 657 159 602 83 q 713 395 713 235 l 713 972 l 821 972 l 821 395 m 705 1250 q 686 1157 703 1198 q 639 1087 669 1116 q 566 1043 609 1059 q 469 1028 524 1028 q 377 1043 418 1028 q 304 1087 335 1059 q 256 1157 274 1116 q 236 1250 239 1198 l 322 1250 q 366 1140 328 1175 q 472 1105 403 1105 q 575 1140 536 1105 q 621 1250 614 1175 l 705 1250 z "},"ŭ":{"ha":787,"x_min":111,"x_max":672,"o":"m 568 0 l 568 89 q 486 13 536 42 q 367 -16 435 -16 q 177 61 243 -16 q 111 285 111 137 l 111 729 l 215 729 l 215 302 q 257 130 215 184 q 387 75 299 75 q 519 134 471 75 q 568 302 568 192 l 568 729 l 672 729 l 672 0 l 568 0 m 628 1048 q 608 955 625 996 q 562 886 591 914 q 489 842 532 857 q 392 827 446 827 q 299 842 341 827 q 227 886 258 857 q 179 955 197 914 q 159 1048 161 996 l 245 1048 q 288 939 251 973 q 395 904 326 904 q 498 939 459 904 q 543 1048 536 974 l 628 1048 z "},"Ů":{"ha":942,"x_min":121,"x_max":821,"o":"m 821 395 q 794 204 821 283 q 723 77 768 125 q 616 7 677 30 q 472 -16 554 -16 q 328 7 390 -16 q 219 77 265 30 q 147 204 173 125 q 121 395 121 283 l 121 972 l 229 972 l 229 397 q 290 161 229 239 q 478 83 351 83 q 657 159 602 83 q 713 395 713 235 l 713 972 l 821 972 l 821 395 m 633 1171 q 621 1108 633 1137 q 587 1056 609 1078 q 536 1022 566 1034 q 471 1009 506 1009 q 406 1022 435 1009 q 354 1056 376 1034 q 320 1108 332 1078 q 308 1171 308 1137 q 320 1235 308 1205 q 354 1286 332 1264 q 406 1320 376 1308 q 471 1333 435 1333 q 536 1320 506 1333 q 587 1286 566 1308 q 621 1235 609 1264 q 633 1171 633 1205 m 568 1171 q 561 1211 568 1192 q 542 1242 554 1229 q 511 1263 529 1255 q 471 1270 493 1270 q 430 1263 448 1270 q 400 1242 412 1255 q 380 1211 387 1229 q 374 1171 374 1192 q 380 1131 374 1149 q 400 1100 387 1113 q 430 1079 412 1086 q 471 1072 448 1072 q 511 1079 493 1072 q 542 1100 529 1086 q 561 1131 554 1113 q 568 1171 568 1149 z "},"ů":{"ha":787,"x_min":111,"x_max":672,"o":"m 568 0 l 568 89 q 486 13 536 42 q 367 -16 435 -16 q 177 61 243 -16 q 111 285 111 137 l 111 729 l 215 729 l 215 302 q 257 130 215 184 q 387 75 299 75 q 519 134 471 75 q 568 302 568 192 l 568 729 l 672 729 l 672 0 l 568 0 m 556 994 q 544 931 556 960 q 510 879 532 901 q 458 845 488 857 q 393 832 429 832 q 328 845 358 832 q 277 879 298 857 q 243 931 255 901 q 231 994 231 960 q 243 1058 231 1028 q 277 1109 255 1087 q 328 1143 298 1131 q 393 1156 358 1156 q 458 1143 429 1156 q 510 1109 488 1131 q 544 1058 532 1087 q 556 994 556 1028 m 490 994 q 484 1034 490 1015 q 464 1065 477 1052 q 434 1086 452 1078 q 393 1093 416 1093 q 353 1086 371 1093 q 322 1065 335 1078 q 303 1034 310 1052 q 296 994 296 1015 q 303 954 296 972 q 322 923 310 936 q 353 902 335 909 q 393 895 371 895 q 434 902 416 895 q 464 923 452 909 q 484 954 477 936 q 490 994 490 972 z "},"Ű":{"ha":942,"x_min":121,"x_max":821,"o":"m 821 395 q 794 204 821 283 q 723 77 768 125 q 616 7 677 30 q 472 -16 554 -16 q 328 7 390 -16 q 219 77 265 30 q 147 204 173 125 q 121 395 121 283 l 121 972 l 229 972 l 229 397 q 290 161 229 239 q 478 83 351 83 q 657 159 602 83 q 713 395 713 235 l 713 972 l 821 972 l 821 395 m 599 1035 l 521 1035 l 650 1257 l 789 1257 l 599 1035 m 353 1035 l 275 1035 l 404 1257 l 543 1257 l 353 1035 z "},"ű":{"ha":787,"x_min":111,"x_max":726,"o":"m 568 0 l 568 89 q 486 13 536 42 q 367 -16 435 -16 q 177 61 243 -16 q 111 285 111 137 l 111 729 l 215 729 l 215 302 q 257 130 215 184 q 387 75 299 75 q 519 134 471 75 q 568 302 568 192 l 568 729 l 672 729 l 672 0 l 568 0 m 536 827 l 458 827 l 588 1048 l 726 1048 l 536 827 m 290 827 l 213 827 l 342 1048 l 481 1048 l 290 827 z "},"Ų":{"ha":942,"x_min":121,"x_max":821,"o":"m 713 395 l 713 972 l 821 972 l 821 397 q 807 250 821 313 q 764 134 793 187 q 691 48 734 81 q 585 -1 647 15 q 476 -70 516 -33 q 436 -143 436 -106 q 448 -175 436 -166 q 478 -184 460 -184 q 506 -179 492 -184 q 529 -164 519 -173 l 576 -233 q 521 -267 553 -256 q 453 -278 489 -278 q 405 -271 428 -278 q 363 -249 381 -263 q 334 -215 345 -235 q 323 -170 323 -195 q 356 -85 323 -125 q 437 -14 389 -45 q 296 21 354 -8 q 198 103 237 51 q 139 230 158 156 q 121 395 121 304 l 121 972 l 229 972 l 229 397 q 243 264 229 322 q 288 165 257 206 q 365 104 318 125 q 478 83 412 83 q 586 102 541 83 q 658 160 630 121 q 700 257 686 199 q 713 395 713 316 z "},"ų":{"ha":787,"x_min":111,"x_max":672,"o":"m 568 0 l 568 89 q 486 13 536 42 q 367 -16 435 -16 q 177 61 243 -16 q 111 285 111 137 l 111 729 l 215 729 l 215 302 q 257 130 215 184 q 387 75 299 75 q 519 134 471 75 q 568 302 568 192 l 568 729 l 672 729 l 672 0 l 568 0 m 672 0 q 623 -29 644 -16 q 582 -58 603 -42 q 547 -97 562 -75 q 532 -143 532 -119 q 544 -175 532 -166 q 573 -184 555 -184 q 601 -179 587 -184 q 625 -164 614 -173 l 672 -233 q 617 -267 649 -256 q 548 -278 585 -278 q 500 -271 523 -278 q 459 -249 477 -263 q 430 -215 441 -235 q 419 -170 419 -195 q 433 -108 419 -135 q 468 -61 447 -81 q 511 -28 489 -42 q 568 0 532 -14 l 672 0 z "},"Ŵ":{"ha":1189,"x_min":79,"x_max":1110,"o":"m 1110 972 l 916 0 l 793 0 l 593 815 l 393 0 l 273 0 l 79 972 l 187 972 l 336 153 l 538 972 l 654 972 l 854 153 l 1004 972 l 1110 972 m 735 1007 l 595 1150 l 454 1007 l 367 1007 l 538 1229 l 654 1229 l 825 1007 l 735 1007 z "},"ŵ":{"ha":1014,"x_min":65,"x_max":949,"o":"m 755 0 l 660 0 l 505 574 l 351 0 l 258 0 l 65 729 l 172 729 l 307 159 l 461 729 l 555 729 l 710 159 l 844 729 l 949 729 l 755 0 m 646 821 l 506 964 l 366 821 l 278 821 l 449 1043 l 566 1043 l 736 821 l 646 821 z "},"Ŷ":{"ha":905,"x_min":65,"x_max":840,"o":"m 840 972 l 507 386 l 507 0 l 399 0 l 399 385 l 65 972 l 189 972 l 454 496 l 720 972 l 840 972 m 592 1035 l 452 1178 l 311 1035 l 224 1035 l 395 1257 l 511 1257 l 682 1035 l 592 1035 z "},"ŷ":{"ha":737,"x_min":56,"x_max":682,"o":"m 319 -257 l 215 -257 l 315 8 l 56 729 l 165 729 l 368 125 l 572 729 l 682 729 l 319 -257 m 507 827 l 367 970 l 227 827 l 139 827 l 310 1048 l 427 1048 l 597 827 l 507 827 z "},"Ź":{"ha":872,"x_min":85,"x_max":779,"o":"m 779 0 l 85 0 l 85 94 l 660 878 l 113 878 l 113 972 l 779 972 l 779 878 l 204 94 l 779 94 l 779 0 m 412 1035 l 330 1035 l 473 1257 l 622 1257 l 412 1035 z "},"ź":{"ha":684,"x_min":75,"x_max":591,"o":"m 75 0 l 75 77 l 473 642 l 107 642 l 107 729 l 591 729 l 591 653 l 193 87 l 591 87 l 591 0 l 75 0 m 319 827 l 237 827 l 380 1048 l 529 1048 l 319 827 z "},"Ż":{"ha":872,"x_min":85,"x_max":779,"o":"m 779 0 l 85 0 l 85 94 l 660 878 l 113 878 l 113 972 l 779 972 l 779 878 l 204 94 l 779 94 l 779 0 m 513 1122 q 507 1093 513 1107 q 490 1068 500 1079 q 466 1052 479 1058 q 436 1046 452 1046 q 407 1052 420 1046 q 382 1068 393 1058 q 366 1093 372 1079 q 359 1122 359 1107 q 366 1152 359 1138 q 382 1177 372 1166 q 407 1194 393 1187 q 436 1200 420 1200 q 466 1194 452 1200 q 490 1177 479 1187 q 507 1152 500 1166 q 513 1122 513 1138 z "},"ż":{"ha":684,"x_min":75,"x_max":591,"o":"m 75 0 l 75 77 l 473 642 l 107 642 l 107 729 l 591 729 l 591 653 l 193 87 l 591 87 l 591 0 l 75 0 m 420 914 q 414 885 420 899 q 397 860 408 871 q 373 844 387 850 q 343 838 359 838 q 314 844 328 838 q 289 860 300 850 q 273 885 279 871 q 267 914 267 899 q 273 944 267 930 q 289 968 279 958 q 314 985 300 979 q 343 991 328 991 q 373 985 359 991 q 397 968 387 979 q 414 944 408 958 q 420 914 420 930 z "},"ſ":{"ha":494,"x_min":165,"x_max":429,"o":"m 165 829 q 178 912 165 878 q 213 967 191 946 q 268 999 236 989 q 338 1008 300 1008 q 390 1005 369 1008 q 429 996 410 1002 l 429 897 q 391 910 412 905 q 345 914 370 914 q 314 911 328 914 q 291 899 300 907 q 275 875 281 890 q 269 838 269 861 l 269 0 l 165 0 l 165 829 z "},"Ǻ":{"ha":942,"x_min":74,"x_max":868,"o":"m 754 0 l 671 248 l 269 248 l 184 0 l 74 0 l 393 914 q 330 973 353 935 q 307 1060 307 1011 q 319 1123 307 1094 q 353 1174 332 1152 q 404 1208 374 1196 q 469 1221 434 1221 q 534 1208 505 1221 q 586 1174 564 1196 q 620 1123 608 1152 q 632 1060 632 1094 q 609 975 632 1013 q 547 916 586 937 l 868 0 l 754 0 m 567 1060 q 560 1100 567 1082 q 541 1132 553 1119 q 510 1153 528 1145 q 469 1160 492 1160 q 429 1153 447 1160 q 398 1132 411 1145 q 379 1100 386 1119 q 372 1060 372 1082 q 379 1020 372 1038 q 398 988 386 1001 q 429 967 411 975 q 469 960 447 960 q 510 967 492 960 q 541 988 528 975 q 560 1020 553 1001 q 567 1060 567 1038 m 637 346 l 471 843 l 302 346 l 637 346 m 439 1257 l 357 1257 l 500 1479 l 648 1479 l 439 1257 z "},"ǻ":{"ha":749,"x_min":72,"x_max":637,"o":"m 533 0 l 533 89 q 491 49 514 68 q 439 16 467 30 q 378 -7 411 1 q 306 -16 345 -16 q 221 -4 263 -16 q 146 35 179 7 q 93 107 113 62 q 72 218 72 152 q 95 323 72 279 q 157 396 119 368 q 247 438 196 425 q 351 452 297 452 q 454 439 407 452 q 533 410 500 427 l 533 496 q 494 617 533 578 q 375 657 456 657 q 269 642 317 657 q 176 602 221 627 l 138 686 q 248 728 186 712 q 382 745 311 745 q 488 731 441 745 q 569 690 536 718 q 620 616 602 661 q 637 509 637 572 l 637 0 l 533 0 m 533 326 q 496 344 515 336 q 455 357 477 352 q 406 366 433 363 q 346 368 379 368 q 220 331 265 368 q 175 225 175 294 q 186 155 175 184 q 216 106 197 125 q 263 78 235 87 q 323 69 290 69 q 390 78 359 69 q 447 101 420 86 q 495 136 473 116 q 533 179 517 156 l 533 326 m 539 994 q 527 931 539 960 q 493 879 515 901 q 441 845 471 857 q 376 832 412 832 q 311 845 341 832 q 260 879 281 857 q 226 931 238 901 q 214 994 214 960 q 226 1058 214 1028 q 260 1109 238 1087 q 311 1143 281 1131 q 376 1156 341 1156 q 441 1143 412 1156 q 493 1109 471 1131 q 527 1058 515 1087 q 539 994 539 1028 m 473 994 q 467 1034 473 1015 q 447 1065 460 1052 q 417 1086 435 1078 q 376 1093 399 1093 q 336 1086 354 1093 q 306 1065 318 1078 q 286 1034 293 1052 q 279 994 279 1015 q 286 954 279 972 q 306 923 293 936 q 336 902 318 909 q 376 895 354 895 q 417 902 399 895 q 447 923 435 909 q 467 954 460 936 q 473 994 473 972 m 345 1223 l 262 1223 l 406 1444 l 554 1444 l 345 1223 z "},"Ǽ":{"ha":1386,"x_min":33,"x_max":1307,"o":"m 1286 972 l 1286 873 l 802 873 l 802 568 l 1192 568 l 1192 469 l 802 469 l 802 98 l 1307 98 l 1307 0 l 699 0 l 699 248 l 319 248 l 157 0 l 33 0 l 686 972 l 1286 972 m 383 346 l 699 346 l 699 825 l 383 346 m 722 1035 l 640 1035 l 783 1257 l 932 1257 l 722 1035 z "},"ǽ":{"ha":1164,"x_min":72,"x_max":1084,"o":"m 1084 386 q 1083 354 1084 367 q 1080 329 1082 342 l 614 329 q 632 224 618 271 q 670 144 646 177 q 728 93 694 111 q 807 75 762 75 q 863 80 839 75 q 909 93 888 84 q 952 115 931 102 q 999 144 974 127 l 1047 69 q 986 32 1015 48 q 930 6 958 16 q 869 -10 901 -5 q 796 -16 837 -16 q 673 14 732 -16 q 571 111 614 44 q 447 13 510 41 q 296 -16 384 -16 q 213 -4 253 -16 q 141 35 172 7 q 91 107 110 62 q 72 218 72 152 q 94 323 72 279 q 153 396 115 368 q 239 438 190 425 q 342 452 288 452 q 439 439 397 452 q 514 410 481 427 l 514 496 q 480 617 514 578 q 366 657 446 657 q 259 641 306 657 q 176 602 213 624 l 138 686 q 243 728 186 712 q 372 745 301 745 q 521 709 469 745 q 585 612 572 674 q 671 710 617 675 q 802 745 726 745 q 926 718 873 745 q 1014 644 979 691 q 1067 530 1049 596 q 1084 386 1084 464 m 987 414 q 972 511 984 467 q 939 587 961 555 q 882 637 916 619 q 800 654 848 654 q 721 637 755 654 q 665 587 688 619 q 630 511 643 555 q 614 414 618 467 l 987 414 m 511 328 q 477 345 494 337 q 439 357 460 352 q 394 366 419 363 q 336 368 369 368 q 215 331 256 368 q 175 225 175 294 q 211 106 175 144 q 314 69 248 69 q 367 75 339 69 q 422 96 394 81 q 478 134 450 111 q 533 193 507 158 q 518 256 524 222 q 511 328 513 289 m 568 827 l 486 827 l 629 1048 l 777 1048 l 568 827 z "},"Ǿ":{"ha":979,"x_min":86,"x_max":893,"o":"m 893 488 q 864 286 893 378 q 781 126 834 193 q 653 22 728 59 q 488 -16 578 -16 q 315 25 397 -16 l 272 -69 l 176 -69 l 243 75 q 127 247 168 142 q 86 485 86 352 q 115 687 86 595 q 198 846 144 779 q 325 950 251 913 q 490 987 399 987 q 644 956 573 987 l 684 1042 l 779 1042 l 720 909 q 792 834 760 878 q 847 737 825 791 q 881 620 869 683 q 893 488 893 557 m 603 865 q 486 893 549 893 q 369 864 422 893 q 275 783 315 836 q 213 655 235 730 q 191 488 191 580 q 217 309 191 388 q 289 176 243 230 l 603 865 m 789 485 q 758 676 789 593 q 675 812 728 760 l 357 117 q 492 79 417 79 q 610 108 555 79 q 704 189 664 136 q 766 317 743 242 q 789 485 789 392 m 504 1035 l 422 1035 l 565 1257 l 713 1257 l 504 1035 z "},"ǿ":{"ha":786,"x_min":77,"x_max":710,"o":"m 710 370 q 685 205 710 277 q 617 84 660 133 q 515 10 574 35 q 390 -16 457 -16 q 271 7 326 -16 l 235 -69 l 143 -69 l 200 50 q 110 175 142 96 q 77 364 77 254 q 101 528 77 456 q 170 647 126 599 q 271 720 213 695 q 396 745 330 745 q 460 739 429 745 q 519 721 491 732 l 557 799 l 648 799 l 590 677 q 678 554 646 631 q 710 370 710 477 m 481 639 q 393 657 441 657 q 306 639 345 657 q 238 584 267 621 q 195 493 210 548 q 179 367 179 439 q 196 234 179 290 q 243 140 212 178 l 481 639 m 608 367 q 592 495 608 440 q 547 586 576 549 l 310 89 q 393 72 349 72 q 480 91 441 72 q 549 147 520 110 q 593 239 577 184 q 608 367 608 294 m 408 827 l 326 827 l 469 1048 l 618 1048 l 408 827 z "},"Ș":{"ha":822,"x_min":77,"x_max":725,"o":"m 725 256 q 703 149 725 199 q 640 63 682 100 q 539 5 599 26 q 403 -16 479 -16 q 307 -5 353 -16 q 219 23 260 5 q 141 65 177 41 q 77 119 105 90 l 149 200 q 268 115 204 146 q 407 83 332 83 q 494 95 456 83 q 560 128 533 106 q 602 181 587 150 q 616 250 616 212 q 605 312 616 284 q 567 363 594 339 q 496 410 541 387 q 385 456 451 432 q 252 512 306 484 q 166 573 199 540 q 119 646 133 606 q 104 739 104 686 q 126 844 104 798 q 188 922 149 890 q 284 970 228 954 q 408 987 340 987 q 498 980 457 987 q 575 960 539 973 q 642 927 610 947 q 704 884 673 908 l 635 799 q 582 838 608 821 q 528 866 555 854 q 469 883 500 878 q 401 889 438 889 q 315 878 351 889 q 257 846 279 866 q 223 800 234 826 q 212 746 212 774 q 221 691 212 715 q 255 644 230 667 q 325 598 280 621 q 443 550 370 576 q 578 491 524 521 q 665 428 632 462 q 711 352 697 393 q 725 256 725 310 m 397 -333 l 340 -333 l 357 -72 l 472 -72 l 397 -333 z "},"ș":{"ha":648,"x_min":60,"x_max":567,"o":"m 549 667 l 490 590 q 404 641 444 627 q 309 656 364 656 q 219 630 251 656 q 187 566 187 605 q 195 525 187 543 q 221 492 203 508 q 271 461 240 477 q 349 424 302 445 q 441 379 400 400 q 509 332 481 358 q 552 273 537 307 q 567 191 567 239 q 546 98 567 137 q 489 34 524 59 q 409 -3 454 9 q 317 -16 364 -16 q 176 10 241 -16 q 60 78 112 36 l 121 154 q 215 95 165 115 q 319 74 265 74 q 431 103 395 74 q 467 186 467 133 q 458 227 467 208 q 429 262 449 245 q 376 297 409 279 q 294 335 343 314 q 200 380 239 358 q 136 426 161 401 q 99 483 111 451 q 87 558 87 514 q 104 634 87 600 q 152 693 121 669 q 224 731 182 718 q 315 745 266 745 q 449 723 391 745 q 549 667 507 701 m 310 -333 l 253 -333 l 269 -72 l 385 -72 l 310 -333 z "},"΄":{"ha":694,"x_min":241,"x_max":533,"o":"m 323 827 l 241 827 l 385 1048 l 533 1048 l 323 827 z "},"΅":{"ha":806,"x_min":136,"x_max":669,"o":"m 395 840 l 313 840 l 428 1063 l 576 1063 l 395 840 m 669 900 q 663 870 669 884 q 647 846 657 857 q 622 829 636 836 q 593 823 608 823 q 563 829 577 823 q 539 846 549 836 q 523 870 529 857 q 517 900 517 884 q 523 930 517 916 q 539 955 529 944 q 563 971 549 965 q 593 978 577 978 q 622 971 608 978 q 647 955 636 965 q 663 930 657 944 q 669 900 669 916 m 289 900 q 283 870 289 884 q 267 846 277 857 q 242 829 256 836 q 214 823 229 823 q 183 829 197 823 q 159 846 170 836 q 142 870 149 857 q 136 900 136 884 q 142 930 136 916 q 159 955 149 944 q 183 971 170 965 q 214 978 197 978 q 242 971 229 978 q 267 955 256 965 q 283 930 277 944 q 289 900 289 916 z "},"Ά":{"ha":942,"x_min":-41,"x_max":868,"o":"m 868 0 l 754 0 l 671 248 l 269 248 l 184 0 l 74 0 l 411 972 l 530 972 l 868 0 m 637 346 l 471 843 l 302 346 l 637 346 m 41 753 l -41 753 l 102 975 l 251 975 l 41 753 z "},"Έ":{"ha":815,"x_min":-254,"x_max":736,"o":"m 736 0 l 127 0 l 127 972 l 715 972 l 715 873 l 236 873 l 236 568 l 624 568 l 624 469 l 236 469 l 236 98 l 736 98 l 736 0 m -172 753 l -254 753 l -111 975 l 38 975 l -172 753 z "},"Ή":{"ha":956,"x_min":-253,"x_max":828,"o":"m 720 0 l 720 458 l 236 458 l 236 0 l 127 0 l 127 972 l 236 972 l 236 557 l 720 557 l 720 972 l 828 972 l 828 0 l 720 0 m -171 753 l -253 753 l -110 975 l 39 975 l -171 753 z "},"Ί":{"ha":378,"x_min":-246,"x_max":243,"o":"m 135 0 l 135 972 l 243 972 l 243 0 l 135 0 m -164 753 l -246 753 l -103 975 l 45 975 l -164 753 z "},"Ό":{"ha":979,"x_min":-156,"x_max":893,"o":"m 893 488 q 864 286 893 378 q 781 126 834 193 q 653 22 728 59 q 488 -16 578 -16 q 323 21 397 -16 q 196 125 249 58 q 115 283 144 191 q 86 485 86 375 q 115 687 86 595 q 198 846 144 779 q 325 950 251 913 q 490 987 399 987 q 655 950 581 987 q 782 847 729 913 q 864 689 835 781 q 893 488 893 597 m 785 485 q 762 651 785 576 q 699 779 739 726 q 605 860 659 831 q 486 889 550 889 q 370 861 423 889 q 277 780 316 832 q 217 653 239 728 q 195 488 195 579 q 217 321 195 396 q 280 194 240 247 q 374 112 319 141 q 492 83 428 83 q 608 112 555 83 q 701 192 662 140 q 763 319 741 245 q 785 485 785 393 m -74 753 l -156 753 l -13 975 l 136 975 l -74 753 z "},"Ύ":{"ha":905,"x_min":-254,"x_max":840,"o":"m 840 972 l 507 386 l 507 0 l 399 0 l 399 385 l 65 972 l 189 972 l 454 496 l 720 972 l 840 972 m -172 753 l -254 753 l -111 975 l 38 975 l -172 753 z "},"Ώ":{"ha":1006,"x_min":-156,"x_max":914,"o":"m 200 524 q 216 399 200 456 q 260 290 231 341 q 331 191 290 238 q 424 98 372 144 l 424 0 l 103 0 l 103 98 l 302 98 q 211 188 248 144 q 146 288 175 231 q 104 401 117 345 q 92 514 92 457 q 122 708 92 621 q 208 858 153 795 q 338 954 263 920 q 503 987 414 987 q 667 954 592 987 q 798 858 743 920 q 883 708 852 795 q 914 514 914 621 q 901 400 914 456 q 861 291 888 344 q 795 189 835 237 q 703 98 755 140 l 903 98 l 903 0 l 582 0 l 582 98 q 675 191 633 144 q 745 290 716 238 q 790 399 774 341 q 806 524 806 456 q 781 678 806 610 q 714 793 756 746 q 617 864 673 840 q 501 889 562 889 q 386 864 440 889 q 290 793 331 840 q 224 678 249 746 q 200 524 200 610 m -74 753 l -156 753 l -13 975 l 136 975 l -74 753 z "},"ΐ":{"ha":349,"x_min":-61,"x_max":472,"o":"m 122 0 l 122 729 l 227 729 l 227 0 l 122 0 m 197 840 l 115 840 l 231 1063 l 379 1063 l 197 840 m 472 900 q 466 870 472 884 q 449 846 460 857 q 425 829 439 836 q 395 823 411 823 q 366 829 380 823 q 342 846 352 836 q 326 870 332 857 q 319 900 319 884 q 326 930 319 916 q 342 955 332 944 q 366 971 352 965 q 395 978 380 978 q 425 971 411 978 q 449 955 439 965 q 466 930 460 944 q 472 900 472 916 m 92 900 q 85 870 92 884 q 69 846 79 857 q 45 829 59 836 q 16 823 31 823 q -14 829 0 823 q -38 846 -28 836 q -55 870 -49 857 q -61 900 -61 884 q -55 930 -61 916 q -38 955 -49 944 q -14 971 -28 965 q 16 978 0 978 q 45 971 31 978 q 69 955 59 965 q 85 930 79 944 q 92 900 92 916 z "},"Α":{"ha":942,"x_min":74,"x_max":868,"o":"m 868 0 l 754 0 l 671 248 l 269 248 l 184 0 l 74 0 l 411 972 l 530 972 l 868 0 m 637 346 l 471 843 l 302 346 l 637 346 z "},"Β":{"ha":869,"x_min":127,"x_max":793,"o":"m 793 288 q 711 72 793 144 q 476 0 629 0 l 127 0 l 127 972 l 484 972 q 590 958 541 972 q 673 913 638 943 q 728 837 708 883 q 747 729 747 791 q 737 657 747 689 q 708 601 726 625 q 663 559 689 576 q 607 530 637 541 q 691 495 656 517 q 748 442 726 472 q 781 373 770 412 q 793 288 793 334 m 639 725 q 629 786 639 758 q 600 832 619 813 q 550 863 580 852 q 479 873 520 873 l 236 873 l 236 571 l 471 571 q 548 583 516 571 q 600 616 580 595 q 630 665 621 637 q 639 725 639 693 m 685 282 q 670 363 685 328 q 629 423 656 399 q 564 460 602 448 q 478 473 526 473 l 236 473 l 236 98 l 484 98 q 577 112 538 98 q 639 149 615 125 q 674 206 663 172 q 685 282 685 240 z "},"Γ":{"ha":726,"x_min":127,"x_max":671,"o":"m 236 873 l 236 0 l 127 0 l 127 972 l 671 972 l 671 873 l 236 873 z "},"Δ":{"ha":953,"x_min":65,"x_max":888,"o":"m 65 0 l 419 972 l 536 972 l 888 0 l 65 0 m 214 98 l 737 98 l 477 848 l 214 98 z "},"Ε":{"ha":815,"x_min":127,"x_max":736,"o":"m 736 0 l 127 0 l 127 972 l 715 972 l 715 873 l 236 873 l 236 568 l 624 568 l 624 469 l 236 469 l 236 98 l 736 98 l 736 0 z "},"Ζ":{"ha":872,"x_min":85,"x_max":779,"o":"m 779 0 l 85 0 l 85 94 l 660 878 l 113 878 l 113 972 l 779 972 l 779 878 l 204 94 l 779 94 l 779 0 z "},"Η":{"ha":956,"x_min":127,"x_max":828,"o":"m 720 0 l 720 458 l 236 458 l 236 0 l 127 0 l 127 972 l 236 972 l 236 557 l 720 557 l 720 972 l 828 972 l 828 0 l 720 0 z "},"Θ":{"ha":996,"x_min":83,"x_max":913,"o":"m 329 557 l 667 557 l 667 458 l 329 458 l 329 557 m 804 485 q 782 649 804 575 q 718 777 759 724 q 620 860 677 830 q 494 889 563 889 q 370 861 426 889 q 275 780 315 832 q 214 653 235 728 q 192 488 192 579 q 214 321 192 396 q 277 194 237 247 q 375 112 318 141 q 500 83 431 83 q 624 112 568 83 q 720 192 680 140 q 782 319 760 245 q 804 485 804 393 m 913 484 q 883 282 913 374 q 799 124 854 190 q 668 21 745 58 q 496 -16 591 -16 q 325 21 401 -16 q 195 125 248 58 q 112 283 141 191 q 83 485 83 375 q 113 687 83 595 q 196 846 142 779 q 327 950 250 913 q 498 987 404 987 q 671 950 594 987 q 801 845 747 912 q 884 686 855 779 q 913 484 913 593 z "},"Ι":{"ha":378,"x_min":135,"x_max":243,"o":"m 135 0 l 135 972 l 243 972 l 243 0 l 135 0 z "},"Κ":{"ha":892,"x_min":127,"x_max":832,"o":"m 832 0 l 708 0 l 421 518 l 236 279 l 236 0 l 127 0 l 127 972 l 236 972 l 236 424 l 660 972 l 778 972 l 493 607 l 832 0 z "},"Λ":{"ha":925,"x_min":78,"x_max":847,"o":"m 189 0 l 78 0 l 403 972 l 522 972 l 847 0 l 734 0 l 463 839 l 189 0 z "},"Μ":{"ha":1095,"x_min":127,"x_max":966,"o":"m 966 0 l 863 0 l 863 742 l 545 -25 l 232 742 l 232 0 l 127 0 l 127 972 l 249 972 l 547 215 l 848 972 l 966 972 l 966 0 z "},"Ν":{"ha":956,"x_min":127,"x_max":828,"o":"m 828 0 l 726 0 l 232 774 l 232 0 l 127 0 l 127 972 l 233 972 l 724 183 l 724 972 l 828 972 l 828 0 z "},"Ξ":{"ha":839,"x_min":93,"x_max":746,"o":"m 93 0 l 93 98 l 366 98 l 366 469 l 196 469 l 196 568 l 366 568 l 366 873 l 104 873 l 104 972 l 734 972 l 734 873 l 473 873 l 473 568 l 643 568 l 643 469 l 473 469 l 473 98 l 746 98 l 746 0 l 93 0 z "},"Ο":{"ha":979,"x_min":86,"x_max":893,"o":"m 893 488 q 864 286 893 378 q 781 126 834 193 q 653 22 728 59 q 488 -16 578 -16 q 323 21 397 -16 q 196 125 249 58 q 115 283 144 191 q 86 485 86 375 q 115 687 86 595 q 198 846 144 779 q 325 950 251 913 q 490 987 399 987 q 655 950 581 987 q 782 847 729 913 q 864 689 835 781 q 893 488 893 597 m 785 485 q 762 651 785 576 q 699 779 739 726 q 605 860 659 831 q 486 889 550 889 q 370 861 423 889 q 277 780 316 832 q 217 653 239 728 q 195 488 195 579 q 217 321 195 396 q 280 194 240 247 q 374 112 319 141 q 492 83 428 83 q 608 112 555 83 q 701 192 662 140 q 763 319 741 245 q 785 485 785 393 z "},"Π":{"ha":939,"x_min":127,"x_max":811,"o":"m 703 0 l 703 873 l 236 873 l 236 0 l 127 0 l 127 972 l 811 972 l 811 0 l 703 0 z "},"Ρ":{"ha":859,"x_min":127,"x_max":802,"o":"m 802 682 q 778 554 802 610 q 710 459 753 498 q 606 401 666 421 q 472 382 545 382 l 236 382 l 236 0 l 127 0 l 127 972 l 492 972 q 614 955 557 972 q 713 901 671 937 q 778 811 754 865 q 802 682 802 756 m 693 677 q 673 778 693 738 q 621 838 652 818 q 556 866 590 859 q 488 873 523 873 l 236 873 l 236 481 l 473 481 q 640 531 586 481 q 693 677 693 581 z "},"Σ":{"ha":857,"x_min":85,"x_max":779,"o":"m 228 878 l 553 511 l 200 94 l 779 94 l 779 0 l 85 0 l 85 94 l 431 504 l 102 878 l 102 972 l 768 972 l 768 878 l 228 878 z "},"Τ":{"ha":817,"x_min":68,"x_max":749,"o":"m 463 873 l 463 0 l 354 0 l 354 873 l 68 873 l 68 972 l 749 972 l 749 873 l 463 873 z "},"Υ":{"ha":905,"x_min":65,"x_max":840,"o":"m 840 972 l 507 386 l 507 0 l 399 0 l 399 385 l 65 972 l 189 972 l 454 496 l 720 972 l 840 972 z "},"Φ":{"ha":1112,"x_min":81,"x_max":1032,"o":"m 1032 500 q 1002 347 1032 416 q 917 229 972 279 q 784 148 861 178 q 611 110 706 118 l 611 0 l 503 0 l 503 110 q 328 146 406 117 q 195 226 250 176 q 111 344 140 276 q 81 497 81 412 q 111 650 81 581 q 196 769 141 719 q 329 849 251 819 q 503 886 407 879 l 503 972 l 611 972 l 611 886 q 784 849 707 879 q 917 770 862 819 q 1002 652 972 720 q 1032 500 1032 584 m 924 497 q 901 618 924 565 q 836 708 878 671 q 737 767 795 745 q 611 796 680 789 l 611 200 q 738 227 680 205 q 837 286 795 248 q 901 376 878 323 q 924 497 924 429 m 503 798 q 375 770 433 791 q 276 712 317 749 q 212 622 235 675 q 189 500 189 569 q 212 378 189 431 q 277 287 235 325 q 376 228 318 250 q 503 200 433 206 l 503 798 z "},"Χ":{"ha":878,"x_min":79,"x_max":799,"o":"m 799 0 l 676 0 l 439 405 l 199 0 l 79 0 l 382 505 l 104 972 l 227 972 l 440 608 l 654 972 l 774 972 l 496 509 l 799 0 z "},"Ψ":{"ha":985,"x_min":83,"x_max":901,"o":"m 901 595 q 880 459 901 522 q 814 350 858 397 q 703 274 770 302 q 546 240 636 245 l 546 0 l 437 0 l 437 240 q 281 272 347 243 q 171 347 214 300 q 105 457 127 394 q 83 593 83 520 l 83 972 l 192 972 l 192 595 q 256 408 192 477 q 437 334 320 340 l 437 972 l 546 972 l 546 332 q 731 406 669 338 q 793 593 793 474 l 793 972 l 901 972 l 901 595 z "},"Ω":{"ha":1006,"x_min":92,"x_max":914,"o":"m 200 524 q 216 399 200 456 q 260 290 231 341 q 331 191 290 238 q 424 98 372 144 l 424 0 l 103 0 l 103 98 l 302 98 q 211 188 248 144 q 146 288 175 231 q 104 401 117 345 q 92 514 92 457 q 122 708 92 621 q 208 858 153 795 q 338 954 263 920 q 503 987 414 987 q 667 954 592 987 q 798 858 743 920 q 883 708 852 795 q 914 514 914 621 q 901 400 914 456 q 861 291 888 344 q 795 189 835 237 q 703 98 755 140 l 903 98 l 903 0 l 582 0 l 582 98 q 675 191 633 144 q 745 290 716 238 q 790 399 774 341 q 806 524 806 456 q 781 678 806 610 q 714 793 756 746 q 617 864 673 840 q 501 889 562 889 q 386 864 440 889 q 290 793 331 840 q 224 678 249 746 q 200 524 200 610 z "},"Ϊ":{"ha":378,"x_min":-22,"x_max":399,"o":"m 135 0 l 135 972 l 243 972 l 243 0 l 135 0 m 399 1128 q 393 1098 399 1112 q 377 1074 387 1084 q 353 1057 367 1063 q 323 1051 339 1051 q 294 1057 308 1051 q 270 1074 280 1063 q 253 1098 259 1084 q 247 1128 247 1112 q 253 1157 247 1143 q 270 1182 259 1171 q 294 1199 280 1193 q 323 1205 308 1205 q 353 1199 339 1205 q 377 1182 367 1193 q 393 1157 387 1171 q 399 1128 399 1143 m 130 1128 q 124 1098 130 1112 q 108 1074 118 1084 q 84 1057 98 1063 q 55 1051 70 1051 q 25 1057 39 1051 q 0 1074 11 1063 q -16 1098 -10 1084 q -22 1128 -22 1112 q -16 1157 -22 1143 q 0 1182 -10 1171 q 25 1199 11 1193 q 55 1205 39 1205 q 84 1199 70 1205 q 108 1182 98 1193 q 124 1157 118 1171 q 130 1128 130 1143 z "},"Ϋ":{"ha":905,"x_min":65,"x_max":840,"o":"m 840 972 l 507 386 l 507 0 l 399 0 l 399 385 l 65 972 l 189 972 l 454 496 l 720 972 l 840 972 m 663 1109 q 656 1079 663 1093 q 640 1055 650 1065 q 616 1038 630 1044 q 587 1032 602 1032 q 557 1038 571 1032 q 533 1055 543 1044 q 516 1079 522 1065 q 510 1109 510 1093 q 516 1138 510 1124 q 533 1163 522 1152 q 557 1180 543 1174 q 587 1186 571 1186 q 616 1180 602 1186 q 640 1163 630 1174 q 656 1138 650 1152 q 663 1109 663 1124 m 393 1109 q 387 1079 393 1093 q 371 1055 381 1065 q 347 1038 361 1044 q 318 1032 333 1032 q 288 1038 302 1032 q 263 1055 274 1044 q 247 1079 253 1065 q 241 1109 241 1093 q 247 1138 241 1124 q 263 1163 253 1152 q 288 1180 274 1174 q 318 1186 302 1186 q 347 1180 333 1186 q 371 1163 361 1174 q 387 1138 381 1152 q 393 1109 393 1124 z "}}}
